{
.appVersion = "939";
DisplayStrings = (
/dieresiscomb/dotaccentcomb,
u,
Z,
"PERSONAL RS",
/acutecomb,
/gravecomb,
/commaaccentcomb,
/emdash,
",",
A,
e
);
copyright = "Copyright © 2018 by Dale Sattler. All rights reserved.";
date = "2018-04-08 12:00:00 +0000";
designer = "Dale Sattler";
designerURL = "http://noponies.com";
disablesNiceNames = 1;
familyName = "Kulim Park";
fontMaster = (
{
alignmentZones = (
"{830, 16}",
"{700, 4}",
"{500, 8}",
"{0, -11}",
"{-205, -16}"
);
ascender = 830;
capHeight = 700;
customParameters = (
{
name = typoAscender;
value = 830;
},
{
name = typoDescender;
value = -205;
},
{
name = typoLineGap;
value = 165;
},
{
name = winAscent;
value = 995;
},
{
name = winDescent;
value = 205;
},
{
name = hheaAscender;
value = 830;
},
{
name = hheaDescender;
value = -205;
}
);
descender = -205;
guideLines = (
{
position = "{298, 342}";
}
);
id = "2D48A379-BE71-4914-8765-C68406EE07E8";
userData = {
GSOffsetHorizontal = 8;
GSOffsetVertical = 10;
};
verticalStems = (
105
);
weight = Bold;
weightValue = 700;
widthValue = 5;
xHeight = 500;
}
);
glyphs = (
{
glyphname = A;
lastChange = "2018-04-17 20:52:31 +0000";
layers = (
{
anchors = (
{
name = bottom;
position = "{329, 0}";
},
{
name = ogonek;
position = "{589, 10}";
},
{
name = top;
position = "{329, 710}";
}
);
layerId = "2D48A379-BE71-4914-8765-C68406EE07E8";
paths = (
{
closed = 1;
nodes = (
"399 700 LINE",
"252 700 LINE",
"40 0 LINE",
"154 0 LINE",
"208 172 LINE",
"449 172 LINE",
"504 0 LINE",
"618 0 LINE"
);
},
{
closed = 1;
nodes = (
"235 269 LINE",
"325 567 LINE",
"419 269 LINE"
);
}
);
width = 658;
}
);
leftKerningGroup = "upper-A";
note = A;
unicode = 0041;
},
{
glyphname = AE;
lastChange = "2018-04-13 01:07:09 +0000";
layers = (
{
layerId = "2D48A379-BE71-4914-8765-C68406EE07E8";
paths = (
{
closed = 1;
nodes = (
"831 105 LINE",
"589 105 LINE",
"531 292 LINE",
"777 292 LINE",
"777 389 LINE",
"501 389 LINE",
"436 595 LINE",
"831 595 LINE",
"831 700 LINE",
"254 700 LINE",
"40 0 LINE",
"155 0 LINE",
"203 159 LINE",
"457 159 LINE",
"503 14 LINE",
"503 0 LINE",
"831 0 LINE"
);
},
{
closed = 1;
nodes = (
"237 269 LINE",
"328 567 LINE",
"423 269 LINE"
);
}
);
width = 881;
}
);
leftKerningGroup = "upper-A";
note = AE;
unicode = 00C6;
},
{
glyphname = B;
lastChange = "2018-04-08 20:53:55 +0000";
layers = (
{
layerId = "2D48A379-BE71-4914-8765-C68406EE07E8";
paths = (
{
closed = 1;
nodes = (
"482 411 OFFCURVE",
"497 461 OFFCURVE",
"497 506 CURVE SMOOTH",
"497 557 OFFCURVE",
"479 605 OFFCURVE",
"448 641 CURVE SMOOTH",
"416 677 OFFCURVE",
"370 700 OFFCURVE",
"317 700 CURVE SMOOTH",
"50 700 LINE",
"50 0 LINE",
"347 0 LINE SMOOTH",
"398 0 OFFCURVE",
"444 27 OFFCURVE",
"477 67 CURVE SMOOTH",
"509 107 OFFCURVE",
"530 158 OFFCURVE",
"530 209 CURVE SMOOTH",
"530 276 OFFCURVE",
"500 336 OFFCURVE",
"451 372 CURVE"
);
},
{
closed = 1;
nodes = (
"340 591 OFFCURVE",
"358 580 OFFCURVE",
"371 564 CURVE",
"383 548 OFFCURVE",
"390 527 OFFCURVE",
"390 506 CURVE SMOOTH",
"390 479 OFFCURVE",
"381 454 OFFCURVE",
"367 435 CURVE SMOOTH",
"353 415 OFFCURVE",
"333 402 OFFCURVE",
"314 402 CURVE SMOOTH",
"158 402 LINE",
"158 591 LINE",
"317 591 LINE SMOOTH"
);
},
{
closed = 1;
nodes = (
"373 298 OFFCURVE",
"391 286 OFFCURVE",
"403 270 CURVE SMOOTH",
"415 253 OFFCURVE",
"422 230 OFFCURVE",
"422 209 CURVE SMOOTH",
"422 182 OFFCURVE",
"413 158 OFFCURVE",
"399 140 CURVE SMOOTH",
"385 122 OFFCURVE",
"366 109 OFFCURVE",
"347 109 CURVE SMOOTH",
"158 109 LINE",
"158 298 LINE",
"350 298 LINE SMOOTH"
);
}
);
width = 570;
}
);
note = B;
unicode = 0042;
},
{
glyphname = C;
lastChange = "2018-04-13 01:07:09 +0000";
layers = (
{
anchors = (
{
name = bottom;
position = "{361, 0}";
},
{
name = top;
position = "{361, 710}";
}
);
layerId = "2D48A379-BE71-4914-8765-C68406EE07E8";
paths = (
{
closed = 1;
nodes = (
"484 -10 OFFCURVE",
"579 36 OFFCURVE",
"651 124 CURVE",
"566 193 LINE",
"515 130 OFFCURVE",
"451 98 OFFCURVE",
"383 98 CURVE SMOOTH",
"319 98 OFFCURVE",
"261 126 OFFCURVE",
"218 171 CURVE SMOOTH",
"175 216 OFFCURVE",
"149 277 OFFCURVE",
"149 345 CURVE SMOOTH",
"149 413 OFFCURVE",
"175 479 OFFCURVE",
"218 524 CURVE SMOOTH",
"261 569 OFFCURVE",
"319 597 OFFCURVE",
"383 597 CURVE SMOOTH",
"451 597 OFFCURVE",
"515 565 OFFCURVE",
"566 502 CURVE",
"651 571 LINE",
"579 659 OFFCURVE",
"484 705 OFFCURVE",
"383 705 CURVE SMOOTH",
"288 705 OFFCURVE",
"203 665 OFFCURVE",
"141 601 CURVE SMOOTH",
"79 537 OFFCURVE",
"40 442 OFFCURVE",
"40 345 CURVE SMOOTH",
"40 246 OFFCURVE",
"79 158 OFFCURVE",
"141 94 CURVE SMOOTH",
"203 30 OFFCURVE",
"288 -10 OFFCURVE",
"383 -10 CURVE SMOOTH"
);
}
);
width = 691;
}
);
leftKerningGroup = "upper-rounds";
note = C;
unicode = 0043;
},
{
glyphname = D;
lastChange = "2018-04-08 23:35:06 +0000";
layers = (
{
anchors = (
{
name = bottom;
position = "{319, 0}";
},
{
name = center;
position = "{319, 350}";
},
{
name = top;
position = "{319, 700}";
}
);
layerId = "2D48A379-BE71-4914-8765-C68406EE07E8";
paths = (
{
closed = 1;
nodes = (
"352 0 OFFCURVE",
"438 39 OFFCURVE",
"499 103 CURVE SMOOTH",
"560 167 OFFCURVE",
"598 255 OFFCURVE",
"598 352 CURVE SMOOTH",
"598 448 OFFCURVE",
"560 536 OFFCURVE",
"499 600 CURVE SMOOTH",
"438 664 OFFCURVE",
"352 703 OFFCURVE",
"259 703 CURVE SMOOTH",
"50 703 LINE",
"50 0 LINE",
"259 0 LINE SMOOTH"
);
},
{
closed = 1;
nodes = (
"323 597 OFFCURVE",
"380 571 OFFCURVE",
"422 527 CURVE SMOOTH",
"464 483 OFFCURVE",
"489 421 OFFCURVE",
"489 352 CURVE SMOOTH",
"489 283 OFFCURVE",
"464 221 OFFCURVE",
"422 177 CURVE SMOOTH",
"380 133 OFFCURVE",
"323 107 OFFCURVE",
"259 107 CURVE SMOOTH",
"160 107 LINE",
"160 597 LINE",
"259 597 LINE SMOOTH"
);
}
);
width = 638;
}
);
note = D;
unicode = 0044;
},
{
glyphname = E;
lastChange = "2018-04-09 03:01:23 +0000";
layers = (
{
anchors = (
{
name = bottom;
position = "{234, 0}";
},
{
name = ogonek;
position = "{420, 10}";
},
{
name = top;
position = "{234, 710}";
},
{
name = topleft;
position = "{20, 700}";
}
);
layerId = "2D48A379-BE71-4914-8765-C68406EE07E8";
paths = (
{
closed = 1;
nodes = (
"427 105 LINE",
"156 105 LINE",
"156 295 LINE",
"375 295 LINE",
"375 389 LINE",
"156 389 LINE",
"156 595 LINE",
"427 595 LINE",
"427 700 LINE",
"50 700 LINE",
"50 0 LINE",
"427 0 LINE"
);
}
);
width = 467;
}
);
note = E;
unicode = 0045;
},
{
glyphname = F;
lastChange = "2018-04-08 23:49:23 +0000";
layers = (
{
layerId = "2D48A379-BE71-4914-8765-C68406EE07E8";
paths = (
{
closed = 1;
nodes = (
"427 700 LINE",
"50 700 LINE",
"50 0 LINE",
"156 0 LINE",
"156 296 LINE",
"375 296 LINE",
"375 390 LINE",
"156 390 LINE",
"156 595 LINE",
"427 595 LINE"
);
}
);
width = 467;
}
);
note = F;
unicode = 0046;
},
{
glyphname = G;
lastChange = "2018-04-13 01:07:09 +0000";
layers = (
{
anchors = (
{
name = bottom;
position = "{372, 0}";
},
{
name = top;
position = "{372, 700}";
}
);
layerId = "2D48A379-BE71-4914-8765-C68406EE07E8";
paths = (
{
closed = 1;
nodes = (
"524 -5 OFFCURVE",
"621 46 OFFCURVE",
"677 161 CURVE",
"677 350 LINE",
"449 350 LINE",
"449 249 LINE",
"566 249 LINE",
"566 189 LINE",
"526 128 OFFCURVE",
"474 105 OFFCURVE",
"383 105 CURVE SMOOTH",
"319 105 OFFCURVE",
"261 133 OFFCURVE",
"219 177 CURVE SMOOTH",
"177 221 OFFCURVE",
"151 282 OFFCURVE",
"151 350 CURVE SMOOTH",
"151 418 OFFCURVE",
"177 479 OFFCURVE",
"219 523 CURVE SMOOTH",
"261 567 OFFCURVE",
"319 594 OFFCURVE",
"383 594 CURVE SMOOTH",
"460 594 OFFCURVE",
"533 556 OFFCURVE",
"582 480 CURVE",
"674 540 LINE",
"605 647 OFFCURVE",
"499 705 OFFCURVE",
"383 705 CURVE SMOOTH",
"288 705 OFFCURVE",
"203 665 OFFCURVE",
"141 601 CURVE SMOOTH",
"79 537 OFFCURVE",
"40 447 OFFCURVE",
"40 350 CURVE SMOOTH",
"40 251 OFFCURVE",
"79 163 OFFCURVE",
"141 99 CURVE SMOOTH",
"203 35 OFFCURVE",
"288 -5 OFFCURVE",
"383 -5 CURVE SMOOTH"
);
}
);
width = 717;
}
);
leftKerningGroup = "upper-rounds";
note = G;
unicode = 0047;
},
{
glyphname = H;
lastChange = "2018-04-11 00:21:32 +0000";
layers = (
{
anchors = (
{
name = bottom;
position = "{303, 0}";
},
{
name = center;
position = "{303, 568}";
},
{
name = top;
position = "{303, 700}";
},
{
name = topleft;
position = "{20, 700}";
}
);
layerId = "2D48A379-BE71-4914-8765-C68406EE07E8";
paths = (
{
closed = 1;
nodes = (
"556 700 LINE",
"448 700 LINE",
"448 386 LINE",
"159 386 LINE",
"159 700 LINE",
"50 700 LINE",
"50 0 LINE",
"159 0 LINE",
"159 292 LINE",
"448 292 LINE",
"448 0 LINE",
"556 0 LINE"
);
}
);
width = 606;
}
);
note = H;
unicode = 0048;
},
{
glyphname = I;
lastChange = "2018-04-09 03:01:41 +0000";
layers = (
{
anchors = (
{
name = bottom;
position = "{103, 0}";
},
{
name = ogonek;
position = "{144, 10}";
},
{
name = top;
position = "{103, 710}";
},
{
name = topleft;
position = "{20, 700}";
}
);
layerId = "2D48A379-BE71-4914-8765-C68406EE07E8";
paths = (
{
closed = 1;
nodes = (
"155 700 LINE",
"50 700 LINE",
"50 0 LINE",
"155 0 LINE"
);
}
);
width = 205;
}
);
note = I;
unicode = 0049;
},
{
glyphname = J;
lastChange = "2018-04-12 21:50:55 +0000";
layers = (
{
anchors = (
{
name = bottom;
position = "{201, 0}";
},
{
name = top;
position = "{201, 700}";
}
);
layerId = "2D48A379-BE71-4914-8765-C68406EE07E8";
paths = (
{
closed = 1;
nodes = (
"224 -9 OFFCURVE",
"273 13 OFFCURVE",
"305 58 CURVE SMOOTH",
"336 102 OFFCURVE",
"348 172 OFFCURVE",
"348 271 CURVE SMOOTH",
"348 700 LINE",
"244 700 LINE",
"244 271 LINE SMOOTH",
"244 226 OFFCURVE",
"242 192 OFFCURVE",
"237 169 CURVE SMOOTH",
"228 124 OFFCURVE",
"214 110 OFFCURVE",
"194 103 CURVE",
"182 100 OFFCURVE",
"168 100 OFFCURVE",
"156 100 CURVE",
"135 99 OFFCURVE",
"101 104 OFFCURVE",
"60 119 CURVE",
"30 18 LINE",
"79 1 OFFCURVE",
"120 -11 OFFCURVE",
"152 -10 CURVE SMOOTH"
);
}
);
width = 398;
}
);
note = J;
unicode = 004A;
},
{
glyphname = K;
lastChange = "2018-04-12 21:50:55 +0000";
layers = (
{
anchors = (
{
name = bottom;
position = "{292, 0}";
},
{
name = top;
position = "{292, 700}";
}
);
layerId = "2D48A379-BE71-4914-8765-C68406EE07E8";
paths = (
{
closed = 1;
nodes = (
"307 439 LINE",
"528 702 LINE",
"386 702 LINE",
"154 427 LINE",
"154 701 LINE",
"50 701 LINE",
"50 0 LINE",
"154 0 LINE",
"154 258 LINE",
"232 351 LINE",
"430 0 LINE",
"554 0 LINE"
);
}
);
width = 577;
}
);
note = K;
unicode = 004B;
},
{
glyphname = L;
lastChange = "2018-04-09 03:02:17 +0000";
layers = (
{
anchors = (
{
name = bottom;
position = "{210, 0}";
},
{
name = center;
position = "{114, 350}";
},
{
name = top;
position = "{210, 700}";
},
{
name = topright;
position = "{399, 700}";
}
);
layerId = "2D48A379-BE71-4914-8765-C68406EE07E8";
paths = (
{
closed = 1;
nodes = (
"379 101 LINE",
"157 101 LINE",
"157 700 LINE",
"53 700 LINE",
"53 0 LINE",
"379 0 LINE"
);
}
);
width = 419;
}
);
note = L;
unicode = 004C;
},
{
glyphname = M;
lastChange = "2018-04-12 21:50:55 +0000";
layers = (
{
layerId = "2D48A379-BE71-4914-8765-C68406EE07E8";
paths = (
{
closed = 1;
nodes = (
"774 702 LINE",
"589 702 LINE",
"412 229 LINE",
"235 702 LINE",
"50 702 LINE",
"50 0 LINE",
"156 0 LINE",
"156 592 LINE",
"160 592 LINE",
"357 105 LINE",
"468 105 LINE",
"664 592 LINE",
"668 592 LINE",
"668 0 LINE",
"774 0 LINE"
);
}
);
width = 824;
}
);
note = M;
unicode = 004D;
},
{
glyphname = N;
lastChange = "2018-04-12 21:50:55 +0000";
layers = (
{
anchors = (
{
name = bottom;
position = "{311, 0}";
},
{
name = top;
position = "{311, 700}";
}
);
layerId = "2D48A379-BE71-4914-8765-C68406EE07E8";
paths = (
{
closed = 1;
nodes = (
"570 700 LINE",
"469 700 LINE",
"469 148 LINE",
"206 700 LINE",
"50 700 LINE",
"50 1 LINE",
"156 1 LINE",
"156 584 LINE",
"430 0 LINE",
"570 0 LINE"
);
}
);
width = 620;
}
);
note = N;
unicode = 004E;
},
{
glyphname = Eng;
lastChange = "2018-04-11 00:25:00 +0000";
layers = (
{
layerId = "2D48A379-BE71-4914-8765-C68406EE07E8";
paths = (
{
closed = 1;
nodes = (
"570 700 LINE",
"469 700 LINE",
"469 148 LINE",
"206 700 LINE",
"50 700 LINE",
"50 1 LINE",
"156 1 LINE",
"156 584 LINE",
"430 0 LINE",
"570 0 LINE"
);
},
{
closed = 1;
nodes = (
"471 -12 LINE",
"471 -90 OFFCURVE",
"427 -85 OFFCURVE",
"328 -86 CURVE",
"328 -174 LINE",
"524 -178 OFFCURVE",
"570 -139 OFFCURVE",
"570 -11 CURVE",
"570 180 LINE",
"471 180 LINE"
);
}
);
width = 620;
}
);
unicode = 014A;
},
{
glyphname = O;
lastChange = "2018-04-13 01:07:09 +0000";
layers = (
{
anchors = (
{
name = bottom;
position = "{383, 0}";
},
{
name = center;
position = "{383, 350}";
},
{
name = ogonek;
position = "{688, 10}";
},
{
name = top;
position = "{383, 710}";
},
{
name = topleft;
position = "{20, 700}";
},
{
name = topright;
position = "{745, 700}";
}
);
layerId = "2D48A379-BE71-4914-8765-C68406EE07E8";
paths = (
{
closed = 1;
nodes = (
"478 -10 OFFCURVE",
"563 29 OFFCURVE",
"625 93 CURVE SMOOTH",
"687 157 OFFCURVE",
"725 246 OFFCURVE",
"725 343 CURVE SMOOTH",
"725 440 OFFCURVE",
"688 531 OFFCURVE",
"626 596 CURVE SMOOTH",
"564 661 OFFCURVE",
"478 703 OFFCURVE",
"383 703 CURVE SMOOTH",
"288 703 OFFCURVE",
"203 661 OFFCURVE",
"141 596 CURVE SMOOTH",
"79 531 OFFCURVE",
"40 440 OFFCURVE",
"40 343 CURVE SMOOTH",
"40 246 OFFCURVE",
"79 157 OFFCURVE",
"141 93 CURVE SMOOTH",
"203 29 OFFCURVE",
"288 -10 OFFCURVE",
"383 -10 CURVE SMOOTH"
);
},
{
closed = 1;
nodes = (
"448 602 OFFCURVE",
"506 572 OFFCURVE",
"549 525 CURVE SMOOTH",
"591 477 OFFCURVE",
"617 413 OFFCURVE",
"617 343 CURVE SMOOTH",
"617 273 OFFCURVE",
"591 210 OFFCURVE",
"549 165 CURVE SMOOTH",
"506 120 OFFCURVE",
"448 91 OFFCURVE",
"383 91 CURVE SMOOTH",
"318 91 OFFCURVE",
"260 120 OFFCURVE",
"217 165 CURVE SMOOTH",
"175 210 OFFCURVE",
"148 273 OFFCURVE",
"148 343 CURVE SMOOTH",
"148 413 OFFCURVE",
"175 477 OFFCURVE",
"217 525 CURVE SMOOTH",
"260 572 OFFCURVE",
"318 602 OFFCURVE",
"383 602 CURVE SMOOTH"
);
}
);
width = 765;
}
);
leftKerningGroup = "upper-rounds";
note = O;
unicode = 004F;
},
{
glyphname = OE;
lastChange = "2018-04-13 01:07:09 +0000";
layers = (
{
layerId = "2D48A379-BE71-4914-8765-C68406EE07E8";
paths = (
{
closed = 1;
nodes = (
"1009 105 LINE",
"730 105 LINE",
"730 292 LINE",
"955 292 LINE",
"955 389 LINE",
"730 389 LINE",
"730 595 LINE",
"1009 595 LINE",
"1009 700 LINE",
"620 700 LINE",
"620 606 LINE",
"559 666 OFFCURVE",
"477 703 OFFCURVE",
"386 703 CURVE SMOOTH",
"290 703 OFFCURVE",
"204 661 OFFCURVE",
"141 596 CURVE SMOOTH",
"78 531 OFFCURVE",
"40 440 OFFCURVE",
"40 343 CURVE SMOOTH",
"40 246 OFFCURVE",
"78 157 OFFCURVE",
"141 93 CURVE SMOOTH",
"204 29 OFFCURVE",
"290 -10 OFFCURVE",
"386 -10 CURVE SMOOTH",
"477 -10 OFFCURVE",
"559 25 OFFCURVE",
"620 84 CURVE",
"620 0 LINE",
"1009 0 LINE"
);
},
{
closed = 1;
nodes = (
"450 599 OFFCURVE",
"508 570 OFFCURVE",
"551 523 CURVE SMOOTH",
"594 476 OFFCURVE",
"620 412 OFFCURVE",
"620 343 CURVE SMOOTH",
"620 274 OFFCURVE",
"594 211 OFFCURVE",
"551 167 CURVE SMOOTH",
"508 122 OFFCURVE",
"450 94 OFFCURVE",
"386 94 CURVE SMOOTH",
"322 94 OFFCURVE",
"263 122 OFFCURVE",
"220 167 CURVE SMOOTH",
"177 211 OFFCURVE",
"151 274 OFFCURVE",
"151 343 CURVE SMOOTH",
"151 412 OFFCURVE",
"177 476 OFFCURVE",
"220 523 CURVE SMOOTH",
"263 570 OFFCURVE",
"322 599 OFFCURVE",
"386 599 CURVE SMOOTH"
);
}
);
width = 1049;
}
);
leftKerningGroup = "upper-rounds";
note = OE;
unicode = 0152;
},
{
glyphname = P;
lastChange = "2018-04-08 23:38:22 +0000";
layers = (
{
layerId = "2D48A379-BE71-4914-8765-C68406EE07E8";
paths = (
{
closed = 1;
nodes = (
"363 281 OFFCURVE",
"409 308 OFFCURVE",
"442 348 CURVE SMOOTH",
"474 388 OFFCURVE",
"495 440 OFFCURVE",
"495 491 CURVE SMOOTH",
"495 543 OFFCURVE",
"477 595 OFFCURVE",
"446 635 CURVE SMOOTH",
"414 674 OFFCURVE",
"368 700 OFFCURVE",
"315 700 CURVE SMOOTH",
"51 700 LINE",
"50 0 LINE",
"156 0 LINE",
"156 281 LINE",
"312 281 LINE SMOOTH"
);
},
{
closed = 1;
nodes = (
"360 590 OFFCURVE",
"389 544 OFFCURVE",
"390 491 CURVE SMOOTH",
"390 468 OFFCURVE",
"381 444 OFFCURVE",
"367 425 CURVE SMOOTH",
"353 405 OFFCURVE",
"332 391 OFFCURVE",
"312 391 CURVE SMOOTH",
"156 391 LINE",
"156 590 LINE",
"315 590 LINE SMOOTH"
);
}
);
width = 535;
}
);
note = P;
unicode = 0050;
},
{
glyphname = Thorn;
lastChange = "2018-04-08 20:53:55 +0000";
layers = (
{
layerId = "2D48A379-BE71-4914-8765-C68406EE07E8";
paths = (
{
closed = 1;
nodes = (
"365 141 OFFCURVE",
"411 168 OFFCURVE",
"444 208 CURVE SMOOTH",
"476 248 OFFCURVE",
"497 300 OFFCURVE",
"497 351 CURVE SMOOTH",
"497 403 OFFCURVE",
"479 455 OFFCURVE",
"448 495 CURVE SMOOTH",
"416 534 OFFCURVE",
"370 560 OFFCURVE",
"317 560 CURVE SMOOTH",
"158 560 LINE",
"158 700 LINE",
"51 700 LINE",
"50 0 LINE",
"158 0 LINE",
"158 141 LINE",
"314 141 LINE SMOOTH"
);
},
{
closed = 1;
nodes = (
"362 450 OFFCURVE",
"391 404 OFFCURVE",
"392 351 CURVE SMOOTH",
"392 328 OFFCURVE",
"383 304 OFFCURVE",
"369 285 CURVE SMOOTH",
"355 265 OFFCURVE",
"334 251 OFFCURVE",
"314 251 CURVE SMOOTH",
"158 251 LINE",
"158 450 LINE",
"317 450 LINE SMOOTH"
);
}
);
width = 537;
}
);
note = Thorn;
unicode = 00DE;
},
{
glyphname = Q;
lastChange = "2018-04-13 01:07:09 +0000";
layers = (
{
layerId = "2D48A379-BE71-4914-8765-C68406EE07E8";
paths = (
{
closed = 1;
nodes = (
"690 168 OFFCURVE",
"725 253 OFFCURVE",
"725 348 CURVE SMOOTH",
"725 445 OFFCURVE",
"687 534 OFFCURVE",
"625 599 CURVE SMOOTH",
"563 663 OFFCURVE",
"478 703 OFFCURVE",
"383 703 CURVE SMOOTH",
"288 703 OFFCURVE",
"203 663 OFFCURVE",
"141 599 CURVE SMOOTH",
"79 534 OFFCURVE",
"40 445 OFFCURVE",
"40 348 CURVE SMOOTH",
"40 251 OFFCURVE",
"79 162 OFFCURVE",
"141 98 CURVE SMOOTH",
"203 34 OFFCURVE",
"288 -5 OFFCURVE",
"383 -5 CURVE SMOOTH",
"440 -5 OFFCURVE",
"493 9 OFFCURVE",
"540 34 CURVE",
"552 21 OFFCURVE",
"564 11 OFFCURVE",
"580 3 CURVE",
"607 -12 OFFCURVE",
"644 -19 OFFCURVE",
"680 -18 CURVE SMOOTH",
"721 -17 LINE",
"721 91 LINE",
"694 91 OFFCURVE",
"674 92 OFFCURVE",
"661 94 CURVE",
"648 95 OFFCURVE",
"638 99 OFFCURVE",
"631 104 CURVE"
);
},
{
closed = 1;
nodes = (
"447 599 OFFCURVE",
"505 570 OFFCURVE",
"547 525 CURVE SMOOTH",
"589 480 OFFCURVE",
"615 417 OFFCURVE",
"615 348 CURVE SMOOTH",
"615 295 OFFCURVE",
"601 246 OFFCURVE",
"574 205 CURVE",
"567 218 OFFCURVE",
"559 232 OFFCURVE",
"548 244 CURVE SMOOTH",
"500 295 OFFCURVE",
"435 314 OFFCURVE",
"375 323 CURVE",
"375 209 LINE",
"414 200 OFFCURVE",
"444 188 OFFCURVE",
"461 169 CURVE",
"468 162 OFFCURVE",
"478 144 OFFCURVE",
"487 125 CURVE",
"456 108 OFFCURVE",
"421 99 OFFCURVE",
"383 99 CURVE SMOOTH",
"319 99 OFFCURVE",
"261 127 OFFCURVE",
"219 172 CURVE SMOOTH",
"177 216 OFFCURVE",
"150 279 OFFCURVE",
"150 348 CURVE SMOOTH",
"150 417 OFFCURVE",
"177 480 OFFCURVE",
"219 525 CURVE SMOOTH",
"261 570 OFFCURVE",
"319 599 OFFCURVE",
"383 599 CURVE SMOOTH"
);
}
);
width = 765;
}
);
leftKerningGroup = "upper-rounds";
note = Q;
unicode = 0051;
},
{
glyphname = R;
lastChange = "2018-04-12 21:50:55 +0000";
layers = (
{
anchors = (
{
name = bottom;
position = "{282, 0}";
},
{
name = top;
position = "{282, 710}";
}
);
layerId = "2D48A379-BE71-4914-8765-C68406EE07E8";
paths = (
{
closed = 1;
nodes = (
"358 288 LINE",
"398 300 OFFCURVE",
"434 330 OFFCURVE",
"459 367 CURVE SMOOTH",
"483 403 OFFCURVE",
"498 448 OFFCURVE",
"498 491 CURVE SMOOTH",
"498 543 OFFCURVE",
"480 595 OFFCURVE",
"448 635 CURVE SMOOTH",
"416 674 OFFCURVE",
"371 700 OFFCURVE",
"318 700 CURVE SMOOTH",
"51 700 LINE",
"50 0 LINE",
"158 0 LINE",
"158 281 LINE",
"237 281 LINE",
"404 0 LINE",
"530 0 LINE"
);
},
{
closed = 1;
nodes = (
"338 590 OFFCURVE",
"356 579 OFFCURVE",
"369 561 CURVE SMOOTH",
"382 543 OFFCURVE",
"391 518 OFFCURVE",
"391 491 CURVE SMOOTH",
"391 468 OFFCURVE",
"382 444 OFFCURVE",
"367 425 CURVE SMOOTH",
"352 405 OFFCURVE",
"334 391 OFFCURVE",
"315 391 CURVE SMOOTH",
"158 391 LINE",
"158 590 LINE",
"318 590 LINE SMOOTH"
);
}
);
width = 570;
}
);
note = R;
unicode = 0052;
},
{
glyphname = S;
lastChange = "2018-04-13 00:26:01 +0000";
layers = (
{
anchors = (
{
name = bottom;
position = "{275, 0}";
},
{
name = top;
position = "{275, 710}";
}
);
layerId = "2D48A379-BE71-4914-8765-C68406EE07E8";
paths = (
{
closed = 1;
nodes = (
"487 100 OFFCURVE",
"509 154 OFFCURVE",
"509 207 CURVE SMOOTH",
"509 254 OFFCURVE",
"492 296 OFFCURVE",
"463 329 CURVE SMOOTH",
"422 375 OFFCURVE",
"370 395 OFFCURVE",
"287 418 CURVE SMOOTH",
"207 441 OFFCURVE",
"148 447 OFFCURVE",
"148 518 CURVE SMOOTH",
"149 547 OFFCURVE",
"163 567 OFFCURVE",
"185 579 CURVE SMOOTH",
"207 591 OFFCURVE",
"236 595 OFFCURVE",
"268 595 CURVE SMOOTH",
"308 595 OFFCURVE",
"370 584 OFFCURVE",
"414 561 CURVE",
"489 637 LINE",
"422 681 OFFCURVE",
"340 702 OFFCURVE",
"269 702 CURVE SMOOTH",
"239 702 OFFCURVE",
"211 698 OFFCURVE",
"184 691 CURVE SMOOTH",
"131 676 OFFCURVE",
"90 648 OFFCURVE",
"66 604 CURVE SMOOTH",
"41 559 OFFCURVE",
"35 504 OFFCURVE",
"47 467 CURVE SMOOTH",
"85 349 OFFCURVE",
"165 338 OFFCURVE",
"313 297 CURVE",
"361 282 OFFCURVE",
"404 252 OFFCURVE",
"404 207 CURVE SMOOTH",
"404 178 OFFCURVE",
"390 152 OFFCURVE",
"367 133 CURVE SMOOTH",
"343 113 OFFCURVE",
"312 101 OFFCURVE",
"277 101 CURVE SMOOTH",
"245 101 OFFCURVE",
"212 111 OFFCURVE",
"184 124 CURVE SMOOTH",
"156 136 OFFCURVE",
"133 153 OFFCURVE",
"118 168 CURVE",
"40 94 LINE",
"69 63 OFFCURVE",
"109 40 OFFCURVE",
"151 22 CURVE SMOOTH",
"193 4 OFFCURVE",
"238 -6 OFFCURVE",
"279 -6 CURVE SMOOTH",
"343 -6 OFFCURVE",
"399 15 OFFCURVE",
"446 60 CURVE SMOOTH"
);
}
);
width = 549;
}
);
note = S;
unicode = 0053;
},
{
glyphname = T;
lastChange = "2018-04-09 03:09:34 +0000";
layers = (
{
anchors = (
{
name = bottom;
position = "{298, 0}";
},
{
name = center;
position = "{298, 350}";
},
{
name = top;
position = "{298, 710}";
}
);
layerId = "2D48A379-BE71-4914-8765-C68406EE07E8";
paths = (
{
closed = 1;
nodes = (
"556 700 LINE",
"40 700 LINE",
"40 595 LINE",
"246 595 LINE",
"246 0 LINE",
"350 0 LINE",
"350 595 LINE",
"556 595 LINE"
);
}
);
width = 596;
}
);
note = T;
unicode = 0054;
},
{
glyphname = U;
lastChange = "2018-04-10 02:59:08 +0000";
layers = (
{
anchors = (
{
name = bottom;
position = "{308, 0}";
},
{
name = ogonek;
position = "{414, 10}";
},
{
name = top;
position = "{308, 710}";
},
{
name = topright;
position = "{595, 700}";
}
);
layerId = "2D48A379-BE71-4914-8765-C68406EE07E8";
paths = (
{
closed = 1;
nodes = (
"379 -12 OFFCURVE",
"443 17 OFFCURVE",
"490 62 CURVE SMOOTH",
"537 107 OFFCURVE",
"565 170 OFFCURVE",
"565 241 CURVE SMOOTH",
"565 700 LINE",
"456 700 LINE",
"456 243 LINE SMOOTH",
"456 203 OFFCURVE",
"441 166 OFFCURVE",
"414 140 CURVE SMOOTH",
"387 114 OFFCURVE",
"351 97 OFFCURVE",
"307 97 CURVE SMOOTH",
"264 97 OFFCURVE",
"228 114 OFFCURVE",
"201 140 CURVE SMOOTH",
"174 166 OFFCURVE",
"159 203 OFFCURVE",
"159 243 CURVE",
"158 700 LINE",
"50 700 LINE",
"50 243 LINE SMOOTH",
"50 172 OFFCURVE",
"79 109 OFFCURVE",
"125 63 CURVE SMOOTH",
"171 17 OFFCURVE",
"235 -12 OFFCURVE",
"307 -12 CURVE SMOOTH"
);
}
);
width = 615;
}
);
note = U;
unicode = 0055;
},
{
glyphname = V;
lastChange = "2018-04-13 01:07:09 +0000";
layers = (
{
layerId = "2D48A379-BE71-4914-8765-C68406EE07E8";
paths = (
{
closed = 1;
nodes = (
"460 700 LINE",
"306 154 LINE",
"152 700 LINE",
"40 700 LINE",
"255 0 LINE",
"357 0 LINE",
"572 700 LINE"
);
}
);
width = 612;
}
);
leftKerningGroup = "upper-angled";
note = V;
unicode = 0056;
},
{
glyphname = W;
lastChange = "2018-04-13 01:07:09 +0000";
layers = (
{
anchors = (
{
name = bottom;
position = "{539, 0}";
},
{
name = top;
position = "{539, 700}";
}
);
layerId = "2D48A379-BE71-4914-8765-C68406EE07E8";
paths = (
{
closed = 1;
nodes = (
"921 700 LINE",
"758 163 LINE",
"595 586 LINE",
"484 586 LINE",
"321 163 LINE",
"156 700 LINE",
"40 700 LINE",
"258 0 LINE",
"377 0 LINE",
"539 424 LINE",
"703 0 LINE",
"822 0 LINE",
"1038 700 LINE"
);
}
);
width = 1078;
}
);
leftKerningGroup = "upper-angled";
note = W;
unicode = 0057;
},
{
glyphname = X;
lastChange = "2018-04-08 23:41:35 +0000";
layers = (
{
layerId = "2D48A379-BE71-4914-8765-C68406EE07E8";
paths = (
{
closed = 1;
nodes = (
"387 355 LINE",
"604 700 LINE",
"476 700 LINE",
"324 439 LINE",
"172 700 LINE",
"44 700 LINE",
"260 355 LINE",
"40 0 LINE",
"168 0 LINE",
"324 269 LINE",
"480 0 LINE",
"608 0 LINE"
);
}
);
width = 648;
}
);
note = X;
unicode = 0058;
},
{
glyphname = Y;
lastChange = "2018-04-09 03:03:13 +0000";
layers = (
{
anchors = (
{
name = bottom;
position = "{339, 0}";
},
{
name = top;
position = "{339, 710}";
},
{
name = topleft;
position = "{20, 700}";
}
);
layerId = "2D48A379-BE71-4914-8765-C68406EE07E8";
paths = (
{
closed = 1;
nodes = (
"515 700 LINE",
"339 349 LINE",
"163 700 LINE",
"40 700 LINE",
"285 238 LINE",
"285 0 LINE",
"394 0 LINE",
"394 238 LINE",
"638 700 LINE"
);
}
);
width = 678;
}
);
note = Y;
unicode = 0059;
},
{
glyphname = Z;
lastChange = "2018-04-09 03:03:23 +0000";
layers = (
{
anchors = (
{
name = bottom;
position = "{281, 0}";
},
{
name = top;
position = "{281, 710}";
}
);
layerId = "2D48A379-BE71-4914-8765-C68406EE07E8";
paths = (
{
closed = 1;
nodes = (
"521 110 LINE",
"181 110 LINE",
"516 612 LINE",
"516 700 LINE",
"45 700 LINE",
"45 592 LINE",
"374 592 LINE",
"40 90 LINE",
"40 0 LINE",
"521 0 LINE"
);
}
);
width = 561;
}
);
note = Z;
unicode = 005A;
},
{
glyphname = a;
lastChange = "2018-04-13 01:07:09 +0000";
layers = (
{
anchors = (
{
name = bottom;
position = "{261, 0}";
},
{
name = ogonek;
position = "{464, 10}";
},
{
name = top;
position = "{261, 530}";
}
);
layerId = "2D48A379-BE71-4914-8765-C68406EE07E8";
paths = (
{
closed = 1;
nodes = (
"465 269 LINE SMOOTH",
"465 349 OFFCURVE",
"458 409 OFFCURVE",
"431 449 CURVE SMOOTH",
"403 488 OFFCURVE",
"356 508 OFFCURVE",
"277 508 CURVE SMOOTH",
"238 508 OFFCURVE",
"195 498 OFFCURVE",
"155 481 CURVE SMOOTH",
"114 464 OFFCURVE",
"76 439 OFFCURVE",
"48 411 CURVE",
"113 342 LINE",
"187 412 OFFCURVE",
"356 449 OFFCURVE",
"356 351 CURVE SMOOTH",
"356 313 LINE",
"299 318 OFFCURVE",
"258 319 OFFCURVE",
"220 312 CURVE SMOOTH",
"181 305 OFFCURVE",
"145 293 OFFCURVE",
"116 272 CURVE SMOOTH",
"72 239 OFFCURVE",
"47 195 OFFCURVE",
"47 144 CURVE SMOOTH",
"47 125 OFFCURVE",
"49 100 OFFCURVE",
"61 74 CURVE SMOOTH",
"72 48 OFFCURVE",
"90 22 OFFCURVE",
"125 6 CURVE SMOOTH",
"148 -5 OFFCURVE",
"172 -8 OFFCURVE",
"197 -8 CURVE SMOOTH",
"234 -8 OFFCURVE",
"272 0 OFFCURVE",
"301 11 CURVE SMOOTH",
"321 18 OFFCURVE",
"340 32 OFFCURVE",
"357 43 CURVE",
"357 0 LINE",
"465 0 LINE"
);
},
{
closed = 1;
nodes = (
"318 110 OFFCURVE",
"265 93 OFFCURVE",
"222 93 CURVE SMOOTH",
"179 93 OFFCURVE",
"154 109 OFFCURVE",
"154 144 CURVE SMOOTH",
"154 170 OFFCURVE",
"170 190 OFFCURVE",
"202 204 CURVE SMOOTH",
"234 218 OFFCURVE",
"286 230 OFFCURVE",
"357 239 CURVE",
"357 141 LINE"
);
}
);
width = 515;
}
);
leftKerningGroup = "rounded-low";
note = a;
unicode = 0061;
},
{
glyphname = ae;
lastChange = "2018-04-13 01:07:09 +0000";
layers = (
{
layerId = "2D48A379-BE71-4914-8765-C68406EE07E8";
paths = (
{
closed = 1;
nodes = (
"846 261 LINE SMOOTH",
"846 333 OFFCURVE",
"824 392 OFFCURVE",
"782 435 CURVE SMOOTH",
"740 478 OFFCURVE",
"679 502 OFFCURVE",
"602 502 CURVE SMOOTH",
"533 502 OFFCURVE",
"476 482 OFFCURVE",
"433 444 CURVE",
"405 485 OFFCURVE",
"352 508 OFFCURVE",
"275 508 CURVE SMOOTH",
"236 508 OFFCURVE",
"191 498 OFFCURVE",
"150 481 CURVE SMOOTH",
"109 464 OFFCURVE",
"69 439 OFFCURVE",
"41 411 CURVE",
"117 333 LINE",
"126 341 OFFCURVE",
"135 349 OFFCURVE",
"145 356 CURVE",
"162 369 OFFCURVE",
"186 383 OFFCURVE",
"211 394 CURVE",
"234 402 OFFCURVE",
"258 408 OFFCURVE",
"281 408 CURVE SMOOTH",
"325 408 OFFCURVE",
"356 390 OFFCURVE",
"356 351 CURVE SMOOTH",
"356 315 LINE",
"340 316 LINE SMOOTH",
"299 319 OFFCURVE",
"257 319 OFFCURVE",
"217 312 CURVE SMOOTH",
"177 305 OFFCURVE",
"139 293 OFFCURVE",
"110 272 CURVE SMOOTH",
"65 239 OFFCURVE",
"40 195 OFFCURVE",
"40 144 CURVE SMOOTH",
"40 125 OFFCURVE",
"42 100 OFFCURVE",
"54 74 CURVE SMOOTH",
"65 48 OFFCURVE",
"85 22 OFFCURVE",
"120 6 CURVE SMOOTH",
"143 -5 OFFCURVE",
"168 -8 OFFCURVE",
"193 -8 CURVE SMOOTH",
"232 -8 OFFCURVE",
"269 0 OFFCURVE",
"300 11 CURVE SMOOTH",
"320 18 OFFCURVE",
"337 26 OFFCURVE",
"356 45 CURVE",
"356 0 LINE",
"467 0 LINE",
"467 32 LINE",
"510 1 OFFCURVE",
"564 -13 OFFCURVE",
"615 -10 CURVE SMOOTH",
"691 -7 OFFCURVE",
"765 21 OFFCURVE",
"833 78 CURVE",
"772 164 LINE",
"735 121 OFFCURVE",
"677 101 OFFCURVE",
"620 100 CURVE SMOOTH",
"531 97 OFFCURVE",
"485 146 OFFCURVE",
"472 210 CURVE",
"846 210 LINE"
);
},
{
closed = 1;
nodes = (
"679 393 OFFCURVE",
"720 360 OFFCURVE",
"732 300 CURVE",
"473 300 LINE",
"486 360 OFFCURVE",
"525 393 OFFCURVE",
"602 393 CURVE SMOOTH"
);
},
{
closed = 1;
nodes = (
"318 111 OFFCURVE",
"263 93 OFFCURVE",
"219 93 CURVE SMOOTH",
"176 93 OFFCURVE",
"149 109 OFFCURVE",
"149 144 CURVE SMOOTH",
"149 170 OFFCURVE",
"165 190 OFFCURVE",
"198 204 CURVE SMOOTH",
"231 218 OFFCURVE",
"284 230 OFFCURVE",
"357 239 CURVE",
"357 232 LINE",
"357 140 LINE"
);
}
);
width = 886;
}
);
leftKerningGroup = "rounded-low";
note = ae;
unicode = 00E6;
},
{
glyphname = b;
lastChange = "2018-04-09 03:18:56 +0000";
layers = (
{
layerId = "2D48A379-BE71-4914-8765-C68406EE07E8";
paths = (
{
closed = 1;
nodes = (
"158 0 LINE",
"158 32 LINE",
"214 -12 OFFCURVE",
"292 -17 OFFCURVE",
"356 12 CURVE SMOOTH",
"382 24 OFFCURVE",
"407 42 OFFCURVE",
"426 66 CURVE SMOOTH",
"464 113 OFFCURVE",
"483 180 OFFCURVE",
"483 257 CURVE SMOOTH",
"483 334 OFFCURVE",
"459 398 OFFCURVE",
"419 443 CURVE SMOOTH",
"378 487 OFFCURVE",
"321 512 OFFCURVE",
"254 512 CURVE SMOOTH",
"217 512 OFFCURVE",
"185 502 OFFCURVE",
"158 486 CURVE",
"158 700 LINE",
"50 700 LINE",
"50 0 LINE"
);
},
{
closed = 1;
nodes = (
"216 101 OFFCURVE",
"179 119 OFFCURVE",
"158 131 CURVE",
"158 388 LINE",
"174 395 OFFCURVE",
"204 404 OFFCURVE",
"239 404 CURVE SMOOTH",
"328 404 OFFCURVE",
"376 353 OFFCURVE",
"376 257 CURVE SMOOTH",
"376 154 OFFCURVE",
"328 101 OFFCURVE",
"256 101 CURVE SMOOTH"
);
}
);
width = 523;
}
);
note = b;
unicode = 0062;
},
{
glyphname = c;
lastChange = "2018-04-13 01:07:09 +0000";
layers = (
{
anchors = (
{
name = bottom;
position = "{253, 0}";
},
{
name = top;
position = "{253, 530}";
}
);
layerId = "2D48A379-BE71-4914-8765-C68406EE07E8";
paths = (
{
closed = 1;
nodes = (
"399 139 LINE",
"357 96 OFFCURVE",
"305 92 OFFCURVE",
"245 103 CURVE SMOOTH",
"182 115 OFFCURVE",
"147 165 OFFCURVE",
"147 250 CURVE SMOOTH",
"147 334 OFFCURVE",
"182 384 OFFCURVE",
"245 396 CURVE SMOOTH",
"297 405 OFFCURVE",
"360 402 OFFCURVE",
"395 360 CURVE",
"465 433 LINE",
"412 494 OFFCURVE",
"337 522 OFFCURVE",
"220 501 CURVE SMOOTH",
"164 492 OFFCURVE",
"119 463 OFFCURVE",
"88 419 CURVE SMOOTH",
"57 375 OFFCURVE",
"40 318 OFFCURVE",
"40 250 CURVE SMOOTH",
"40 182 OFFCURVE",
"57 124 OFFCURVE",
"88 80 CURVE SMOOTH",
"119 36 OFFCURVE",
"164 7 OFFCURVE",
"220 -2 CURVE SMOOTH",
"335 -22 OFFCURVE",
"409 4 OFFCURVE",
"462 63 CURVE"
);
}
);
width = 505;
}
);
leftKerningGroup = "rounded-low";
note = c;
unicode = 0063;
},
{
glyphname = d;
lastChange = "2018-04-13 01:07:09 +0000";
layers = (
{
anchors = (
{
name = bottom;
position = "{252, 0}";
},
{
name = center;
position = "{304, 250}";
},
{
name = top;
position = "{252, 700}";
},
{
name = topright;
position = "{493, 500}";
}
);
layerId = "2D48A379-BE71-4914-8765-C68406EE07E8";
paths = (
{
closed = 1;
nodes = (
"473 700 LINE",
"365 700 LINE",
"365 486 LINE",
"338 502 OFFCURVE",
"306 512 OFFCURVE",
"269 512 CURVE SMOOTH",
"202 512 OFFCURVE",
"145 487 OFFCURVE",
"104 443 CURVE SMOOTH",
"64 398 OFFCURVE",
"40 334 OFFCURVE",
"40 257 CURVE SMOOTH",
"40 180 OFFCURVE",
"59 113 OFFCURVE",
"97 66 CURVE SMOOTH",
"116 42 OFFCURVE",
"141 24 OFFCURVE",
"167 12 CURVE SMOOTH",
"202 -4 OFFCURVE",
"241 -9 OFFCURVE",
"278 -4 CURVE SMOOTH",
"309 0 OFFCURVE",
"339 12 OFFCURVE",
"365 32 CURVE",
"365 0 LINE",
"473 0 LINE"
);
},
{
closed = 1;
nodes = (
"195 101 OFFCURVE",
"147 154 OFFCURVE",
"147 257 CURVE SMOOTH",
"147 353 OFFCURVE",
"195 404 OFFCURVE",
"284 404 CURVE SMOOTH",
"319 404 OFFCURVE",
"349 395 OFFCURVE",
"365 388 CURVE",
"365 131 LINE",
"344 119 OFFCURVE",
"307 101 OFFCURVE",
"267 101 CURVE SMOOTH"
);
}
);
width = 523;
}
);
leftKerningGroup = "rounded-low";
note = d;
unicode = 0064;
},
{
glyphname = eth;
lastChange = "2018-04-13 01:07:09 +0000";
layers = (
{
layerId = "2D48A379-BE71-4914-8765-C68406EE07E8";
paths = (
{
closed = 1;
nodes = (
"313 -10 OFFCURVE",
"375 10 OFFCURVE",
"423 47 CURVE SMOOTH",
"470 84 OFFCURVE",
"503 141 OFFCURVE",
"511 206 CURVE SMOOTH",
"524 314 OFFCURVE",
"485 433 OFFCURVE",
"396 585 CURVE",
"479 615 LINE",
"454 688 LINE",
"355 652 LINE",
"344 667 OFFCURVE",
"334 682 OFFCURVE",
"323 699 CURVE",
"188 700 LINE",
"201 683 OFFCURVE",
"212 667 OFFCURVE",
"222 654 CURVE",
"231 641 OFFCURVE",
"241 627 OFFCURVE",
"251 614 CURVE",
"165 582 LINE",
"191 510 LINE",
"297 548 LINE",
"322 512 OFFCURVE",
"346 474 OFFCURVE",
"366 438 CURVE",
"302 475 OFFCURVE",
"226 477 OFFCURVE",
"164 446 CURVE SMOOTH",
"102 415 OFFCURVE",
"53 353 OFFCURVE",
"42 265 CURVE SMOOTH",
"34 200 OFFCURVE",
"54 137 OFFCURVE",
"91 89 CURVE SMOOTH",
"128 40 OFFCURVE",
"184 6 OFFCURVE",
"249 -2 CURVE SMOOTH"
);
},
{
closed = 1;
nodes = (
"327 360 OFFCURVE",
"357 341 OFFCURVE",
"378 315 CURVE SMOOTH",
"398 289 OFFCURVE",
"408 255 OFFCURVE",
"404 220 CURVE SMOOTH",
"400 184 OFFCURVE",
"382 154 OFFCURVE",
"356 134 CURVE SMOOTH",
"330 113 OFFCURVE",
"296 103 OFFCURVE",
"261 107 CURVE SMOOTH",
"226 111 OFFCURVE",
"196 130 OFFCURVE",
"176 156 CURVE SMOOTH",
"156 182 OFFCURVE",
"145 216 OFFCURVE",
"149 252 CURVE SMOOTH",
"153 287 OFFCURVE",
"172 317 OFFCURVE",
"198 338 CURVE SMOOTH",
"224 358 OFFCURVE",
"257 368 OFFCURVE",
"292 364 CURVE SMOOTH"
);
}
);
width = 553;
}
);
leftKerningGroup = "rounded-low";
note = eth;
unicode = 00F0;
},
{
glyphname = e;
lastChange = "2018-04-13 01:07:09 +0000";
layers = (
{
anchors = (
{
name = bottom;
position = "{281, 0}";
},
{
name = ogonek;
position = "{403, 10}";
},
{
name = top;
position = "{281, 530}";
}
);
layerId = "2D48A379-BE71-4914-8765-C68406EE07E8";
paths = (
{
closed = 1;
nodes = (
"522 264 LINE SMOOTH",
"522 408 OFFCURVE",
"434 506 OFFCURVE",
"282 506 CURVE SMOOTH",
"133 506 OFFCURVE",
"40 413 OFFCURVE",
"40 264 CURVE SMOOTH",
"40 161 OFFCURVE",
"69 79 OFFCURVE",
"130 35 CURVE SMOOTH",
"178 0 OFFCURVE",
"235 -12 OFFCURVE",
"295 -12 CURVE SMOOTH",
"368 -12 OFFCURVE",
"441 19 OFFCURVE",
"509 76 CURVE",
"452 154 LINE",
"346 61 OFFCURVE",
"155 76 OFFCURVE",
"155 209 CURVE",
"522 209 LINE"
);
},
{
closed = 1;
nodes = (
"359 404 OFFCURVE",
"411 364 OFFCURVE",
"411 300 CURVE",
"154 300 LINE",
"154 363 OFFCURVE",
"203 404 OFFCURVE",
"282 404 CURVE SMOOTH"
);
}
);
width = 562;
}
);
leftKerningGroup = "rounded-low";
note = e;
unicode = 0065;
},
{
glyphname = f;
lastChange = "2018-04-08 23:50:17 +0000";
layers = (
{
layerId = "2D48A379-BE71-4914-8765-C68406EE07E8";
paths = (
{
closed = 1;
nodes = (
"228 537 OFFCURVE",
"236 567 OFFCURVE",
"256 582 CURVE SMOOTH",
"275 597 OFFCURVE",
"302 603 OFFCURVE",
"345 604 CURVE",
"345 707 LINE",
"208 712 OFFCURVE",
"127 639 OFFCURVE",
"118 500 CURVE",
"40 500 LINE",
"40 406 LINE",
"118 406 LINE",
"118 0 LINE",
"224 0 LINE",
"224 406 LINE",
"334 406 LINE",
"334 500 LINE",
"225 500 LINE"
);
}
);
width = 385;
}
);
note = f;
unicode = 0066;
},
{
glyphname = g;
lastChange = "2018-04-13 01:07:09 +0000";
layers = (
{
anchors = (
{
name = bottom;
position = "{263, 0}";
},
{
name = top;
position = "{263, 520}";
}
);
layerId = "2D48A379-BE71-4914-8765-C68406EE07E8";
paths = (
{
closed = 1;
nodes = (
"339 -204 OFFCURVE",
"391 -181 OFFCURVE",
"425 -143 CURVE SMOOTH",
"459 -105 OFFCURVE",
"475 -50 OFFCURVE",
"475 14 CURVE SMOOTH",
"475 500 LINE",
"368 500 LINE",
"368 463 LINE",
"322 495 OFFCURVE",
"261 507 OFFCURVE",
"210 494 CURVE SMOOTH",
"97 463 OFFCURVE",
"40 371 OFFCURVE",
"40 230 CURVE SMOOTH",
"40 110 OFFCURVE",
"105 19 OFFCURVE",
"210 -8 CURVE SMOOTH",
"273 -24 OFFCURVE",
"334 -15 OFFCURVE",
"367 10 CURVE",
"366 -19 OFFCURVE",
"360 -46 OFFCURVE",
"351 -64 CURVE SMOOTH",
"320 -124 OFFCURVE",
"215 -119 OFFCURVE",
"156 -60 CURVE",
"89 -129 LINE",
"91 -132 OFFCURVE",
"97 -138 OFFCURVE",
"107 -146 CURVE",
"116 -155 OFFCURVE",
"129 -163 OFFCURVE",
"145 -171 CURVE",
"176 -188 OFFCURVE",
"219 -204 OFFCURVE",
"268 -204 CURVE SMOOTH"
);
},
{
closed = 1;
nodes = (
"325 90 OFFCURVE",
"281 86 OFFCURVE",
"236 97 CURVE SMOOTH",
"180 112 OFFCURVE",
"147 158 OFFCURVE",
"147 230 CURVE SMOOTH",
"147 321 OFFCURVE",
"173 372 OFFCURVE",
"236 387 CURVE",
"261 394 OFFCURVE",
"288 391 OFFCURVE",
"312 384 CURVE SMOOTH",
"335 377 OFFCURVE",
"355 367 OFFCURVE",
"368 359 CURVE",
"368 109 LINE"
);
}
);
width = 525;
}
);
leftKerningGroup = "rounded-low";
note = g;
unicode = 0067;
},
{
glyphname = h;
lastChange = "2018-04-13 01:07:09 +0000";
layers = (
{
anchors = (
{
name = bottom;
position = "{264, 0}";
},
{
name = center;
position = "{215, 607}";
},
{
name = top;
position = "{264, 700}";
}
);
layerId = "2D48A379-BE71-4914-8765-C68406EE07E8";
paths = (
{
closed = 1;
nodes = (
"486 298 LINE SMOOTH",
"486 369 OFFCURVE",
"462 422 OFFCURVE",
"422 458 CURVE SMOOTH",
"382 493 OFFCURVE",
"326 511 OFFCURVE",
"262 511 CURVE SMOOTH",
"222 511 OFFCURVE",
"184 494 OFFCURVE",
"160 472 CURVE",
"160 700 LINE",
"52 700 LINE",
"52 0 LINE",
"160 0 LINE",
"160 348 LINE",
"169 361 OFFCURVE",
"186 377 OFFCURVE",
"205 388 CURVE SMOOTH",
"224 399 OFFCURVE",
"244 407 OFFCURVE",
"267 407 CURVE SMOOTH",
"335 407 OFFCURVE",
"378 374 OFFCURVE",
"378 298 CURVE SMOOTH",
"378 0 LINE",
"486 0 LINE"
);
}
);
width = 526;
}
);
leftKerningGroup = "angleds-low";
note = h;
unicode = 0068;
},
{
glyphname = i;
lastChange = "2018-04-13 01:07:09 +0000";
layers = (
{
components = (
{
name = idotless;
}
);
layerId = "2D48A379-BE71-4914-8765-C68406EE07E8";
paths = (
{
closed = 1;
nodes = (
"135 581 OFFCURVE",
"158 604 OFFCURVE",
"158 635 CURVE SMOOTH",
"158 666 OFFCURVE",
"135 689 OFFCURVE",
"104 689 CURVE SMOOTH",
"73 689 OFFCURVE",
"50 666 OFFCURVE",
"50 635 CURVE SMOOTH",
"50 604 OFFCURVE",
"73 581 OFFCURVE",
"104 581 CURVE SMOOTH"
);
}
);
width = 208;
}
);
leftKerningGroup = "angleds-low";
note = i;
unicode = 0069;
},
{
glyphname = idotless;
lastChange = "2018-04-12 21:50:55 +0000";
layers = (
{
anchors = (
{
name = bottom;
position = "{104, 0}";
},
{
name = ogonek;
position = "{154, 10}";
},
{
name = top;
position = "{104, 500}";
}
);
layerId = "2D48A379-BE71-4914-8765-C68406EE07E8";
paths = (
{
closed = 1;
nodes = (
"154 500 LINE",
"50 500 LINE",
"50 0 LINE",
"154 0 LINE"
);
}
);
width = 204;
}
);
unicode = 0131;
},
{
glyphname = j;
lastChange = "2018-04-09 03:05:29 +0000";
layers = (
{
components = (
{
name = jdotless;
}
);
layerId = "2D48A379-BE71-4914-8765-C68406EE07E8";
paths = (
{
closed = 1;
nodes = (
"170 581 OFFCURVE",
"193 604 OFFCURVE",
"193 635 CURVE SMOOTH",
"193 666 OFFCURVE",
"170 689 OFFCURVE",
"139 689 CURVE SMOOTH",
"108 689 OFFCURVE",
"85 666 OFFCURVE",
"85 635 CURVE SMOOTH",
"85 604 OFFCURVE",
"108 581 OFFCURVE",
"139 581 CURVE SMOOTH"
);
}
);
width = 243;
}
);
note = j;
unicode = 006A;
},
{
glyphname = jdotless;
lastChange = "2018-04-09 03:05:29 +0000";
layers = (
{
layerId = "2D48A379-BE71-4914-8765-C68406EE07E8";
paths = (
{
closed = 1;
nodes = (
"113 -182 OFFCURVE",
"193 -106 OFFCURVE",
"193 50 CURVE SMOOTH",
"193 500 LINE",
"89 500 LINE",
"89 50 LINE SMOOTH",
"89 2 OFFCURVE",
"82 -28 OFFCURVE",
"63 -47 CURVE SMOOTH",
"44 -66 OFFCURVE",
"14 -73 OFFCURVE",
"-30 -74 CURVE",
"-30 -177 LINE"
);
}
);
width = 243;
}
);
unicode = 0237;
},
{
glyphname = k;
lastChange = "2018-04-13 01:07:09 +0000";
layers = (
{
anchors = (
{
name = bottom;
position = "{256, 0}";
},
{
name = top;
position = "{256, 500}";
}
);
layerId = "2D48A379-BE71-4914-8765-C68406EE07E8";
paths = (
{
closed = 1;
nodes = (
"261 342 LINE",
"444 506 LINE",
"283 506 LINE",
"158 396 LINE",
"158 700 LINE",
"50 700 LINE",
"50 0 LINE",
"158 0 LINE",
"158 251 LINE",
"180 270 LINE",
"355 0 LINE",
"479 0 LINE"
);
}
);
width = 519;
}
);
leftKerningGroup = "angleds-low";
note = k;
unicode = 006B;
},
{
glyphname = l;
lastChange = "2018-04-09 03:08:13 +0000";
layers = (
{
anchors = (
{
name = bottom;
position = "{93, 0}";
},
{
name = center;
position = "{102, 365}";
},
{
name = top;
position = "{102, 711}";
},
{
name = topright;
position = "{184, 500}";
}
);
layerId = "2D48A379-BE71-4914-8765-C68406EE07E8";
paths = (
{
closed = 1;
nodes = (
"154 700 LINE",
"50 700 LINE",
"50 0 LINE",
"154 0 LINE"
);
}
);
width = 204;
}
);
note = l;
unicode = 006C;
},
{
glyphname = m;
lastChange = "2018-04-13 01:07:09 +0000";
layers = (
{
layerId = "2D48A379-BE71-4914-8765-C68406EE07E8";
paths = (
{
closed = 1;
nodes = (
"808 294 LINE SMOOTH",
"808 405 OFFCURVE",
"748 472 OFFCURVE",
"659 496 CURVE",
"640 503 OFFCURVE",
"616 506 OFFCURVE",
"590 506 CURVE",
"564 505 OFFCURVE",
"537 501 OFFCURVE",
"514 493 CURVE SMOOTH",
"483 482 OFFCURVE",
"458 468 OFFCURVE",
"435 441 CURVE",
"392 494 OFFCURVE",
"330 514 OFFCURVE",
"258 506 CURVE SMOOTH",
"221 502 OFFCURVE",
"185 482 OFFCURVE",
"160 459 CURVE",
"160 500 LINE",
"50 500 LINE",
"50 0 LINE",
"160 0 LINE",
"160 353 LINE",
"183 374 OFFCURVE",
"223 403 OFFCURVE",
"264 403 CURVE SMOOTH",
"335 403 OFFCURVE",
"380 370 OFFCURVE",
"380 294 CURVE SMOOTH",
"380 0 LINE",
"484 0 LINE",
"484 294 LINE SMOOTH",
"484 367 OFFCURVE",
"529 403 OFFCURVE",
"593 403 CURVE SMOOTH",
"657 403 OFFCURVE",
"698 367 OFFCURVE",
"698 294 CURVE SMOOTH",
"698 0 LINE",
"808 0 LINE"
);
}
);
width = 848;
}
);
leftKerningGroup = "angleds-low";
note = m;
unicode = 006D;
},
{
glyphname = n;
lastChange = "2018-04-13 01:07:09 +0000";
layers = (
{
anchors = (
{
name = bottom;
position = "{262, 0}";
},
{
name = top;
position = "{262, 530}";
}
);
layerId = "2D48A379-BE71-4914-8765-C68406EE07E8";
paths = (
{
closed = 1;
nodes = (
"484 294 LINE SMOOTH",
"484 365 OFFCURVE",
"460 418 OFFCURVE",
"420 454 CURVE SMOOTH",
"352 514 OFFCURVE",
"226 530 OFFCURVE",
"158 462 CURVE",
"158 500 LINE",
"50 500 LINE",
"50 0 LINE",
"158 0 LINE",
"158 345 LINE",
"166 360 OFFCURVE",
"184 373 OFFCURVE",
"203 384 CURVE SMOOTH",
"222 395 OFFCURVE",
"242 403 OFFCURVE",
"265 403 CURVE SMOOTH",
"333 403 OFFCURVE",
"376 370 OFFCURVE",
"376 294 CURVE SMOOTH",
"376 0 LINE",
"484 0 LINE"
);
}
);
width = 524;
}
);
leftKerningGroup = "angleds-low";
note = n;
unicode = 006E;
},
{
glyphname = eng;
lastChange = "2018-04-12 21:50:55 +0000";
layers = (
{
layerId = "2D48A379-BE71-4914-8765-C68406EE07E8";
paths = (
{
closed = 1;
nodes = (
"416 -181 OFFCURVE",
"484 -155 OFFCURVE",
"484 -33 CURVE",
"484 2 LINE",
"484 294 LINE SMOOTH",
"484 365 OFFCURVE",
"460 418 OFFCURVE",
"420 454 CURVE SMOOTH",
"352 514 OFFCURVE",
"226 530 OFFCURVE",
"158 462 CURVE",
"158 500 LINE",
"50 500 LINE",
"50 0 LINE",
"158 0 LINE",
"158 345 LINE",
"166 360 OFFCURVE",
"184 373 OFFCURVE",
"203 384 CURVE SMOOTH",
"222 395 OFFCURVE",
"242 403 OFFCURVE",
"265 403 CURVE SMOOTH",
"333 403 OFFCURVE",
"376 370 OFFCURVE",
"376 294 CURVE SMOOTH",
"376 1 LINE",
"376 -35 LINE",
"376 -104 OFFCURVE",
"299 -86 OFFCURVE",
"257 -88 CURVE",
"257 -177 LINE"
);
}
);
width = 524;
}
);
unicode = 014B;
},
{
glyphname = o;
lastChange = "2018-04-13 01:07:09 +0000";
layers = (
{
anchors = (
{
name = bottom;
position = "{282, 0}";
},
{
name = center;
position = "{282, 250}";
},
{
name = ogonek;
position = "{384, 10}";
},
{
name = top;
position = "{282, 530}";
},
{
name = topright;
position = "{544, 500}";
}
);
layerId = "2D48A379-BE71-4914-8765-C68406EE07E8";
paths = (
{
closed = 1;
nodes = (
"355 -5 OFFCURVE",
"417 21 OFFCURVE",
"459 66 CURVE SMOOTH",
"501 110 OFFCURVE",
"524 172 OFFCURVE",
"524 244 CURVE SMOOTH",
"524 332 OFFCURVE",
"501 398 OFFCURVE",
"459 442 CURVE SMOOTH",
"417 485 OFFCURVE",
"355 507 OFFCURVE",
"282 507 CURVE SMOOTH",
"130 507 OFFCURVE",
"40 420 OFFCURVE",
"40 244 CURVE SMOOTH",
"40 172 OFFCURVE",
"63 110 OFFCURVE",
"105 66 CURVE SMOOTH",
"147 21 OFFCURVE",
"206 -5 OFFCURVE",
"282 -5 CURVE SMOOTH"
);
},
{
closed = 1;
nodes = (
"326 400 OFFCURVE",
"361 384 OFFCURVE",
"383 356 CURVE SMOOTH",
"405 328 OFFCURVE",
"416 288 OFFCURVE",
"416 244 CURVE SMOOTH",
"416 209 OFFCURVE",
"405 175 OFFCURVE",
"383 148 CURVE SMOOTH",
"361 121 OFFCURVE",
"326 104 OFFCURVE",
"282 104 CURVE SMOOTH",
"238 104 OFFCURVE",
"205 121 OFFCURVE",
"182 147 CURVE SMOOTH",
"159 173 OFFCURVE",
"148 208 OFFCURVE",
"148 244 CURVE SMOOTH",
"148 337 OFFCURVE",
"193 400 OFFCURVE",
"282 400 CURVE SMOOTH"
);
}
);
width = 564;
}
);
leftKerningGroup = "rounded-low";
note = o;
unicode = 006F;
},
{
glyphname = oe;
lastChange = "2018-04-13 01:07:09 +0000";
layers = (
{
layerId = "2D48A379-BE71-4914-8765-C68406EE07E8";
paths = (
{
closed = 1;
nodes = (
"912 261 LINE SMOOTH",
"912 333 OFFCURVE",
"890 392 OFFCURVE",
"848 435 CURVE SMOOTH",
"806 478 OFFCURVE",
"745 502 OFFCURVE",
"668 502 CURVE SMOOTH",
"585 502 OFFCURVE",
"521 475 OFFCURVE",
"478 427 CURVE",
"435 482 OFFCURVE",
"369 507 OFFCURVE",
"286 507 CURVE SMOOTH",
"133 507 OFFCURVE",
"40 420 OFFCURVE",
"40 244 CURVE SMOOTH",
"40 172 OFFCURVE",
"64 110 OFFCURVE",
"106 66 CURVE SMOOTH",
"148 21 OFFCURVE",
"210 -5 OFFCURVE",
"286 -5 CURVE SMOOTH",
"366 -5 OFFCURVE",
"431 24 OFFCURVE",
"474 75 CURVE",
"485 60 OFFCURVE",
"498 48 OFFCURVE",
"513 37 CURVE SMOOTH",
"562 2 OFFCURVE",
"621 -13 OFFCURVE",
"681 -10 CURVE SMOOTH",
"756 -7 OFFCURVE",
"831 21 OFFCURVE",
"899 78 CURVE",
"838 164 LINE",
"801 121 OFFCURVE",
"743 101 OFFCURVE",
"686 100 CURVE SMOOTH",
"595 97 OFFCURVE",
"538 146 OFFCURVE",
"538 210 CURVE",
"912 210 LINE"
);
},
{
closed = 1;
nodes = (
"745 402 OFFCURVE",
"798 360 OFFCURVE",
"798 300 CURVE",
"538 300 LINE",
"538 360 OFFCURVE",
"589 402 OFFCURVE",
"668 402 CURVE SMOOTH"
);
},
{
closed = 1;
nodes = (
"377 399 OFFCURVE",
"421 333 OFFCURVE",
"421 244 CURVE SMOOTH",
"421 209 OFFCURVE",
"410 176 OFFCURVE",
"388 149 CURVE SMOOTH",
"366 122 OFFCURVE",
"331 105 OFFCURVE",
"286 105 CURVE SMOOTH",
"242 105 OFFCURVE",
"208 122 OFFCURVE",
"185 148 CURVE SMOOTH",
"162 174 OFFCURVE",
"151 208 OFFCURVE",
"151 244 CURVE SMOOTH",
"151 336 OFFCURVE",
"198 399 OFFCURVE",
"286 399 CURVE SMOOTH"
);
}
);
width = 952;
}
);
leftKerningGroup = "rounded-low";
note = oe;
unicode = 0153;
},
{
glyphname = p;
lastChange = "2018-04-13 01:07:09 +0000";
layers = (
{
layerId = "2D48A379-BE71-4914-8765-C68406EE07E8";
paths = (
{
closed = 1;
nodes = (
"50 -200 LINE",
"158 -200 LINE",
"158 14 LINE",
"185 -2 OFFCURVE",
"217 -12 OFFCURVE",
"254 -12 CURVE SMOOTH",
"321 -12 OFFCURVE",
"378 13 OFFCURVE",
"419 57 CURVE SMOOTH",
"459 102 OFFCURVE",
"483 166 OFFCURVE",
"483 243 CURVE SMOOTH",
"483 320 OFFCURVE",
"464 387 OFFCURVE",
"426 434 CURVE SMOOTH",
"407 458 OFFCURVE",
"382 476 OFFCURVE",
"356 488 CURVE SMOOTH",
"324 502 OFFCURVE",
"289 508 OFFCURVE",
"255 505 CURVE SMOOTH",
"220 502 OFFCURVE",
"186 490 OFFCURVE",
"158 468 CURVE",
"158 500 LINE",
"50 500 LINE"
);
},
{
closed = 1;
nodes = (
"328 399 OFFCURVE",
"376 346 OFFCURVE",
"376 243 CURVE SMOOTH",
"376 147 OFFCURVE",
"328 96 OFFCURVE",
"239 96 CURVE SMOOTH",
"204 96 OFFCURVE",
"174 105 OFFCURVE",
"158 112 CURVE",
"158 369 LINE",
"179 381 OFFCURVE",
"216 399 OFFCURVE",
"256 399 CURVE SMOOTH"
);
}
);
width = 523;
}
);
leftKerningGroup = "angleds-low";
note = p;
unicode = 0070;
},
{
glyphname = thorn;
lastChange = "2018-04-08 23:44:37 +0000";
layers = (
{
layerId = "2D48A379-BE71-4914-8765-C68406EE07E8";
paths = (
{
closed = 1;
nodes = (
"365 29 OFFCURVE",
"408 60 OFFCURVE",
"437 101 CURVE SMOOTH",
"466 142 OFFCURVE",
"483 195 OFFCURVE",
"483 255 CURVE SMOOTH",
"483 398 OFFCURVE",
"426 487 OFFCURVE",
"313 515 CURVE SMOOTH",
"258 530 OFFCURVE",
"205 518 OFFCURVE",
"158 491 CURVE",
"158 700 LINE",
"50 700 LINE",
"50 -170 LINE",
"158 -170 LINE",
"158 32 LINE",
"198 12 OFFCURVE",
"253 0 OFFCURVE",
"313 16 CURVE SMOOTH"
);
},
{
closed = 1;
nodes = (
"350 392 OFFCURVE",
"376 347 OFFCURVE",
"376 255 CURVE SMOOTH",
"376 183 OFFCURVE",
"343 137 OFFCURVE",
"287 122 CURVE SMOOTH",
"230 107 OFFCURVE",
"181 127 OFFCURVE",
"158 138 CURVE",
"158 376 LINE",
"171 384 OFFCURVE",
"192 400 OFFCURVE",
"214 406 CURVE SMOOTH",
"236 412 OFFCURVE",
"262 415 OFFCURVE",
"287 408 CURVE SMOOTH"
);
}
);
width = 523;
}
);
note = thorn;
unicode = 00FE;
},
{
glyphname = r;
lastChange = "2018-04-13 01:07:09 +0000";
layers = (
{
anchors = (
{
name = bottom;
position = "{205, 0}";
},
{
name = top;
position = "{205, 500}";
}
);
layerId = "2D48A379-BE71-4914-8765-C68406EE07E8";
paths = (
{
closed = 1;
nodes = (
"331 505 OFFCURVE",
"288 510 OFFCURVE",
"241 503 CURVE SMOOTH",
"208 499 OFFCURVE",
"176 478 OFFCURVE",
"156 455 CURVE",
"156 500 LINE",
"50 500 LINE",
"50 0 LINE",
"156 0 LINE",
"156 330 LINE",
"177 364 OFFCURVE",
"214 398 OFFCURVE",
"259 401 CURVE",
"282 404 OFFCURVE",
"302 403 OFFCURVE",
"327 396 CURVE",
"379 486 LINE"
);
}
);
width = 409;
}
);
leftKerningGroup = "angleds-low";
note = r;
unicode = 0072;
},
{
glyphname = s;
lastChange = "2018-04-13 01:07:09 +0000";
layers = (
{
anchors = (
{
name = bottom;
position = "{214, 0}";
},
{
name = top;
position = "{214, 530}";
}
);
layerId = "2D48A379-BE71-4914-8765-C68406EE07E8";
paths = (
{
closed = 1;
nodes = (
"382 77 OFFCURVE",
"401 142 OFFCURVE",
"378 201 CURVE SMOOTH",
"362 244 OFFCURVE",
"325 267 OFFCURVE",
"273 286 CURVE SMOOTH",
"257 292 OFFCURVE",
"193 318 OFFCURVE",
"182 326 CURVE",
"150 342 OFFCURVE",
"148 390 OFFCURVE",
"191 398 CURVE SMOOTH",
"215 403 OFFCURVE",
"241 399 OFFCURVE",
"263 392 CURVE",
"285 384 OFFCURVE",
"301 372 OFFCURVE",
"308 363 CURVE",
"382 432 LINE",
"359 460 OFFCURVE",
"326 479 OFFCURVE",
"290 491 CURVE SMOOTH",
"254 503 OFFCURVE",
"216 506 OFFCURVE",
"184 502 CURVE SMOOTH",
"112 493 OFFCURVE",
"65 446 OFFCURVE",
"56 375 CURVE SMOOTH",
"52 344 OFFCURVE",
"61 316 OFFCURVE",
"76 292 CURVE SMOOTH",
"124 212 OFFCURVE",
"262 227 OFFCURVE",
"290 159 CURVE",
"308 104 OFFCURVE",
"247 85 OFFCURVE",
"193 95 CURVE SMOOTH",
"164 100 OFFCURVE",
"133 121 OFFCURVE",
"113 142 CURVE",
"40 78 LINE",
"68 47 OFFCURVE",
"110 18 OFFCURVE",
"158 3 CURVE SMOOTH",
"178 -4 OFFCURVE",
"199 -7 OFFCURVE",
"219 -7 CURVE SMOOTH",
"264 -7 OFFCURVE",
"302 7 OFFCURVE",
"335 36 CURVE SMOOTH"
);
}
);
width = 428;
}
);
leftKerningGroup = "rounded-low";
note = s;
unicode = 0073;
},
{
glyphname = germandbls;
lastChange = "2018-04-08 20:53:55 +0000";
layers = (
{
layerId = "2D48A379-BE71-4914-8765-C68406EE07E8";
paths = (
{
closed = 1;
nodes = (
"482 411 OFFCURVE",
"497 461 OFFCURVE",
"497 506 CURVE SMOOTH",
"497 557 OFFCURVE",
"479 605 OFFCURVE",
"448 641 CURVE SMOOTH",
"416 677 OFFCURVE",
"370 700 OFFCURVE",
"317 700 CURVE SMOOTH",
"50 700 LINE",
"50 0 LINE",
"158 0 LINE",
"158 298 LINE",
"350 298 LINE SMOOTH",
"373 298 OFFCURVE",
"391 286 OFFCURVE",
"403 270 CURVE SMOOTH",
"415 253 OFFCURVE",
"422 230 OFFCURVE",
"422 209 CURVE SMOOTH",
"422 182 OFFCURVE",
"413 158 OFFCURVE",
"399 140 CURVE SMOOTH",
"385 122 OFFCURVE",
"366 109 OFFCURVE",
"347 109 CURVE SMOOTH",
"229 109 LINE",
"229 0 LINE",
"347 0 LINE SMOOTH",
"398 0 OFFCURVE",
"444 27 OFFCURVE",
"477 67 CURVE SMOOTH",
"509 107 OFFCURVE",
"530 158 OFFCURVE",
"530 209 CURVE SMOOTH",
"530 276 OFFCURVE",
"500 336 OFFCURVE",
"451 372 CURVE"
);
},
{
closed = 1;
nodes = (
"340 591 OFFCURVE",
"358 580 OFFCURVE",
"371 564 CURVE",
"383 548 OFFCURVE",
"390 527 OFFCURVE",
"390 506 CURVE SMOOTH",
"390 479 OFFCURVE",
"381 454 OFFCURVE",
"367 435 CURVE SMOOTH",
"353 415 OFFCURVE",
"333 402 OFFCURVE",
"314 402 CURVE SMOOTH",
"158 402 LINE",
"158 591 LINE",
"317 591 LINE SMOOTH"
);
}
);
width = 570;
}
);
note = germandbls;
unicode = 00DF;
},
{
glyphname = t;
lastChange = "2018-04-09 03:08:45 +0000";
layers = (
{
anchors = (
{
name = bottom;
position = "{193, 0}";
},
{
name = center;
position = "{193, 599}";
},
{
name = top;
position = "{193, 700}";
},
{
name = topright;
position = "{365, 500}";
}
);
layerId = "2D48A379-BE71-4914-8765-C68406EE07E8";
paths = (
{
closed = 1;
nodes = (
"118 65 OFFCURVE",
"200 -10 OFFCURVE",
"344 -5 CURVE",
"344 98 LINE",
"300 99 OFFCURVE",
"270 107 OFFCURVE",
"251 125 CURVE SMOOTH",
"231 143 OFFCURVE",
"224 173 OFFCURVE",
"224 221 CURVE SMOOTH",
"224 406 LINE",
"339 406 LINE",
"339 500 LINE",
"224 500 LINE",
"224 700 LINE",
"118 700 LINE",
"118 500 LINE",
"40 500 LINE",
"40 406 LINE",
"118 406 LINE",
"118 221 LINE SMOOTH"
);
}
);
width = 385;
}
);
note = t;
unicode = 0074;
},
{
glyphname = u;
lastChange = "2018-04-13 01:07:09 +0000";
layers = (
{
anchors = (
{
name = bottom;
position = "{262, 0}";
},
{
name = ogonek;
position = "{466, 10}";
},
{
name = top;
position = "{262, 530}";
},
{
name = topright;
position = "{504, 500}";
}
);
layerId = "2D48A379-BE71-4914-8765-C68406EE07E8";
paths = (
{
closed = 1;
nodes = (
"474 500 LINE",
"366 500 LINE",
"366 153 LINE",
"346 123 OFFCURVE",
"312 95 OFFCURVE",
"259 95 CURVE SMOOTH",
"191 95 OFFCURVE",
"148 128 OFFCURVE",
"148 204 CURVE SMOOTH",
"148 500 LINE",
"40 500 LINE",
"40 204 LINE SMOOTH",
"40 133 OFFCURVE",
"64 80 OFFCURVE",
"104 45 CURVE SMOOTH",
"144 10 OFFCURVE",
"200 -8 OFFCURVE",
"264 -8 CURVE SMOOTH",
"304 -8 OFFCURVE",
"343 14 OFFCURVE",
"366 37 CURVE",
"366 0 LINE",
"474 0 LINE"
);
}
);
width = 524;
}
);
leftKerningGroup = "rounded-low";
note = u;
unicode = 0075;
},
{
glyphname = v;
lastChange = "2018-04-13 01:07:09 +0000";
layers = (
{
layerId = "2D48A379-BE71-4914-8765-C68406EE07E8";
paths = (
{
closed = 1;
nodes = (
"416 500 LINE",
"286 119 LINE",
"156 500 LINE",
"40 500 LINE",
"227 0 LINE",
"346 0 LINE",
"534 500 LINE"
);
}
);
width = 574;
}
);
leftKerningGroup = "angled-low";
note = v;
unicode = 0076;
},
{
glyphname = w;
lastChange = "2018-04-13 01:07:09 +0000";
layers = (
{
anchors = (
{
name = bottom;
position = "{462, 0}";
},
{
name = top;
position = "{462, 530}";
}
);
layerId = "2D48A379-BE71-4914-8765-C68406EE07E8";
paths = (
{
closed = 1;
nodes = (
"767 500 LINE",
"645 120 LINE",
"524 500 LINE",
"401 500 LINE",
"280 120 LINE",
"157 500 LINE",
"40 500 LINE",
"213 0 LINE",
"348 0 LINE",
"462 352 LINE",
"577 0 LINE",
"712 0 LINE",
"884 500 LINE"
);
}
);
width = 924;
}
);
leftKerningGroup = "angled-low";
note = w;
unicode = 0077;
},
{
glyphname = x;
lastChange = "2018-04-13 01:07:09 +0000";
layers = (
{
anchors = (
{
name = bottom;
position = "{264, 0}";
},
{
name = top;
position = "{264, 500}";
}
);
layerId = "2D48A379-BE71-4914-8765-C68406EE07E8";
paths = (
{
closed = 1;
nodes = (
"355 500 LINE",
"263 335 LINE",
"170 500 LINE",
"43 500 LINE",
"200 254 LINE",
"40 0 LINE",
"166 0 LINE",
"263 173 LINE",
"362 0 LINE",
"488 0 LINE",
"326 254 LINE",
"481 500 LINE"
);
}
);
width = 528;
}
);
leftKerningGroup = "angled-low";
note = x;
unicode = 0078;
},
{
glyphname = y;
lastChange = "2018-04-13 01:07:09 +0000";
layers = (
{
anchors = (
{
name = bottom;
position = "{286, 0}";
},
{
name = top;
position = "{286, 530}";
}
);
layerId = "2D48A379-BE71-4914-8765-C68406EE07E8";
paths = (
{
closed = 1;
nodes = (
"404 500 LINE",
"285 124 LINE",
"155 500 LINE",
"40 500 LINE",
"223 4 LINE",
"221 -2 LINE",
"202 -50 OFFCURVE",
"168 -68 OFFCURVE",
"116 -67 CURVE",
"116 -174 LINE",
"135 -175 OFFCURVE",
"154 -174 OFFCURVE",
"173 -169 CURVE",
"266 -146 OFFCURVE",
"309 -94 OFFCURVE",
"345 24 CURVE",
"363 74 LINE",
"521 500 LINE"
);
}
);
width = 561;
}
);
leftKerningGroup = "angled-low";
note = y;
unicode = 0079;
},
{
glyphname = z;
lastChange = "2018-04-09 02:50:43 +0000";
layers = (
{
anchors = (
{
name = bottom;
position = "{235, 0}";
},
{
name = top;
position = "{235, 530}";
}
);
layerId = "2D48A379-BE71-4914-8765-C68406EE07E8";
paths = (
{
closed = 1;
nodes = (
"430 110 LINE",
"182 110 LINE",
"430 413 LINE",
"430 500 LINE",
"47 500 LINE",
"47 390 LINE",
"288 390 LINE",
"40 83 LINE",
"40 0 LINE",
"430 0 LINE"
);
}
);
width = 470;
}
);
note = z;
unicode = 007A;
},
{
glyphname = zero;
lastChange = "2018-04-08 20:53:55 +0000";
layers = (
{
layerId = "2D48A379-BE71-4914-8765-C68406EE07E8";
paths = (
{
closed = 1;
nodes = (
"437 -5 OFFCURVE",
"512 38 OFFCURVE",
"561 104 CURVE SMOOTH",
"609 170 OFFCURVE",
"632 258 OFFCURVE",
"632 350 CURVE SMOOTH",
"632 441 OFFCURVE",
"609 530 OFFCURVE",
"561 596 CURVE SMOOTH",
"512 662 OFFCURVE",
"437 705 OFFCURVE",
"336 705 CURVE SMOOTH",
"235 705 OFFCURVE",
"160 662 OFFCURVE",
"112 597 CURVE SMOOTH",
"63 532 OFFCURVE",
"40 443 OFFCURVE",
"40 350 CURVE SMOOTH",
"40 258 OFFCURVE",
"63 170 OFFCURVE",
"111 104 CURVE SMOOTH",
"159 38 OFFCURVE",
"233 -5 OFFCURVE",
"336 -5 CURVE SMOOTH"
);
},
{
closed = 1;
nodes = (
"401 599 OFFCURVE",
"449 572 OFFCURVE",
"481 528 CURVE SMOOTH",
"512 483 OFFCURVE",
"527 421 OFFCURVE",
"527 350 CURVE SMOOTH",
"527 279 OFFCURVE",
"512 217 OFFCURVE",
"481 172 CURVE SMOOTH",
"449 127 OFFCURVE",
"401 100 OFFCURVE",
"336 100 CURVE SMOOTH",
"269 100 OFFCURVE",
"222 127 OFFCURVE",
"191 172 CURVE SMOOTH",
"159 217 OFFCURVE",
"144 279 OFFCURVE",
"144 350 CURVE SMOOTH",
"144 421 OFFCURVE",
"159 483 OFFCURVE",
"191 528 CURVE SMOOTH",
"222 572 OFFCURVE",
"269 599 OFFCURVE",
"336 599 CURVE SMOOTH"
);
}
);
width = 672;
}
);
note = zero;
unicode = 0030;
},
{
glyphname = one;
lastChange = "2018-04-09 00:18:21 +0000";
layers = (
{
layerId = "2D48A379-BE71-4914-8765-C68406EE07E8";
paths = (
{
closed = 1;
nodes = (
"406 100 LINE",
"317 100 LINE",
"317 700 LINE",
"183 700 LINE",
"40 541 LINE",
"118 466 LINE",
"212 574 LINE",
"212 100 LINE",
"108 100 LINE",
"108 0 LINE",
"406 0 LINE"
);
}
);
width = 446;
}
);
note = one;
unicode = 0031;
},
{
glyphname = two;
lastChange = "2018-04-09 00:19:52 +0000";
layers = (
{
layerId = "2D48A379-BE71-4914-8765-C68406EE07E8";
paths = (
{
closed = 1;
nodes = (
"518 110 LINE",
"178 110 LINE",
"178 143 OFFCURVE",
"368 231 OFFCURVE",
"443 313 CURVE SMOOTH",
"485 358 OFFCURVE",
"515 407 OFFCURVE",
"515 466 CURVE",
"514 530 OFFCURVE",
"490 589 OFFCURVE",
"446 634 CURVE SMOOTH",
"403 678 OFFCURVE",
"347 704 OFFCURVE",
"284 707 CURVE SMOOTH",
"204 710 OFFCURVE",
"140 692 OFFCURVE",
"97 649 CURVE SMOOTH",
"59 612 OFFCURVE",
"40 565 OFFCURVE",
"40 500 CURVE",
"148 500 LINE",
"148 537 OFFCURVE",
"156 555 OFFCURVE",
"171 570 CURVE",
"193 590 OFFCURVE",
"229 599 OFFCURVE",
"280 597 CURVE SMOOTH",
"316 596 OFFCURVE",
"347 581 OFFCURVE",
"370 557 CURVE SMOOTH",
"406 519 OFFCURVE",
"420 452 OFFCURVE",
"393 415 CURVE SMOOTH",
"372 385 OFFCURVE",
"335 358 OFFCURVE",
"292 328 CURVE SMOOTH",
"271 313 OFFCURVE",
"250 298 OFFCURVE",
"229 283 CURVE SMOOTH",
"170 243 OFFCURVE",
"129 213 OFFCURVE",
"102 185 CURVE SMOOTH",
"47 130 OFFCURVE",
"56 111 OFFCURVE",
"55 0 CURVE",
"518 0 LINE"
);
}
);
width = 558;
}
);
note = two;
unicode = 0032;
},
{
glyphname = three;
lastChange = "2018-04-09 00:21:11 +0000";
layers = (
{
layerId = "2D48A379-BE71-4914-8765-C68406EE07E8";
paths = (
{
closed = 1;
nodes = (
"177 503 LINE",
"190 559 OFFCURVE",
"216 593 OFFCURVE",
"280 593 CURVE SMOOTH",
"308 593 OFFCURVE",
"334 583 OFFCURVE",
"352 567 CURVE SMOOTH",
"371 550 OFFCURVE",
"380 528 OFFCURVE",
"380 504 CURVE SMOOTH",
"380 480 OFFCURVE",
"369 456 OFFCURVE",
"351 439 CURVE SMOOTH",
"333 422 OFFCURVE",
"308 405 OFFCURVE",
"280 405 CURVE SMOOTH",
"193 405 LINE",
"193 314 LINE",
"274 314 LINE SMOOTH",
"307 314 OFFCURVE",
"338 296 OFFCURVE",
"359 277 CURVE SMOOTH",
"381 257 OFFCURVE",
"393 231 OFFCURVE",
"393 204 CURVE SMOOTH",
"393 177 OFFCURVE",
"380 152 OFFCURVE",
"359 133 CURVE SMOOTH",
"338 114 OFFCURVE",
"307 103 OFFCURVE",
"274 103 CURVE SMOOTH",
"217 103 OFFCURVE",
"167 143 OFFCURVE",
"144 198 CURVE",
"40 167 LINE",
"52 132 OFFCURVE",
"67 110 OFFCURVE",
"74 101 CURVE",
"115 33 OFFCURVE",
"190 -7 OFFCURVE",
"274 -7 CURVE SMOOTH",
"335 -7 OFFCURVE",
"393 17 OFFCURVE",
"434 55 CURVE SMOOTH",
"475 93 OFFCURVE",
"501 145 OFFCURVE",
"501 204 CURVE SMOOTH",
"501 268 OFFCURVE",
"460 322 OFFCURVE",
"413 361 CURVE",
"460 397 OFFCURVE",
"490 448 OFFCURVE",
"490 504 CURVE SMOOTH",
"490 560 OFFCURVE",
"466 609 OFFCURVE",
"428 645 CURVE SMOOTH",
"390 681 OFFCURVE",
"337 703 OFFCURVE",
"280 703 CURVE SMOOTH",
"225 703 OFFCURVE",
"176 684 OFFCURVE",
"135 647 CURVE SMOOTH",
"99 614 OFFCURVE",
"84 582 OFFCURVE",
"69 523 CURVE"
);
}
);
width = 541;
}
);
note = three;
unicode = 0033;
},
{
glyphname = four;
lastChange = "2018-04-09 00:21:30 +0000";
layers = (
{
layerId = "2D48A379-BE71-4914-8765-C68406EE07E8";
paths = (
{
closed = 1;
nodes = (
"549 282 LINE",
"451 282 LINE",
"451 700 LINE",
"301 700 LINE",
"40 274 LINE",
"40 182 LINE",
"343 182 LINE",
"343 0 LINE",
"451 0 LINE",
"451 182 LINE",
"549 182 LINE"
);
},
{
closed = 1;
nodes = (
"166 282 LINE",
"343 571 LINE",
"343 282 LINE"
);
}
);
width = 589;
}
);
note = four;
unicode = 0034;
},
{
glyphname = five;
lastChange = "2018-04-12 21:50:55 +0000";
layers = (
{
layerId = "2D48A379-BE71-4914-8765-C68406EE07E8";
paths = (
{
closed = 1;
nodes = (
"325 -7 OFFCURVE",
"382 20 OFFCURVE",
"425 64 CURVE SMOOTH",
"467 107 OFFCURVE",
"492 166 OFFCURVE",
"492 233 CURVE SMOOTH",
"492 297 OFFCURVE",
"473 361 OFFCURVE",
"434 405 CURVE SMOOTH",
"393 451 OFFCURVE",
"340 478 OFFCURVE",
"277 478 CURVE SMOOTH",
"250 478 OFFCURVE",
"226 473 OFFCURVE",
"203 461 CURVE",
"212 591 LINE",
"475 591 LINE",
"475 700 LINE",
"112 700 LINE",
"88 355 LINE",
"178 319 LINE",
"207 353 OFFCURVE",
"240 370 OFFCURVE",
"277 370 CURVE SMOOTH",
"309 370 OFFCURVE",
"337 357 OFFCURVE",
"357 334 CURVE SMOOTH",
"377 310 OFFCURVE",
"389 272 OFFCURVE",
"389 233 CURVE SMOOTH",
"389 197 OFFCURVE",
"374 164 OFFCURVE",
"351 141 CURVE SMOOTH",
"327 117 OFFCURVE",
"296 102 OFFCURVE",
"261 102 CURVE SMOOTH",
"230 102 OFFCURVE",
"208 107 OFFCURVE",
"186 119 CURVE SMOOTH",
"164 131 OFFCURVE",
"141 150 OFFCURVE",
"116 178 CURVE",
"40 101 LINE",
"105 26 OFFCURVE",
"168 -7 OFFCURVE",
"261 -7 CURVE SMOOTH"
);
}
);
width = 532;
}
);
note = five;
unicode = 0035;
},
{
glyphname = six;
lastChange = "2018-04-09 00:22:12 +0000";
layers = (
{
layerId = "2D48A379-BE71-4914-8765-C68406EE07E8";
paths = (
{
closed = 1;
nodes = (
"340 -5 OFFCURVE",
"399 22 OFFCURVE",
"443 65 CURVE SMOOTH",
"486 108 OFFCURVE",
"512 167 OFFCURVE",
"512 234 CURVE SMOOTH",
"512 299 OFFCURVE",
"486 360 OFFCURVE",
"443 403 CURVE SMOOTH",
"400 446 OFFCURVE",
"341 473 OFFCURVE",
"276 473 CURVE SMOOTH",
"261 473 OFFCURVE",
"243 472 OFFCURVE",
"225 463 CURVE",
"284 546 OFFCURVE",
"370 635 OFFCURVE",
"434 700 CURVE",
"285 700 LINE",
"260 671 OFFCURVE",
"235 642 OFFCURVE",
"210 610 CURVE SMOOTH",
"97 463 OFFCURVE",
"40 347 OFFCURVE",
"40 234 CURVE SMOOTH",
"40 167 OFFCURVE",
"66 108 OFFCURVE",
"109 65 CURVE SMOOTH",
"152 22 OFFCURVE",
"210 -5 OFFCURVE",
"275 -5 CURVE SMOOTH"
);
},
{
closed = 1;
nodes = (
"311 364 OFFCURVE",
"343 350 OFFCURVE",
"367 326 CURVE SMOOTH",
"390 302 OFFCURVE",
"404 270 OFFCURVE",
"404 234 CURVE SMOOTH",
"404 198 OFFCURVE",
"390 166 OFFCURVE",
"367 143 CURVE SMOOTH",
"343 119 OFFCURVE",
"311 105 OFFCURVE",
"276 105 CURVE SMOOTH",
"240 105 OFFCURVE",
"208 119 OFFCURVE",
"185 143 CURVE",
"161 166 OFFCURVE",
"147 198 OFFCURVE",
"147 234 CURVE SMOOTH",
"147 270 OFFCURVE",
"161 302 OFFCURVE",
"185 326 CURVE SMOOTH",
"208 350 OFFCURVE",
"240 364 OFFCURVE",
"276 364 CURVE SMOOTH"
);
}
);
width = 552;
}
);
note = six;
unicode = 0036;
},
{
glyphname = seven;
lastChange = "2018-04-09 00:22:28 +0000";
layers = (
{
layerId = "2D48A379-BE71-4914-8765-C68406EE07E8";
paths = (
{
closed = 1;
nodes = (
"40 700 LINE",
"40 592 LINE",
"300 592 LINE",
"121 0 LINE",
"234 0 LINE",
"420 619 LINE",
"421 700 LINE"
);
}
);
width = 461;
}
);
note = seven;
unicode = 0037;
},
{
glyphname = eight;
lastChange = "2018-04-09 00:22:53 +0000";
layers = (
{
layerId = "2D48A379-BE71-4914-8765-C68406EE07E8";
paths = (
{
closed = 1;
nodes = (
"337 -5 OFFCURVE",
"396 19 OFFCURVE",
"438 58 CURVE SMOOTH",
"480 97 OFFCURVE",
"504 150 OFFCURVE",
"504 210 CURVE SMOOTH",
"504 278 OFFCURVE",
"467 336 OFFCURVE",
"412 375 CURVE",
"452 410 OFFCURVE",
"477 458 OFFCURVE",
"477 510 CURVE SMOOTH",
"477 565 OFFCURVE",
"454 613 OFFCURVE",
"417 649 CURVE SMOOTH",
"380 684 OFFCURVE",
"328 705 OFFCURVE",
"272 705 CURVE SMOOTH",
"216 705 OFFCURVE",
"165 684 OFFCURVE",
"128 649 CURVE SMOOTH",
"91 613 OFFCURVE",
"68 565 OFFCURVE",
"68 510 CURVE SMOOTH",
"68 458 OFFCURVE",
"96 410 OFFCURVE",
"133 375 CURVE",
"80 336 OFFCURVE",
"40 278 OFFCURVE",
"40 210 CURVE SMOOTH",
"40 150 OFFCURVE",
"65 97 OFFCURVE",
"106 58 CURVE SMOOTH",
"147 19 OFFCURVE",
"205 -5 OFFCURVE",
"272 -5 CURVE SMOOTH"
);
},
{
closed = 1;
nodes = (
"328 596 OFFCURVE",
"370 570 OFFCURVE",
"370 510 CURVE SMOOTH",
"370 451 OFFCURVE",
"328 424 OFFCURVE",
"272 424 CURVE SMOOTH",
"216 424 OFFCURVE",
"175 451 OFFCURVE",
"175 510 CURVE SMOOTH",
"175 570 OFFCURVE",
"216 596 OFFCURVE",
"272 596 CURVE SMOOTH"
);
},
{
closed = 1;
nodes = (
"344 315 OFFCURVE",
"397 278 OFFCURVE",
"397 210 CURVE SMOOTH",
"397 139 OFFCURVE",
"344 104 OFFCURVE",
"272 104 CURVE SMOOTH",
"200 104 OFFCURVE",
"148 139 OFFCURVE",
"148 210 CURVE SMOOTH",
"148 278 OFFCURVE",
"200 315 OFFCURVE",
"272 315 CURVE SMOOTH"
);
}
);
width = 544;
}
);
note = eight;
unicode = 0038;
},
{
glyphname = fraction;
lastChange = "2018-04-09 00:25:03 +0000";
layers = (
{
layerId = "2D48A379-BE71-4914-8765-C68406EE07E8";
paths = (
{
closed = 1;
nodes = (
"428 700 LINE",
"40 -6 LINE",
"141 -6 LINE",
"530 700 LINE"
);
}
);
width = 570;
}
);
note = fraction;
unicode = 2044;
},
{
glyphname = asterisk;
lastChange = "2018-04-12 21:50:55 +0000";
layers = (
{
layerId = "2D48A379-BE71-4914-8765-C68406EE07E8";
paths = (
{
closed = 1;
nodes = (
"281 550 LINE",
"354 590 LINE",
"315 657 LINE",
"241 613 LINE",
"241 700 LINE",
"165 700 LINE",
"165 608 LINE",
"83 651 LINE",
"50 581 LINE",
"123 545 LINE",
"51 505 LINE",
"90 438 LINE",
"165 483 LINE",
"165 395 LINE",
"241 395 LINE",
"241 486 LINE",
"321 444 LINE",
"356 513 LINE"
);
}
);
width = 406;
}
);
note = asterisk;
unicode = 002A;
},
{
glyphname = backslash;
lastChange = "2018-04-12 21:50:55 +0000";
layers = (
{
layerId = "2D48A379-BE71-4914-8765-C68406EE07E8";
paths = (
{
closed = 1;
nodes = (
"141 700 LINE",
"35 700 LINE",
"383 -104 LINE",
"488 -104 LINE"
);
}
);
width = 523;
}
);
note = backslash;
unicode = 005C;
},
{
glyphname = periodcentered;
lastChange = "2018-04-10 03:19:15 +0000";
layers = (
{
layerId = "2D48A379-BE71-4914-8765-C68406EE07E8";
paths = (
{
closed = 1;
nodes = (
"140 253 OFFCURVE",
"165 277 OFFCURVE",
"165 310 CURVE SMOOTH",
"165 343 OFFCURVE",
"140 368 OFFCURVE",
"107 368 CURVE SMOOTH",
"74 368 OFFCURVE",
"50 343 OFFCURVE",
"50 310 CURVE SMOOTH",
"50 277 OFFCURVE",
"74 253 OFFCURVE",
"107 253 CURVE SMOOTH"
);
}
);
width = 215;
}
);
note = periodcentered;
unicode = 00B7;
},
{
glyphname = bullet;
lastChange = "2018-04-08 20:53:55 +0000";
layers = (
{
layerId = "2D48A379-BE71-4914-8765-C68406EE07E8";
paths = (
{
closed = 1;
nodes = (
"187 191 OFFCURVE",
"215 203 OFFCURVE",
"235 223 CURVE SMOOTH",
"254 242 OFFCURVE",
"266 268 OFFCURVE",
"266 299 CURVE SMOOTH",
"266 328 OFFCURVE",
"254 356 OFFCURVE",
"235 376 CURVE",
"215 395 OFFCURVE",
"187 407 OFFCURVE",
"158 407 CURVE SMOOTH",
"127 407 OFFCURVE",
"101 395 OFFCURVE",
"82 376 CURVE SMOOTH",
"62 356 OFFCURVE",
"50 328 OFFCURVE",
"50 299 CURVE SMOOTH",
"50 268 OFFCURVE",
"62 242 OFFCURVE",
"82 223 CURVE",
"101 203 OFFCURVE",
"127 191 OFFCURVE",
"158 191 CURVE SMOOTH"
);
}
);
width = 316;
}
);
note = bullet;
unicode = 2022;
},
{
glyphname = colon;
lastChange = "2018-04-10 03:19:37 +0000";
layers = (
{
layerId = "2D48A379-BE71-4914-8765-C68406EE07E8";
paths = (
{
closed = 1;
nodes = (
"140 -8 OFFCURVE",
"165 17 OFFCURVE",
"165 50 CURVE SMOOTH",
"165 83 OFFCURVE",
"140 108 OFFCURVE",
"107 108 CURVE SMOOTH",
"74 108 OFFCURVE",
"50 83 OFFCURVE",
"50 50 CURVE SMOOTH",
"50 17 OFFCURVE",
"74 -8 OFFCURVE",
"107 -8 CURVE SMOOTH"
);
},
{
closed = 1;
nodes = (
"140 337 OFFCURVE",
"165 362 OFFCURVE",
"165 395 CURVE SMOOTH",
"165 428 OFFCURVE",
"140 453 OFFCURVE",
"107 453 CURVE SMOOTH",
"74 453 OFFCURVE",
"50 428 OFFCURVE",
"50 395 CURVE SMOOTH",
"50 362 OFFCURVE",
"74 337 OFFCURVE",
"107 337 CURVE SMOOTH"
);
}
);
width = 215;
}
);
note = colon;
unicode = 003A;
},
{
glyphname = comma;
lastChange = "2018-04-12 21:50:55 +0000";
layers = (
{
layerId = "2D48A379-BE71-4914-8765-C68406EE07E8";
paths = (
{
closed = 1;
nodes = (
"112 -54 LINE",
"136 6 OFFCURVE",
"156 56 OFFCURVE",
"127 90 CURVE",
"115 103 OFFCURVE",
"99 110 OFFCURVE",
"82 110 CURVE SMOOTH",
"47 110 OFFCURVE",
"20 83 OFFCURVE",
"20 48 CURVE SMOOTH",
"20 16 OFFCURVE",
"45 -10 OFFCURVE",
"74 -8 CURVE",
"74 -9 OFFCURVE",
"73 -28 OFFCURVE",
"42 -107 CURVE",
"85 -124 LINE"
);
}
);
width = 181;
}
);
note = comma;
unicode = 002C;
},
{
glyphname = ellipsis;
lastChange = "2018-04-12 21:50:55 +0000";
layers = (
{
layerId = "2D48A379-BE71-4914-8765-C68406EE07E8";
paths = (
{
closed = 1;
nodes = (
"130 -8 OFFCURVE",
"155 17 OFFCURVE",
"155 50 CURVE SMOOTH",
"155 83 OFFCURVE",
"130 108 OFFCURVE",
"97 108 CURVE SMOOTH",
"64 108 OFFCURVE",
"40 83 OFFCURVE",
"40 50 CURVE SMOOTH",
"40 17 OFFCURVE",
"64 -8 OFFCURVE",
"97 -8 CURVE SMOOTH"
);
},
{
closed = 1;
nodes = (
"336 -8 OFFCURVE",
"361 17 OFFCURVE",
"361 50 CURVE SMOOTH",
"361 83 OFFCURVE",
"336 108 OFFCURVE",
"303 108 CURVE SMOOTH",
"270 108 OFFCURVE",
"246 83 OFFCURVE",
"246 50 CURVE SMOOTH",
"246 17 OFFCURVE",
"270 -8 OFFCURVE",
"303 -8 CURVE SMOOTH"
);
},
{
closed = 1;
nodes = (
"538 -8 OFFCURVE",
"563 17 OFFCURVE",
"563 50 CURVE SMOOTH",
"563 83 OFFCURVE",
"538 108 OFFCURVE",
"505 108 CURVE SMOOTH",
"472 108 OFFCURVE",
"448 83 OFFCURVE",
"448 50 CURVE SMOOTH",
"448 17 OFFCURVE",
"472 -8 OFFCURVE",
"505 -8 CURVE SMOOTH"
);
}
);
width = 603;
}
);
note = ellipsis;
unicode = 2026;
},
{
glyphname = exclam;
lastChange = "2018-04-12 21:50:55 +0000";
layers = (
{
layerId = "2D48A379-BE71-4914-8765-C68406EE07E8";
paths = (
{
closed = 1;
nodes = (
"60 700 LINE",
"64 163 LINE",
"151 163 LINE",
"155 700 LINE"
);
},
{
closed = 1;
nodes = (
"140 -9 OFFCURVE",
"165 16 OFFCURVE",
"165 49 CURVE SMOOTH",
"165 82 OFFCURVE",
"140 107 OFFCURVE",
"107 107 CURVE SMOOTH",
"74 107 OFFCURVE",
"50 82 OFFCURVE",
"50 49 CURVE SMOOTH",
"50 16 OFFCURVE",
"74 -9 OFFCURVE",
"107 -9 CURVE SMOOTH"
);
}
);
width = 215;
}
);
note = exclam;
unicode = 0021;
},
{
glyphname = numbersign;
lastChange = "2018-04-08 20:53:55 +0000";
layers = (
{
layerId = "2D48A379-BE71-4914-8765-C68406EE07E8";
paths = (
{
closed = 1;
nodes = (
"611 518 LINE",
"658 697 LINE",
"550 697 LINE",
"500 519 LINE",
"364 519 LINE",
"411 697 LINE",
"304 697 LINE",
"256 519 LINE",
"96 520 LINE",
"96 415 LINE",
"228 415 LINE",
"193 287 LINE",
"40 287 LINE",
"40 183 LINE",
"164 183 LINE",
"116 1 LINE",
"224 1 LINE",
"273 183 LINE",
"407 182 LINE",
"357 1 LINE",
"471 1 LINE",
"520 182 LINE",
"683 182 LINE",
"683 285 LINE",
"548 285 LINE",
"582 414 LINE",
"738 414 LINE",
"739 518 LINE"
);
},
{
closed = 1;
nodes = (
"436 286 LINE",
"301 286 LINE",
"335 415 LINE",
"472 414 LINE"
);
}
);
width = 779;
}
);
note = numbersign;
unicode = 0023;
},
{
glyphname = period;
lastChange = "2018-04-12 21:50:55 +0000";
layers = (
{
layerId = "2D48A379-BE71-4914-8765-C68406EE07E8";
paths = (
{
closed = 1;
nodes = (
"100 -7 OFFCURVE",
"125 18 OFFCURVE",
"125 51 CURVE SMOOTH",
"125 84 OFFCURVE",
"100 109 OFFCURVE",
"67 109 CURVE SMOOTH",
"34 109 OFFCURVE",
"10 84 OFFCURVE",
"10 51 CURVE SMOOTH",
"10 18 OFFCURVE",
"34 -7 OFFCURVE",
"67 -7 CURVE SMOOTH"
);
}
);
width = 175;
}
);
note = period;
unicode = 002E;
},
{
glyphname = question;
lastChange = "2018-04-10 03:20:31 +0000";
layers = (
{
layerId = "2D48A379-BE71-4914-8765-C68406EE07E8";
paths = (
{
closed = 1;
nodes = (
"490 360 OFFCURVE",
"518 410 OFFCURVE",
"521 482 CURVE SMOOTH",
"522 546 OFFCURVE",
"499 602 OFFCURVE",
"458 642 CURVE SMOOTH",
"417 682 OFFCURVE",
"359 705 OFFCURVE",
"292 708 CURVE SMOOTH",
"220 711 OFFCURVE",
"160 694 OFFCURVE",
"117 659 CURVE SMOOTH",
"74 623 OFFCURVE",
"50 568 OFFCURVE",
"50 495 CURVE",
"154 495 LINE",
"154 516 OFFCURVE",
"158 533 OFFCURVE",
"165 548 CURVE",
"180 577 OFFCURVE",
"205 597 OFFCURVE",
"237 605 CURVE SMOOTH",
"268 613 OFFCURVE",
"304 611 OFFCURVE",
"336 600 CURVE SMOOTH",
"368 588 OFFCURVE",
"393 568 OFFCURVE",
"408 538 CURVE SMOOTH",
"423 508 OFFCURVE",
"420 465 OFFCURVE",
"412 440 CURVE SMOOTH",
"404 415 OFFCURVE",
"391 397 OFFCURVE",
"373 385 CURVE SMOOTH",
"355 373 OFFCURVE",
"333 364 OFFCURVE",
"312 356 CURVE",
"301 351 OFFCURVE",
"291 346 OFFCURVE",
"281 341 CURVE",
"260 329 OFFCURVE",
"240 314 OFFCURVE",
"228 289 CURVE",
"221 276 OFFCURVE",
"217 263 OFFCURVE",
"214 245 CURVE SMOOTH",
"211 227 OFFCURVE",
"210 205 OFFCURVE",
"210 173 CURVE",
"313 173 LINE",
"313 211 OFFCURVE",
"311 238 OFFCURVE",
"322 249 CURVE SMOOTH",
"332 259 OFFCURVE",
"360 269 OFFCURVE",
"374 277 CURVE",
"397 288 OFFCURVE",
"422 300 OFFCURVE",
"445 320 CURVE SMOOTH"
);
},
{
closed = 1;
nodes = (
"296 -9 OFFCURVE",
"321 16 OFFCURVE",
"321 49 CURVE SMOOTH",
"321 82 OFFCURVE",
"296 107 OFFCURVE",
"263 107 CURVE SMOOTH",
"230 107 OFFCURVE",
"206 82 OFFCURVE",
"206 49 CURVE SMOOTH",
"206 16 OFFCURVE",
"230 -9 OFFCURVE",
"263 -9 CURVE SMOOTH"
);
}
);
width = 571;
}
);
note = question;
unicode = 003F;
},
{
glyphname = quotedbl;
lastChange = "2018-04-12 21:50:55 +0000";
layers = (
{
layerId = "2D48A379-BE71-4914-8765-C68406EE07E8";
paths = (
{
closed = 1;
nodes = (
"173 700 LINE",
"178 463 LINE",
"255 463 LINE",
"260 700 LINE"
);
},
{
closed = 1;
nodes = (
"40 700 LINE",
"45 463 LINE",
"122 463 LINE",
"127 700 LINE"
);
}
);
width = 300;
}
);
note = quotedbl;
unicode = 0022;
},
{
glyphname = quotesingle;
lastChange = "2018-04-09 00:26:45 +0000";
layers = (
{
layerId = "2D48A379-BE71-4914-8765-C68406EE07E8";
paths = (
{
closed = 1;
nodes = (
"40 700 LINE",
"45 463 LINE",
"122 463 LINE",
"127 700 LINE"
);
}
);
width = 167;
}
);
note = quotesingle;
unicode = 0027;
},
{
glyphname = semicolon;
lastChange = "2018-04-12 21:50:55 +0000";
layers = (
{
layerId = "2D48A379-BE71-4914-8765-C68406EE07E8";
paths = (
{
closed = 1;
nodes = (
"121 337 OFFCURVE",
"146 362 OFFCURVE",
"146 395 CURVE SMOOTH",
"146 428 OFFCURVE",
"121 453 OFFCURVE",
"88 453 CURVE SMOOTH",
"55 453 OFFCURVE",
"30 428 OFFCURVE",
"30 395 CURVE SMOOTH",
"30 362 OFFCURVE",
"55 337 OFFCURVE",
"88 337 CURVE SMOOTH"
);
},
{
closed = 1;
nodes = (
"115 -53 LINE",
"137 1 OFFCURVE",
"155 46 OFFCURVE",
"129 77 CURVE",
"118 88 OFFCURVE",
"104 96 OFFCURVE",
"88 96 CURVE SMOOTH",
"56 96 OFFCURVE",
"32 71 OFFCURVE",
"32 40 CURVE SMOOTH",
"32 10 OFFCURVE",
"54 -13 OFFCURVE",
"81 -12 CURVE",
"81 -13 OFFCURVE",
"80 -30 OFFCURVE",
"52 -102 CURVE",
"91 -117 LINE"
);
}
);
width = 196;
}
);
note = semicolon;
unicode = 003B;
},
{
glyphname = slash;
lastChange = "2018-04-12 21:50:55 +0000";
layers = (
{
layerId = "2D48A379-BE71-4914-8765-C68406EE07E8";
paths = (
{
closed = 1;
nodes = (
"382 700 LINE",
"35 -104 LINE",
"140 -104 LINE",
"488 700 LINE"
);
}
);
width = 523;
}
);
note = slash;
unicode = 002F;
},
{
glyphname = underscore;
lastChange = "2018-04-12 21:50:55 +0000";
layers = (
{
layerId = "2D48A379-BE71-4914-8765-C68406EE07E8";
paths = (
{
closed = 1;
nodes = (
"545 -66 LINE",
"50 -66 LINE",
"50 -126 LINE",
"545 -126 LINE"
);
}
);
width = 595;
}
);
note = underscore;
unicode = 005F;
},
{
glyphname = braceleft;
lastChange = "2018-04-08 23:28:48 +0000";
layers = (
{
layerId = "2D48A379-BE71-4914-8765-C68406EE07E8";
paths = (
{
closed = 1;
nodes = (
"173 298 OFFCURVE",
"194 318 OFFCURVE",
"194 350 CURVE SMOOTH",
"194 360 OFFCURVE",
"193 411 OFFCURVE",
"193 422 CURVE",
"192 450 OFFCURVE",
"191 488 OFFCURVE",
"191 548 CURVE SMOOTH",
"191 585 LINE SMOOTH",
"191 596 OFFCURVE",
"192 606 OFFCURVE",
"193 615 CURVE",
"196 630 OFFCURVE",
"202 638 OFFCURVE",
"211 640 CURVE",
"288 640 LINE",
"288 718 LINE",
"210 718 LINE SMOOTH",
"138 718 OFFCURVE",
"101 642 OFFCURVE",
"101 548 CURVE SMOOTH",
"101 405 LINE SMOOTH",
"100 372 OFFCURVE",
"99 351 OFFCURVE",
"96 339 CURVE",
"94 324 OFFCURVE",
"88 323 OFFCURVE",
"77 323 CURVE SMOOTH",
"50 323 LINE",
"50 248 LINE",
"77 248 LINE SMOOTH",
"90 248 OFFCURVE",
"93 246 OFFCURVE",
"96 231 CURVE",
"99 219 OFFCURVE",
"100 199 OFFCURVE",
"101 164 CURVE SMOOTH",
"101 23 LINE SMOOTH",
"101 -68 OFFCURVE",
"136 -147 OFFCURVE",
"210 -147 CURVE SMOOTH",
"288 -147 LINE",
"288 -69 LINE",
"211 -69 LINE",
"202 -67 OFFCURVE",
"196 -59 OFFCURVE",
"193 -44 CURVE",
"192 -35 OFFCURVE",
"191 -25 OFFCURVE",
"191 -14 CURVE SMOOTH",
"191 23 LINE SMOOTH",
"191 53 OFFCURVE",
"194 205 OFFCURVE",
"194 225 CURVE SMOOTH",
"194 260 OFFCURVE",
"173 275 OFFCURVE",
"149 286 CURVE"
);
}
);
width = 328;
}
);
note = braceleft;
unicode = 007B;
},
{
glyphname = bracketleft;
lastChange = "2018-04-08 23:29:26 +0000";
layers = (
{
layerId = "2D48A379-BE71-4914-8765-C68406EE07E8";
paths = (
{
closed = 1;
nodes = (
"237 -44 LINE",
"140 -44 LINE",
"140 595 LINE",
"237 595 LINE",
"237 700 LINE",
"50 700 LINE",
"50 -147 LINE",
"237 -147 LINE"
);
}
);
width = 277;
}
);
note = bracketleft;
unicode = 005B;
},
{
glyphname = bracketright;
lastChange = "2018-04-08 20:53:55 +0000";
layers = (
{
layerId = "2D48A379-BE71-4914-8765-C68406EE07E8";
paths = (
{
closed = 1;
nodes = (
"227 698 LINE",
"40 698 LINE",
"40 593 LINE",
"137 593 LINE",
"137 -44 LINE",
"40 -44 LINE",
"40 -147 LINE",
"227 -147 LINE"
);
}
);
width = 277;
}
);
note = bracketright;
unicode = 005D;
},
{
glyphname = parenleft;
lastChange = "2018-04-12 21:50:55 +0000";
layers = (
{
layerId = "2D48A379-BE71-4914-8765-C68406EE07E8";
paths = (
{
closed = 1;
nodes = (
"192 2 OFFCURVE",
"142 143 OFFCURVE",
"142 315 CURVE SMOOTH",
"142 480 OFFCURVE",
"197 617 OFFCURVE",
"285 705 CURVE",
"169 705 LINE",
"94 609 OFFCURVE",
"50 488 OFFCURVE",
"50 315 CURVE SMOOTH",
"50 286 LINE SMOOTH",
"50 235 OFFCURVE",
"56 173 OFFCURVE",
"75 107 CURVE SMOOTH",
"94 41 OFFCURVE",
"122 -29 OFFCURVE",
"169 -90 CURVE",
"285 -90 LINE"
);
}
);
width = 325;
}
);
note = parenleft;
unicode = 0028;
},
{
glyphname = parenright;
lastChange = "2018-04-12 21:50:55 +0000";
layers = (
{
layerId = "2D48A379-BE71-4914-8765-C68406EE07E8";
paths = (
{
closed = 1;
nodes = (
"201 -29 OFFCURVE",
"231 41 OFFCURVE",
"250 107 CURVE SMOOTH",
"269 173 OFFCURVE",
"275 235 OFFCURVE",
"275 286 CURVE SMOOTH",
"275 315 LINE SMOOTH",
"275 488 OFFCURVE",
"231 609 OFFCURVE",
"156 705 CURVE",
"40 705 LINE",
"128 617 OFFCURVE",
"183 480 OFFCURVE",
"183 315 CURVE SMOOTH",
"183 143 OFFCURVE",
"133 2 OFFCURVE",
"40 -90 CURVE",
"156 -90 LINE"
);
}
);
width = 325;
}
);
note = parenright;
unicode = 0029;
},
{
glyphname = emdash;
lastChange = "2018-04-12 21:50:55 +0000";
layers = (
{
layerId = "2D48A379-BE71-4914-8765-C68406EE07E8";
paths = (
{
closed = 1;
nodes = (
"926 345 LINE",
"20 345 LINE",
"20 255 LINE",
"926 255 LINE"
);
}
);
width = 946;
}
);
note = emdash;
unicode = 2014;
},
{
glyphname = endash;
lastChange = "2018-04-09 00:27:30 +0000";
layers = (
{
layerId = "2D48A379-BE71-4914-8765-C68406EE07E8";
paths = (
{
closed = 1;
nodes = (
"545 345 LINE",
"50 345 LINE",
"50 255 LINE",
"545 255 LINE"
);
}
);
width = 595;
}
);
note = endash;
unicode = 2013;
},
{
glyphname = hyphen;
lastChange = "2018-04-09 00:27:38 +0000";
layers = (
{
layerId = "2D48A379-BE71-4914-8765-C68406EE07E8";
paths = (
{
closed = 1;
nodes = (
"400 345 LINE",
"50 345 LINE",
"50 255 LINE",
"400 255 LINE"
);
}
);
width = 450;
}
);
note = hyphen;
unicode = 002D;
},
{
glyphname = guillemotleft;
lastChange = "2018-04-12 21:50:55 +0000";
layers = (
{
layerId = "2D48A379-BE71-4914-8765-C68406EE07E8";
paths = (
{
closed = 1;
nodes = (
"540 141 LINE",
"392 269 LINE",
"540 396 LINE",
"540 509 LINE",
"263 272 LINE",
"540 30 LINE"
);
},
{
closed = 1;
nodes = (
"308 141 LINE",
"165 269 LINE",
"308 396 LINE",
"308 509 LINE",
"30 272 LINE",
"308 31 LINE"
);
}
);
width = 580;
}
);
note = guillemotleft;
unicode = 00AB;
},
{
glyphname = guilsinglleft;
lastChange = "2018-04-12 21:50:55 +0000";
layers = (
{
layerId = "2D48A379-BE71-4914-8765-C68406EE07E8";
paths = (
{
closed = 1;
nodes = (
"299 141 LINE",
"161 269 LINE",
"299 396 LINE",
"299 509 LINE",
"30 272 LINE",
"299 31 LINE"
);
}
);
width = 339;
}
);
note = guilsinglleft;
unicode = 2039;
},
{
glyphname = guilsinglright;
lastChange = "2018-04-12 21:50:55 +0000";
layers = (
{
layerId = "2D48A379-BE71-4914-8765-C68406EE07E8";
paths = (
{
closed = 1;
nodes = (
"40 509 LINE",
"40 396 LINE",
"178 269 LINE",
"40 141 LINE",
"40 31 LINE",
"309 272 LINE"
);
}
);
width = 339;
}
);
note = guilsinglright;
unicode = 203A;
},
{
glyphname = quotedblbase;
lastChange = "2018-04-12 21:50:55 +0000";
layers = (
{
layerId = "2D48A379-BE71-4914-8765-C68406EE07E8";
paths = (
{
closed = 1;
nodes = (
"112 -54 LINE",
"136 6 OFFCURVE",
"156 56 OFFCURVE",
"127 90 CURVE",
"115 103 OFFCURVE",
"99 110 OFFCURVE",
"82 110 CURVE SMOOTH",
"47 110 OFFCURVE",
"20 83 OFFCURVE",
"20 48 CURVE SMOOTH",
"20 16 OFFCURVE",
"45 -10 OFFCURVE",
"74 -8 CURVE",
"74 -9 OFFCURVE",
"73 -28 OFFCURVE",
"42 -107 CURVE",
"85 -124 LINE"
);
},
{
closed = 1;
nodes = (
"270 -54 LINE",
"294 6 OFFCURVE",
"314 56 OFFCURVE",
"285 90 CURVE",
"273 103 OFFCURVE",
"257 110 OFFCURVE",
"240 110 CURVE SMOOTH",
"205 110 OFFCURVE",
"178 83 OFFCURVE",
"178 48 CURVE SMOOTH",
"178 16 OFFCURVE",
"203 -10 OFFCURVE",
"232 -8 CURVE",
"232 -9 OFFCURVE",
"231 -28 OFFCURVE",
"200 -107 CURVE",
"243 -124 LINE"
);
}
);
width = 319;
}
);
note = quotedblbase;
unicode = 201E;
},
{
glyphname = Euro;
lastChange = "2018-04-09 00:31:18 +0000";
layers = (
{
layerId = "2D48A379-BE71-4914-8765-C68406EE07E8";
paths = (
{
closed = 1;
nodes = (
"500 103 LINE",
"431 103 LINE SMOOTH",
"323 103 OFFCURVE",
"254 155 OFFCURVE",
"219 231 CURVE",
"429 231 LINE",
"429 309 LINE",
"197 309 LINE",
"193 333 OFFCURVE",
"192 370 OFFCURVE",
"197 394 CURVE",
"429 394 LINE",
"429 472 LINE",
"221 472 LINE",
"256 547 OFFCURVE",
"326 597 OFFCURVE",
"431 597 CURVE SMOOTH",
"500 597 LINE",
"500 705 LINE",
"431 705 LINE SMOOTH",
"347 705 OFFCURVE",
"277 680 OFFCURVE",
"222 640 CURVE SMOOTH",
"167 599 OFFCURVE",
"129 540 OFFCURVE",
"109 472 CURVE",
"40 472 LINE",
"40 394 LINE",
"93 394 LINE",
"90 366 OFFCURVE",
"90 337 OFFCURVE",
"93 309 CURVE",
"40 309 LINE",
"40 231 LINE",
"108 231 LINE",
"128 163 OFFCURVE",
"166 104 OFFCURVE",
"221 62 CURVE SMOOTH",
"276 20 OFFCURVE",
"346 -5 OFFCURVE",
"431 -5 CURVE SMOOTH",
"500 -5 LINE"
);
}
);
width = 550;
}
);
note = Euro;
unicode = 20AC;
},
{
glyphname = cent;
lastChange = "2018-04-09 00:32:17 +0000";
layers = (
{
layerId = "2D48A379-BE71-4914-8765-C68406EE07E8";
paths = (
{
closed = 1;
nodes = (
"392 233 LINE",
"368 202 OFFCURVE",
"302 188 OFFCURVE",
"245 198 CURVE SMOOTH",
"182 209 OFFCURVE",
"147 260 OFFCURVE",
"147 348 CURVE SMOOTH",
"147 436 OFFCURVE",
"182 486 OFFCURVE",
"245 498 CURVE SMOOTH",
"303 508 OFFCURVE",
"369 500 OFFCURVE",
"393 457 CURVE",
"464 537 LINE",
"425 578 OFFCURVE",
"382 602 OFFCURVE",
"320 609 CURVE",
"320 672 LINE",
"229 672 LINE",
"229 606 LINE",
"220 604 LINE",
"104 585 OFFCURVE",
"40 480 OFFCURVE",
"40 348 CURVE SMOOTH",
"40 217 OFFCURVE",
"101 110 OFFCURVE",
"220 91 CURVE",
"229 90 LINE",
"229 30 LINE",
"320 30 LINE",
"320 86 LINE",
"382 93 OFFCURVE",
"425 116 OFFCURVE",
"463 157 CURVE"
);
}
);
width = 504;
}
);
note = cent;
unicode = 00A2;
},
{
glyphname = currency;
lastChange = "2018-04-09 00:32:30 +0000";
layers = (
{
layerId = "2D48A379-BE71-4914-8765-C68406EE07E8";
paths = (
{
closed = 1;
nodes = (
"507 213 LINE",
"530 249 OFFCURVE",
"544 292 OFFCURVE",
"544 337 CURVE SMOOTH",
"544 384 OFFCURVE",
"529 427 OFFCURVE",
"506 463 CURVE",
"594 551 LINE",
"530 616 LINE",
"441 527 LINE",
"405 550 OFFCURVE",
"364 565 OFFCURVE",
"317 565 CURVE SMOOTH",
"270 565 OFFCURVE",
"229 550 OFFCURVE",
"193 527 CURVE",
"105 616 LINE",
"40 551 LINE",
"128 463 LINE",
"105 427 OFFCURVE",
"90 384 OFFCURVE",
"90 337 CURVE SMOOTH",
"90 292 OFFCURVE",
"104 249 OFFCURVE",
"127 213 CURVE",
"40 126 LINE",
"105 61 LINE",
"192 148 LINE",
"228 125 OFFCURVE",
"270 110 OFFCURVE",
"317 110 CURVE SMOOTH",
"364 110 OFFCURVE",
"406 125 OFFCURVE",
"442 149 CURVE",
"530 61 LINE",
"594 126 LINE"
);
},
{
closed = 1;
nodes = (
"353 467 OFFCURVE",
"385 453 OFFCURVE",
"409 429 CURVE SMOOTH",
"433 405 OFFCURVE",
"447 373 OFFCURVE",
"447 337 CURVE SMOOTH",
"447 301 OFFCURVE",
"433 269 OFFCURVE",
"409 245 CURVE SMOOTH",
"385 221 OFFCURVE",
"353 207 OFFCURVE",
"317 207 CURVE SMOOTH",
"281 207 OFFCURVE",
"249 221 OFFCURVE",
"225 245 CURVE SMOOTH",
"201 269 OFFCURVE",
"187 301 OFFCURVE",
"187 337 CURVE SMOOTH",
"187 373 OFFCURVE",
"201 405 OFFCURVE",
"225 429 CURVE SMOOTH",
"249 453 OFFCURVE",
"281 467 OFFCURVE",
"317 467 CURVE SMOOTH"
);
}
);
width = 634;
}
);
note = currency;
unicode = 00A4;
},
{
glyphname = dollar;
lastChange = "2018-04-09 00:33:00 +0000";
layers = (
{
layerId = "2D48A379-BE71-4914-8765-C68406EE07E8";
paths = (
{
closed = 1;
nodes = (
"487 99 OFFCURVE",
"509 152 OFFCURVE",
"509 207 CURVE SMOOTH",
"509 254 OFFCURVE",
"492 296 OFFCURVE",
"463 329 CURVE SMOOTH",
"434 362 OFFCURVE",
"392 387 OFFCURVE",
"344 400 CURVE SMOOTH",
"322 406 LINE",
"322 591 LINE",
"353 586 OFFCURVE",
"386 576 OFFCURVE",
"414 561 CURVE",
"489 638 LINE",
"436 673 OFFCURVE",
"378 692 OFFCURVE",
"322 699 CURVE",
"322 754 LINE",
"231 754 LINE",
"231 701 LINE",
"179 696 OFFCURVE",
"134 678 OFFCURVE",
"102 649 CURVE SMOOTH",
"69 620 OFFCURVE",
"48 578 OFFCURVE",
"44 525 CURVE SMOOTH",
"41 485 OFFCURVE",
"55 447 OFFCURVE",
"76 415 CURVE SMOOTH",
"97 383 OFFCURVE",
"126 358 OFFCURVE",
"157 343 CURVE SMOOTH",
"184 330 OFFCURVE",
"208 324 OFFCURVE",
"231 317 CURVE",
"231 106 LINE",
"183 118 OFFCURVE",
"141 144 OFFCURVE",
"118 167 CURVE",
"40 94 LINE",
"91 43 OFFCURVE",
"162 9 OFFCURVE",
"231 -3 CURVE",
"231 -57 LINE",
"322 -57 LINE",
"322 -4 LINE",
"369 4 OFFCURVE",
"410 25 OFFCURVE",
"446 59 CURVE SMOOTH"
);
},
{
closed = 1;
nodes = (
"227 432 OFFCURVE",
"202 441 OFFCURVE",
"202 441 CURVE SMOOTH",
"175 454 OFFCURVE",
"148 489 OFFCURVE",
"148 518 CURVE SMOOTH",
"149 567 OFFCURVE",
"183 587 OFFCURVE",
"231 594 CURVE",
"231 430 LINE"
);
},
{
closed = 1;
nodes = (
"366 281 OFFCURVE",
"404 250 OFFCURVE",
"404 207 CURVE SMOOTH",
"404 160 OFFCURVE",
"370 123 OFFCURVE",
"322 107 CURVE",
"322 294 LINE"
);
}
);
width = 549;
}
);
note = dollar;
unicode = 0024;
},
{
glyphname = sterling;
lastChange = "2018-04-09 00:33:57 +0000";
layers = (
{
layerId = "2D48A379-BE71-4914-8765-C68406EE07E8";
paths = (
{
closed = 1;
nodes = (
"50 313 LINE",
"121 313 LINE",
"121 252 OFFCURVE",
"90 173 OFFCURVE",
"40 88 CURVE",
"40 0 LINE",
"423 0 LINE",
"423 94 LINE",
"143 94 LINE",
"179 148 OFFCURVE",
"215 252 OFFCURVE",
"219 313 CURVE",
"345 313 LINE",
"345 405 LINE",
"219 405 LINE",
"217 416 OFFCURVE",
"214 426 OFFCURVE",
"210 437 CURVE SMOOTH",
"192 485 OFFCURVE",
"193 519 OFFCURVE",
"200 543 CURVE SMOOTH",
"207 566 OFFCURVE",
"220 579 OFFCURVE",
"232 587 CURVE",
"263 610 OFFCURVE",
"334 612 OFFCURVE",
"418 596 CURVE",
"418 698 LINE",
"325 714 OFFCURVE",
"231 710 OFFCURVE",
"175 669 CURVE SMOOTH",
"91 608 OFFCURVE",
"84 506 OFFCURVE",
"117 405 CURVE",
"50 405 LINE"
);
}
);
width = 468;
}
);
note = sterling;
unicode = 00A3;
},
{
glyphname = yen;
lastChange = "2018-04-09 00:34:31 +0000";
layers = (
{
layerId = "2D48A379-BE71-4914-8765-C68406EE07E8";
paths = (
{
closed = 1;
nodes = (
"515 700 LINE",
"339 349 LINE",
"163 700 LINE",
"40 700 LINE",
"233 335 LINE",
"96 335 LINE",
"96 240 LINE",
"285 240 LINE",
"285 174 LINE",
"96 174 LINE",
"96 79 LINE",
"285 79 LINE",
"285 0 LINE",
"394 0 LINE",
"394 79 LINE",
"582 79 LINE",
"582 174 LINE",
"394 174 LINE",
"394 240 LINE",
"582 240 LINE",
"582 335 LINE",
"446 335 LINE",
"638 700 LINE"
);
}
);
width = 678;
}
);
note = yen;
unicode = 00A5;
},
{
glyphname = plus;
lastChange = "2018-04-08 20:53:55 +0000";
layers = (
{
layerId = "2D48A379-BE71-4914-8765-C68406EE07E8";
paths = (
{
closed = 1;
nodes = (
"545 345 LINE",
"347 345 LINE",
"347 544 LINE",
"249 544 LINE",
"249 345 LINE",
"50 345 LINE",
"50 247 LINE",
"249 247 LINE",
"249 49 LINE",
"347 49 LINE",
"347 247 LINE",
"545 247 LINE"
);
}
);
width = 595;
}
);
note = plus;
unicode = 002B;
},
{
glyphname = minus;
lastChange = "2018-04-09 00:35:06 +0000";
layers = (
{
layerId = "2D48A379-BE71-4914-8765-C68406EE07E8";
paths = (
{
closed = 1;
nodes = (
"545 342 LINE",
"50 342 LINE",
"50 244 LINE",
"545 244 LINE"
);
}
);
width = 595;
}
);
note = minus;
unicode = 2212;
},
{
glyphname = multiply;
lastChange = "2018-04-12 21:50:55 +0000";
layers = (
{
layerId = "2D48A379-BE71-4914-8765-C68406EE07E8";
paths = (
{
closed = 1;
nodes = (
"398 523 LINE",
"259 384 LINE",
"119 523 LINE",
"50 454 LINE",
"190 315 LINE",
"51 176 LINE",
"120 107 LINE",
"259 246 LINE",
"397 107 LINE",
"466 176 LINE",
"328 315 LINE",
"467 454 LINE"
);
}
);
width = 517;
}
);
note = multiply;
unicode = 00D7;
},
{
glyphname = divide;
lastChange = "2018-04-09 00:37:40 +0000";
layers = (
{
layerId = "2D48A379-BE71-4914-8765-C68406EE07E8";
paths = (
{
closed = 1;
nodes = (
"545 342 LINE",
"50 342 LINE",
"50 244 LINE",
"545 244 LINE"
);
},
{
closed = 1;
nodes = (
"330 403 OFFCURVE",
"353 426 OFFCURVE",
"353 457 CURVE SMOOTH",
"353 488 OFFCURVE",
"330 511 OFFCURVE",
"299 511 CURVE SMOOTH",
"268 511 OFFCURVE",
"245 488 OFFCURVE",
"245 457 CURVE SMOOTH",
"245 426 OFFCURVE",
"268 403 OFFCURVE",
"299 403 CURVE SMOOTH"
);
},
{
closed = 1;
nodes = (
"330 73 OFFCURVE",
"353 96 OFFCURVE",
"353 127 CURVE SMOOTH",
"353 158 OFFCURVE",
"330 181 OFFCURVE",
"299 181 CURVE SMOOTH",
"268 181 OFFCURVE",
"245 158 OFFCURVE",
"245 127 CURVE SMOOTH",
"245 96 OFFCURVE",
"268 73 OFFCURVE",
"299 73 CURVE SMOOTH"
);
}
);
width = 595;
}
);
note = divide;
unicode = 00F7;
},
{
glyphname = equal;
lastChange = "2018-04-09 00:37:57 +0000";
layers = (
{
layerId = "2D48A379-BE71-4914-8765-C68406EE07E8";
paths = (
{
closed = 1;
nodes = (
"545 438 LINE",
"50 438 LINE",
"50 342 LINE",
"545 342 LINE"
);
},
{
closed = 1;
nodes = (
"545 258 LINE",
"50 258 LINE",
"50 162 LINE",
"545 162 LINE"
);
}
);
width = 595;
}
);
note = equal;
unicode = 003D;
},
{
glyphname = notequal;
lastChange = "2018-04-09 00:38:07 +0000";
layers = (
{
layerId = "2D48A379-BE71-4914-8765-C68406EE07E8";
paths = (
{
closed = 1;
nodes = (
"545 441 LINE",
"404 441 LINE",
"446 546 LINE",
"345 546 LINE",
"303 441 LINE",
"53 441 LINE",
"53 342 LINE",
"263 342 LINE",
"228 256 LINE",
"50 256 LINE",
"50 157 LINE",
"188 157 LINE",
"145 51 LINE",
"246 51 LINE",
"288 157 LINE",
"542 157 LINE",
"542 256 LINE",
"329 256 LINE",
"363 342 LINE",
"545 342 LINE"
);
}
);
width = 595;
}
);
note = notequal;
unicode = 2260;
},
{
glyphname = less;
lastChange = "2018-04-09 00:38:38 +0000";
layers = (
{
layerId = "2D48A379-BE71-4914-8765-C68406EE07E8";
paths = (
{
closed = 1;
nodes = (
"466 144 LINE",
"164 289 LINE",
"466 433 LINE",
"466 555 LINE",
"40 339 LINE",
"40 238 LINE",
"466 20 LINE"
);
}
);
width = 506;
}
);
note = less;
unicode = 003C;
},
{
glyphname = greaterequal;
lastChange = "2018-04-09 00:39:44 +0000";
layers = (
{
layerId = "2D48A379-BE71-4914-8765-C68406EE07E8";
paths = (
{
closed = 1;
nodes = (
"466 389 LINE",
"40 534 LINE",
"40 418 LINE",
"354 338 LINE",
"40 260 LINE",
"40 143 LINE",
"466 285 LINE"
);
},
{
closed = 1;
nodes = (
"466 98 LINE",
"40 98 LINE",
"40 0 LINE",
"466 0 LINE"
);
}
);
width = 506;
}
);
note = greaterequal;
unicode = 2265;
},
{
glyphname = plusminus;
lastChange = "2018-04-09 00:40:24 +0000";
layers = (
{
layerId = "2D48A379-BE71-4914-8765-C68406EE07E8";
paths = (
{
closed = 1;
nodes = (
"545 399 LINE",
"347 399 LINE",
"347 479 LINE",
"249 479 LINE",
"249 399 LINE",
"50 399 LINE",
"50 302 LINE",
"249 302 LINE",
"249 221 LINE",
"347 221 LINE",
"347 302 LINE",
"545 302 LINE"
);
},
{
closed = 1;
nodes = (
"545 167 LINE",
"50 167 LINE",
"50 70 LINE",
"545 70 LINE"
);
}
);
width = 595;
}
);
note = plusminus;
unicode = 00B1;
},
{
glyphname = approxequal;
lastChange = "2018-04-09 00:42:50 +0000";
layers = (
{
layerId = "2D48A379-BE71-4914-8765-C68406EE07E8";
paths = (
{
closed = 1;
nodes = (
"433 297 OFFCURVE",
"470 315 OFFCURVE",
"498 344 CURVE SMOOTH",
"525 372 OFFCURVE",
"543 413 OFFCURVE",
"543 458 CURVE",
"449 458 LINE",
"449 407 OFFCURVE",
"418 384 OFFCURVE",
"379 391 CURVE SMOOTH",
"369 393 OFFCURVE",
"332 409 OFFCURVE",
"316 418 CURVE",
"289 431 OFFCURVE",
"258 446 OFFCURVE",
"234 449 CURVE",
"186 457 OFFCURVE",
"137 442 OFFCURVE",
"101 413 CURVE SMOOTH",
"65 384 OFFCURVE",
"40 339 OFFCURVE",
"40 287 CURVE",
"136 287 LINE",
"136 308 OFFCURVE",
"146 329 OFFCURVE",
"162 342 CURVE SMOOTH",
"192 366 OFFCURVE",
"220 363 OFFCURVE",
"252 346 CURVE SMOOTH",
"265 339 OFFCURVE",
"279 333 OFFCURVE",
"294 326 CURVE SMOOTH",
"325 311 OFFCURVE",
"358 297 OFFCURVE",
"393 297 CURVE SMOOTH"
);
},
{
closed = 1;
nodes = (
"170 248 OFFCURVE",
"133 230 OFFCURVE",
"105 201 CURVE SMOOTH",
"78 173 OFFCURVE",
"60 132 OFFCURVE",
"60 87 CURVE",
"154 87 LINE",
"154 138 OFFCURVE",
"185 162 OFFCURVE",
"224 154 CURVE SMOOTH",
"234 152 OFFCURVE",
"271 136 OFFCURVE",
"287 127 CURVE",
"314 114 OFFCURVE",
"345 99 OFFCURVE",
"369 96 CURVE",
"417 88 OFFCURVE",
"466 103 OFFCURVE",
"502 132 CURVE SMOOTH",
"538 161 OFFCURVE",
"563 206 OFFCURVE",
"563 258 CURVE",
"467 258 LINE",
"467 237 OFFCURVE",
"457 216 OFFCURVE",
"441 203 CURVE SMOOTH",
"411 179 OFFCURVE",
"383 182 OFFCURVE",
"351 199 CURVE SMOOTH",
"338 206 OFFCURVE",
"324 212 OFFCURVE",
"309 219 CURVE SMOOTH",
"278 234 OFFCURVE",
"245 248 OFFCURVE",
"210 248 CURVE SMOOTH"
);
}
);
width = 603;
}
);
note = approxequal;
unicode = 2248;
},
{
glyphname = asciitilde;
lastChange = "2018-04-09 00:43:15 +0000";
layers = (
{
layerId = "2D48A379-BE71-4914-8765-C68406EE07E8";
paths = (
{
closed = 1;
nodes = (
"465 199 OFFCURVE",
"502 218 OFFCURVE",
"531 248 CURVE SMOOTH",
"559 278 OFFCURVE",
"579 319 OFFCURVE",
"586 366 CURVE",
"485 366 LINE",
"476 313 OFFCURVE",
"457 287 OFFCURVE",
"405 295 CURVE",
"387 299 OFFCURVE",
"341 321 OFFCURVE",
"334 324 CURVE",
"305 339 OFFCURVE",
"271 353 OFFCURVE",
"244 357 CURVE SMOOTH",
"173 366 OFFCURVE",
"125 342 OFFCURVE",
"101 318 CURVE SMOOTH",
"69 287 OFFCURVE",
"47 254 OFFCURVE",
"40 187 CURVE",
"143 187 LINE",
"154 236 OFFCURVE",
"182 270 OFFCURVE",
"229 263 CURVE",
"257 256 OFFCURVE",
"258 253 OFFCURVE",
"312 229 CURVE SMOOTH",
"345 214 OFFCURVE",
"382 199 OFFCURVE",
"421 199 CURVE SMOOTH"
);
}
);
width = 626;
}
);
note = asciitilde;
unicode = 007E;
},
{
glyphname = logicalnot;
lastChange = "2018-04-09 00:43:33 +0000";
layers = (
{
layerId = "2D48A379-BE71-4914-8765-C68406EE07E8";
paths = (
{
closed = 1;
nodes = (
"468 342 LINE",
"40 342 LINE",
"40 252 LINE",
"377 252 LINE",
"377 112 LINE",
"468 112 LINE"
);
}
);
width = 518;
}
);
note = logicalnot;
unicode = 00AC;
},
{
glyphname = emptyset;
lastChange = "2018-04-09 00:44:08 +0000";
layers = (
{
layerId = "2D48A379-BE71-4914-8765-C68406EE07E8";
paths = (
{
closed = 1;
nodes = (
"431 35 OFFCURVE",
"508 69 OFFCURVE",
"564 125 CURVE SMOOTH",
"620 181 OFFCURVE",
"654 258 OFFCURVE",
"654 342 CURVE SMOOTH",
"654 411 OFFCURVE",
"632 474 OFFCURVE",
"593 526 CURVE",
"650 583 LINE",
"589 645 LINE",
"531 587 LINE",
"480 627 OFFCURVE",
"416 650 OFFCURVE",
"347 650 CURVE SMOOTH",
"263 650 OFFCURVE",
"186 615 OFFCURVE",
"130 559 CURVE SMOOTH",
"74 503 OFFCURVE",
"40 426 OFFCURVE",
"40 342 CURVE SMOOTH",
"40 273 OFFCURVE",
"63 210 OFFCURVE",
"102 158 CURVE",
"44 101 LINE",
"106 40 LINE",
"163 97 LINE",
"215 58 OFFCURVE",
"278 35 OFFCURVE",
"347 35 CURVE SMOOTH"
);
},
{
closed = 1;
nodes = (
"378 586 OFFCURVE",
"469 526 CURVE",
"164 221 LINE",
"104 308 OFFCURVE",
"116 425 OFFCURVE",
"191 498 CURVE SMOOTH",
"262 571 OFFCURVE"
);
},
{
closed = 1;
nodes = (
"589 375 OFFCURVE",
"578 260 OFFCURVE",
"503 187 CURVE SMOOTH",
"432 114 OFFCURVE",
"317 99 OFFCURVE",
"226 159 CURVE",
"531 464 LINE"
);
}
);
width = 694;
}
);
note = emptyset;
unicode = 2205;
},
{
glyphname = infinity;
lastChange = "2018-04-09 00:44:34 +0000";
layers = (
{
layerId = "2D48A379-BE71-4914-8765-C68406EE07E8";
paths = (
{
closed = 1;
nodes = (
"668 0 OFFCURVE",
"718 22 OFFCURVE",
"754 58 CURVE SMOOTH",
"790 93 OFFCURVE",
"813 142 OFFCURVE",
"813 195 CURVE SMOOTH",
"813 248 OFFCURVE",
"790 298 OFFCURVE",
"754 334 CURVE SMOOTH",
"718 369 OFFCURVE",
"668 391 OFFCURVE",
"613 391 CURVE SMOOTH",
"545 391 OFFCURVE",
"466 347 OFFCURVE",
"431 298 CURVE",
"397 347 OFFCURVE",
"318 391 OFFCURVE",
"250 391 CURVE SMOOTH",
"195 391 OFFCURVE",
"145 369 OFFCURVE",
"109 334 CURVE SMOOTH",
"73 298 OFFCURVE",
"50 248 OFFCURVE",
"50 195 CURVE SMOOTH",
"50 142 OFFCURVE",
"73 93 OFFCURVE",
"109 58 CURVE SMOOTH",
"145 22 OFFCURVE",
"195 0 OFFCURVE",
"250 0 CURVE SMOOTH",
"317 0 OFFCURVE",
"396 44 OFFCURVE",
"431 92 CURVE",
"466 45 OFFCURVE",
"545 0 OFFCURVE",
"613 0 CURVE SMOOTH"
);
},
{
closed = 1;
nodes = (
"641 295 OFFCURVE",
"666 284 OFFCURVE",
"686 266 CURVE SMOOTH",
"705 248 OFFCURVE",
"716 223 OFFCURVE",
"716 195 CURVE SMOOTH",
"716 167 OFFCURVE",
"705 143 OFFCURVE",
"686 125 CURVE SMOOTH",
"666 107 OFFCURVE",
"641 95 OFFCURVE",
"613 95 CURVE SMOOTH",
"576 95 OFFCURVE",
"543 110 OFFCURVE",
"519 130 CURVE SMOOTH",
"495 150 OFFCURVE",
"481 175 OFFCURVE",
"481 195 CURVE SMOOTH",
"481 216 OFFCURVE",
"495 241 OFFCURVE",
"519 261 CURVE SMOOTH",
"543 281 OFFCURVE",
"576 295 OFFCURVE",
"613 295 CURVE SMOOTH"
);
},
{
closed = 1;
nodes = (
"289 295 OFFCURVE",
"321 281 OFFCURVE",
"345 261 CURVE SMOOTH",
"368 241 OFFCURVE",
"382 216 OFFCURVE",
"382 195 CURVE SMOOTH",
"382 175 OFFCURVE",
"368 150 OFFCURVE",
"345 130 CURVE SMOOTH",
"321 110 OFFCURVE",
"289 95 OFFCURVE",
"250 95 CURVE SMOOTH",
"222 95 OFFCURVE",
"197 107 OFFCURVE",
"178 125 CURVE SMOOTH",
"158 143 OFFCURVE",
"147 167 OFFCURVE",
"147 195 CURVE SMOOTH",
"147 223 OFFCURVE",
"158 248 OFFCURVE",
"178 266 CURVE SMOOTH",
"197 284 OFFCURVE",
"222 295 OFFCURVE",
"250 295 CURVE SMOOTH"
);
}
);
width = 863;
}
);
note = infinity;
unicode = 221E;
},
{
glyphname = integral;
lastChange = "2018-04-08 20:53:55 +0000";
layers = (
{
layerId = "2D48A379-BE71-4914-8765-C68406EE07E8";
paths = (
{
closed = 1;
nodes = (
"517 707 LINE",
"426 707 LINE SMOOTH",
"367 707 OFFCURVE",
"330 672 OFFCURVE",
"302 604 CURVE SMOOTH",
"274 536 OFFCURVE",
"255 436 OFFCURVE",
"234 304 CURVE SMOOTH",
"226 257 OFFCURVE",
"218 212 OFFCURVE",
"211 168 CURVE SMOOTH",
"195 80 OFFCURVE",
"168 -55 OFFCURVE",
"125 -55 CURVE SMOOTH",
"40 -55 LINE",
"40 -158 LINE",
"131 -158 LINE SMOOTH",
"167 -158 OFFCURVE",
"196 -145 OFFCURVE",
"218 -120 CURVE SMOOTH",
"262 -70 OFFCURVE",
"279 -3 OFFCURVE",
"291 45 CURVE SMOOTH",
"302 92 OFFCURVE",
"313 147 OFFCURVE",
"322 205 CURVE SMOOTH",
"327 234 OFFCURVE",
"332 264 OFFCURVE",
"337 295 CURVE SMOOTH",
"357 408 OFFCURVE",
"370 486 OFFCURVE",
"385 537 CURVE SMOOTH",
"392 563 OFFCURVE",
"400 581 OFFCURVE",
"408 590 CURVE",
"415 599 OFFCURVE",
"423 604 OFFCURVE",
"432 604 CURVE SMOOTH",
"517 604 LINE"
);
}
);
width = 557;
}
);
note = integral;
unicode = 222B;
},
{
glyphname = product;
lastChange = "2018-04-08 20:53:55 +0000";
layers = (
{
layerId = "2D48A379-BE71-4914-8765-C68406EE07E8";
paths = (
{
closed = 1;
nodes = (
"535 700 LINE",
"40 700 LINE",
"40 607 LINE",
"142 607 LINE",
"142 -101 LINE",
"233 -101 LINE",
"233 607 LINE",
"352 607 LINE",
"352 -101 LINE",
"444 -101 LINE",
"444 607 LINE",
"535 607 LINE"
);
}
);
width = 575;
}
);
note = product;
unicode = 220F;
},
{
glyphname = summation;
lastChange = "2018-04-09 00:46:05 +0000";
layers = (
{
layerId = "2D48A379-BE71-4914-8765-C68406EE07E8";
paths = (
{
closed = 1;
nodes = (
"516 5 LINE",
"187 5 LINE",
"382 301 LINE",
"187 597 LINE",
"516 597 LINE",
"516 700 LINE",
"45 700 LINE",
"45 613 LINE",
"263 301 LINE",
"45 -11 LINE",
"45 -98 LINE",
"516 -98 LINE"
);
}
);
width = 561;
}
);
note = summation;
unicode = 2211;
},
{
glyphname = radical;
lastChange = "2018-04-12 21:50:55 +0000";
layers = (
{
layerId = "2D48A379-BE71-4914-8765-C68406EE07E8";
paths = (
{
closed = 1;
nodes = (
"598 700 LINE",
"352 700 LINE",
"218 -8 LINE",
"148 199 LINE",
"32 199 LINE",
"159 -145 LINE",
"290 -145 LINE",
"439 602 LINE",
"598 602 LINE"
);
}
);
width = 643;
}
);
note = radical;
unicode = 221A;
},
{
glyphname = partialdiff;
lastChange = "2018-04-09 00:46:27 +0000";
layers = (
{
layerId = "2D48A379-BE71-4914-8765-C68406EE07E8";
paths = (
{
closed = 1;
nodes = (
"313 -10 OFFCURVE",
"375 10 OFFCURVE",
"423 47 CURVE SMOOTH",
"470 84 OFFCURVE",
"503 141 OFFCURVE",
"511 206 CURVE SMOOTH",
"526 318 OFFCURVE",
"483 441 OFFCURVE",
"387 600 CURVE SMOOTH",
"366 635 OFFCURVE",
"344 667 OFFCURVE",
"323 699 CURVE",
"188 700 LINE",
"223 653 OFFCURVE",
"257 607 OFFCURVE",
"292 556 CURVE SMOOTH",
"319 517 OFFCURVE",
"349 472 OFFCURVE",
"370 433 CURVE",
"306 480 OFFCURVE",
"226 477 OFFCURVE",
"164 446 CURVE SMOOTH",
"102 415 OFFCURVE",
"53 353 OFFCURVE",
"42 265 CURVE SMOOTH",
"34 200 OFFCURVE",
"54 137 OFFCURVE",
"91 89 CURVE SMOOTH",
"128 40 OFFCURVE",
"184 6 OFFCURVE",
"249 -2 CURVE SMOOTH"
);
},
{
closed = 1;
nodes = (
"327 360 OFFCURVE",
"357 341 OFFCURVE",
"378 315 CURVE SMOOTH",
"398 289 OFFCURVE",
"408 255 OFFCURVE",
"404 220 CURVE SMOOTH",
"400 184 OFFCURVE",
"382 154 OFFCURVE",
"356 134 CURVE SMOOTH",
"330 113 OFFCURVE",
"296 103 OFFCURVE",
"261 107 CURVE SMOOTH",
"226 111 OFFCURVE",
"196 130 OFFCURVE",
"176 156 CURVE SMOOTH",
"156 182 OFFCURVE",
"145 216 OFFCURVE",
"149 252 CURVE SMOOTH",
"153 287 OFFCURVE",
"172 317 OFFCURVE",
"198 338 CURVE SMOOTH",
"224 358 OFFCURVE",
"257 368 OFFCURVE",
"292 364 CURVE SMOOTH"
);
}
);
width = 554;
}
);
note = partialdiff;
unicode = 2202;
},
{
glyphname = percent;
lastChange = "2018-04-09 00:46:35 +0000";
layers = (
{
layerId = "2D48A379-BE71-4914-8765-C68406EE07E8";
paths = (
{
closed = 1;
nodes = (
"339 -1 LINE",
"650 701 LINE",
"550 701 LINE",
"239 -1 LINE"
);
},
{
closed = 1;
nodes = (
"266 368 OFFCURVE",
"308 387 OFFCURVE",
"338 417 CURVE SMOOTH",
"368 447 OFFCURVE",
"386 488 OFFCURVE",
"386 535 CURVE SMOOTH",
"386 582 OFFCURVE",
"368 625 OFFCURVE",
"338 655 CURVE SMOOTH",
"308 685 OFFCURVE",
"266 703 OFFCURVE",
"219 703 CURVE SMOOTH",
"172 703 OFFCURVE",
"130 685 OFFCURVE",
"99 655 CURVE SMOOTH",
"68 625 OFFCURVE",
"50 582 OFFCURVE",
"50 535 CURVE SMOOTH",
"50 488 OFFCURVE",
"68 447 OFFCURVE",
"99 417 CURVE SMOOTH",
"130 387 OFFCURVE",
"172 368 OFFCURVE",
"219 368 CURVE SMOOTH"
);
},
{
closed = 1;
nodes = (
"172 455 OFFCURVE",
"138 491 OFFCURVE",
"138 535 CURVE SMOOTH",
"138 580 OFFCURVE",
"172 615 OFFCURVE",
"219 615 CURVE SMOOTH",
"263 615 OFFCURVE",
"299 580 OFFCURVE",
"299 535 CURVE SMOOTH",
"299 491 OFFCURVE",
"263 455 OFFCURVE",
"219 455 CURVE SMOOTH"
);
},
{
closed = 1;
nodes = (
"713 -3 OFFCURVE",
"754 16 OFFCURVE",
"785 46 CURVE SMOOTH",
"816 76 OFFCURVE",
"834 117 OFFCURVE",
"834 164 CURVE SMOOTH",
"834 211 OFFCURVE",
"816 254 OFFCURVE",
"785 284 CURVE SMOOTH",
"754 314 OFFCURVE",
"713 332 OFFCURVE",
"666 332 CURVE SMOOTH",
"619 332 OFFCURVE",
"577 314 OFFCURVE",
"547 284 CURVE SMOOTH",
"517 254 OFFCURVE",
"498 211 OFFCURVE",
"498 164 CURVE SMOOTH",
"498 117 OFFCURVE",
"517 76 OFFCURVE",
"547 46 CURVE SMOOTH",
"577 16 OFFCURVE",
"619 -3 OFFCURVE",
"666 -3 CURVE SMOOTH"
);
},
{
closed = 1;
nodes = (
"621 85 OFFCURVE",
"585 120 OFFCURVE",
"585 164 CURVE SMOOTH",
"585 209 OFFCURVE",
"621 245 OFFCURVE",
"666 245 CURVE SMOOTH",
"711 245 OFFCURVE",
"746 211 OFFCURVE",
"746 164 CURVE SMOOTH",
"746 120 OFFCURVE",
"711 85 OFFCURVE",
"666 85 CURVE SMOOTH"
);
}
);
width = 884;
}
);
note = percent;
unicode = 0025;
},
{
glyphname = perthousand;
lastChange = "2018-04-09 00:47:04 +0000";
layers = (
{
layerId = "2D48A379-BE71-4914-8765-C68406EE07E8";
paths = (
{
closed = 1;
nodes = (
"342 -1 LINE",
"655 701 LINE",
"554 701 LINE",
"240 -1 LINE"
);
},
{
closed = 1;
nodes = (
"267 368 OFFCURVE",
"309 387 OFFCURVE",
"340 417 CURVE SMOOTH",
"371 447 OFFCURVE",
"389 488 OFFCURVE",
"389 535 CURVE SMOOTH",
"389 582 OFFCURVE",
"371 625 OFFCURVE",
"340 655 CURVE SMOOTH",
"309 685 OFFCURVE",
"267 703 OFFCURVE",
"220 703 CURVE SMOOTH",
"172 703 OFFCURVE",
"130 685 OFFCURVE",
"99 655 CURVE SMOOTH",
"68 625 OFFCURVE",
"50 582 OFFCURVE",
"50 535 CURVE SMOOTH",
"50 488 OFFCURVE",
"68 447 OFFCURVE",
"99 417 CURVE SMOOTH",
"130 387 OFFCURVE",
"172 368 OFFCURVE",
"220 368 CURVE SMOOTH"
);
},
{
closed = 1;
nodes = (
"173 455 OFFCURVE",
"138 491 OFFCURVE",
"138 535 CURVE SMOOTH",
"138 580 OFFCURVE",
"173 615 OFFCURVE",
"220 615 CURVE SMOOTH",
"265 615 OFFCURVE",
"301 580 OFFCURVE",
"301 535 CURVE SMOOTH",
"301 491 OFFCURVE",
"265 455 OFFCURVE",
"220 455 CURVE SMOOTH"
);
},
{
closed = 1;
nodes = (
"718 -3 OFFCURVE",
"760 16 OFFCURVE",
"791 46 CURVE SMOOTH",
"822 76 OFFCURVE",
"840 117 OFFCURVE",
"840 164 CURVE SMOOTH",
"840 211 OFFCURVE",
"822 254 OFFCURVE",
"791 284 CURVE SMOOTH",
"760 314 OFFCURVE",
"718 332 OFFCURVE",
"671 332 CURVE SMOOTH",
"623 332 OFFCURVE",
"581 314 OFFCURVE",
"550 284 CURVE SMOOTH",
"519 254 OFFCURVE",
"501 211 OFFCURVE",
"501 164 CURVE SMOOTH",
"501 117 OFFCURVE",
"520 76 OFFCURVE",
"551 46 CURVE SMOOTH",
"582 16 OFFCURVE",
"624 -3 OFFCURVE",
"671 -3 CURVE SMOOTH"
);
},
{
closed = 1;
nodes = (
"626 85 OFFCURVE",
"590 120 OFFCURVE",
"590 164 CURVE SMOOTH",
"590 209 OFFCURVE",
"626 245 OFFCURVE",
"671 245 CURVE SMOOTH",
"716 245 OFFCURVE",
"752 211 OFFCURVE",
"752 164 CURVE SMOOTH",
"752 120 OFFCURVE",
"716 85 OFFCURVE",
"671 85 CURVE SMOOTH"
);
},
{
closed = 1;
nodes = (
"1108 -3 OFFCURVE",
"1150 16 OFFCURVE",
"1181 46 CURVE SMOOTH",
"1212 76 OFFCURVE",
"1230 117 OFFCURVE",
"1230 164 CURVE SMOOTH",
"1230 211 OFFCURVE",
"1212 254 OFFCURVE",
"1181 284 CURVE SMOOTH",
"1150 314 OFFCURVE",
"1108 332 OFFCURVE",
"1061 332 CURVE SMOOTH",
"1013 332 OFFCURVE",
"971 314 OFFCURVE",
"940 284 CURVE SMOOTH",
"909 254 OFFCURVE",
"891 211 OFFCURVE",
"891 164 CURVE SMOOTH",
"891 117 OFFCURVE",
"909 76 OFFCURVE",
"940 46 CURVE SMOOTH",
"971 16 OFFCURVE",
"1013 -3 OFFCURVE",
"1061 -3 CURVE SMOOTH"
);
},
{
closed = 1;
nodes = (
"1014 85 OFFCURVE",
"979 120 OFFCURVE",
"979 164 CURVE SMOOTH",
"979 209 OFFCURVE",
"1014 245 OFFCURVE",
"1061 245 CURVE SMOOTH",
"1106 245 OFFCURVE",
"1142 211 OFFCURVE",
"1142 164 CURVE SMOOTH",
"1142 120 OFFCURVE",
"1106 85 OFFCURVE",
"1061 85 CURVE SMOOTH"
);
}
);
width = 1280;
}
);
note = perthousand;
unicode = 2030;
},
{
glyphname = lozenge;
lastChange = "2018-04-09 00:47:24 +0000";
layers = (
{
layerId = "2D48A379-BE71-4914-8765-C68406EE07E8";
paths = (
{
closed = 1;
nodes = (
"317 660 LINE",
"223 660 LINE",
"50 330 LINE",
"223 0 LINE",
"317 0 LINE",
"491 330 LINE"
);
},
{
closed = 1;
nodes = (
"271 121 LINE",
"164 330 LINE",
"271 539 LINE",
"377 330 LINE"
);
}
);
width = 541;
}
);
note = lozenge;
unicode = 25CA;
},
{
glyphname = at;
lastChange = "2018-04-09 00:49:05 +0000";
layers = (
{
layerId = "2D48A379-BE71-4914-8765-C68406EE07E8";
paths = (
{
closed = 1;
nodes = (
"430 -112 OFFCURVE",
"448 -111 OFFCURVE",
"476 -107 CURVE",
"476 -15 LINE",
"429 -23 OFFCURVE",
"386 -22 OFFCURVE",
"346 -12 CURVE SMOOTH",
"265 8 OFFCURVE",
"199 60 OFFCURVE",
"164 128 CURVE SMOOTH",
"129 196 OFFCURVE",
"123 272 OFFCURVE",
"145 348 CURVE SMOOTH",
"167 424 OFFCURVE",
"220 491 OFFCURVE",
"288 530 CURVE SMOOTH",
"356 569 OFFCURVE",
"438 579 OFFCURVE",
"511 559 CURVE SMOOTH",
"584 539 OFFCURVE",
"650 488 OFFCURVE",
"687 412 CURVE SMOOTH",
"723 336 OFFCURVE",
"723 224 OFFCURVE",
"705 161 CURVE SMOOTH",
"696 130 OFFCURVE",
"683 109 OFFCURVE",
"668 100 CURVE",
"653 92 OFFCURVE",
"636 87 OFFCURVE",
"621 88 CURVE",
"606 88 OFFCURVE",
"593 95 OFFCURVE",
"592 111 CURVE",
"592 350 LINE SMOOTH",
"592 411 OFFCURVE",
"559 451 OFFCURVE",
"512 469 CURVE SMOOTH",
"465 487 OFFCURVE",
"406 484 OFFCURVE",
"354 463 CURVE SMOOTH",
"341 458 OFFCURVE",
"328 452 OFFCURVE",
"317 445 CURVE",
"301 436 OFFCURVE",
"279 419 OFFCURVE",
"263 405 CURVE",
"313 352 LINE",
"369 410 OFFCURVE",
"501 428 OFFCURVE",
"501 347 CURVE SMOOTH",
"501 325 LINE",
"411 325 OFFCURVE",
"368 331 OFFCURVE",
"308 287 CURVE SMOOTH",
"271 259 OFFCURVE",
"252 224 OFFCURVE",
"252 182 CURVE SMOOTH",
"252 167 OFFCURVE",
"255 146 OFFCURVE",
"264 125 CURVE",
"272 104 OFFCURVE",
"289 83 OFFCURVE",
"317 70 CURVE",
"336 62 OFFCURVE",
"355 59 OFFCURVE",
"375 59 CURVE SMOOTH",
"414 59 OFFCURVE",
"465 71 OFFCURVE",
"501 104 CURVE",
"501 76 LINE",
"506 28 OFFCURVE",
"541 4 OFFCURVE",
"583 -3 CURVE SMOOTH",
"625 -10 OFFCURVE",
"675 0 OFFCURVE",
"712 20 CURVE SMOOTH",
"783 59 OFFCURVE",
"811 152 OFFCURVE",
"807 291 CURVE SMOOTH",
"804 408 OFFCURVE",
"753 511 OFFCURVE",
"668 580 CURVE SMOOTH",
"588 644 OFFCURVE",
"489 673 OFFCURVE",
"386 658 CURVE SMOOTH",
"285 645 OFFCURVE",
"193 593 OFFCURVE",
"128 510 CURVE SMOOTH",
"61 426 OFFCURVE",
"33 324 OFFCURVE",
"42 226 CURVE SMOOTH",
"51 128 OFFCURVE",
"97 33 OFFCURVE",
"180 -32 CURVE SMOOTH",
"247 -84 OFFCURVE",
"327 -112 OFFCURVE",
"411 -112 CURVE SMOOTH"
);
},
{
closed = 1;
nodes = (
"375 143 OFFCURVE",
"345 140 OFFCURVE",
"342 182 CURVE SMOOTH",
"338 244 OFFCURVE",
"439 253 OFFCURVE",
"502 259 CURVE",
"502 194 LINE",
"478 178 OFFCURVE",
"448 164 OFFCURVE",
"420 156 CURVE SMOOTH"
);
}
);
width = 847;
}
);
note = at;
unicode = 0040;
},
{
glyphname = ampersand;
lastChange = "2018-04-12 21:50:55 +0000";
layers = (
{
layerId = "2D48A379-BE71-4914-8765-C68406EE07E8";
paths = (
{
closed = 1;
nodes = (
"351 -2 OFFCURVE",
"417 23 OFFCURVE",
"480 74 CURVE",
"548 0 LINE",
"672 0 LINE",
"541 142 LINE",
"581 206 OFFCURVE",
"582 279 OFFCURVE",
"582 379 CURVE",
"490 379 LINE",
"495 310 OFFCURVE",
"491 255 OFFCURVE",
"478 213 CURVE",
"423 275 OFFCURVE",
"245 480 OFFCURVE",
"229 507 CURVE SMOOTH",
"216 528 OFFCURVE",
"218 557 OFFCURVE",
"230 579 CURVE SMOOTH",
"242 601 OFFCURVE",
"264 619 OFFCURVE",
"292 620 CURVE SMOOTH",
"327 621 OFFCURVE",
"348 613 OFFCURVE",
"362 600 CURVE SMOOTH",
"375 588 OFFCURVE",
"381 571 OFFCURVE",
"387 553 CURVE",
"478 585 LINE",
"470 608 OFFCURVE",
"457 636 OFFCURVE",
"435 660 CURVE SMOOTH",
"406 690 OFFCURVE",
"361 712 OFFCURVE",
"292 712 CURVE SMOOTH",
"225 712 OFFCURVE",
"174 677 OFFCURVE",
"146 627 CURVE SMOOTH",
"118 577 OFFCURVE",
"114 514 OFFCURVE",
"143 459 CURVE SMOOTH",
"148 450 OFFCURVE",
"162 432 OFFCURVE",
"181 409 CURVE",
"147 390 OFFCURVE",
"118 365 OFFCURVE",
"93 334 CURVE",
"48 274 OFFCURVE",
"34 215 OFFCURVE",
"42 163 CURVE SMOOTH",
"50 111 OFFCURVE",
"81 67 OFFCURVE",
"125 36 CURVE SMOOTH",
"169 5 OFFCURVE",
"227 -10 OFFCURVE",
"289 -6 CURVE SMOOTH"
);
},
{
closed = 1;
nodes = (
"226 90 OFFCURVE",
"192 109 OFFCURVE",
"171 136 CURVE SMOOTH",
"150 164 OFFCURVE",
"140 200 OFFCURVE",
"148 239 CURVE SMOOTH",
"156 278 OFFCURVE",
"182 317 OFFCURVE",
"230 352 CURVE",
"420 140 LINE",
"364 100 OFFCURVE",
"312 86 OFFCURVE",
"269 88 CURVE SMOOTH"
);
}
);
width = 712;
}
);
note = ampersand;
unicode = 0026;
},
{
glyphname = paragraph;
lastChange = "2018-04-09 00:50:41 +0000";
layers = (
{
layerId = "2D48A379-BE71-4914-8765-C68406EE07E8";
paths = (
{
closed = 1;
nodes = (
"506 698 LINE",
"416 698 LINE",
"416 -58 LINE",
"506 -58 LINE"
);
},
{
closed = 1;
nodes = (
"362 698 LINE",
"196 698 LINE SMOOTH",
"153 698 OFFCURVE",
"114 678 OFFCURVE",
"86 649 CURVE SMOOTH",
"58 620 OFFCURVE",
"40 578 OFFCURVE",
"40 537 CURVE SMOOTH",
"40 493 OFFCURVE",
"57 453 OFFCURVE",
"85 425 CURVE SMOOTH",
"113 396 OFFCURVE",
"152 378 OFFCURVE",
"196 378 CURVE SMOOTH",
"222 378 OFFCURVE",
"247 384 OFFCURVE",
"271 397 CURVE",
"271 -58 LINE",
"362 -58 LINE"
);
}
);
width = 546;
}
);
note = paragraph;
unicode = 00B6;
},
{
glyphname = section;
lastChange = "2018-04-12 21:50:55 +0000";
layers = (
{
layerId = "2D48A379-BE71-4914-8765-C68406EE07E8";
paths = (
{
closed = 1;
nodes = (
"373 267 OFFCURVE",
"391 308 OFFCURVE",
"391 352 CURVE SMOOTH",
"391 381 OFFCURVE",
"380 409 OFFCURVE",
"364 430 CURVE SMOOTH",
"347 451 OFFCURVE",
"325 467 OFFCURVE",
"304 478 CURVE",
"279 490 OFFCURVE",
"254 496 OFFCURVE",
"231 500 CURVE SMOOTH",
"211 504 OFFCURVE",
"190 509 OFFCURVE",
"174 517 CURVE SMOOTH",
"158 525 OFFCURVE",
"146 535 OFFCURVE",
"146 550 CURVE SMOOTH",
"146 583 OFFCURVE",
"178 615 OFFCURVE",
"223 615 CURVE SMOOTH",
"254 615 OFFCURVE",
"290 595 OFFCURVE",
"319 568 CURVE",
"388 638 LINE",
"364 661 OFFCURVE",
"336 679 OFFCURVE",
"305 692 CURVE SMOOTH",
"274 704 OFFCURVE",
"244 711 OFFCURVE",
"216 711 CURVE SMOOTH",
"168 711 OFFCURVE",
"125 695 OFFCURVE",
"90 660 CURVE SMOOTH",
"61 631 OFFCURVE",
"45 591 OFFCURVE",
"45 551 CURVE SMOOTH",
"45 532 OFFCURVE",
"49 512 OFFCURVE",
"58 493 CURVE SMOOTH",
"65 478 OFFCURVE",
"76 464 OFFCURVE",
"91 453 CURVE",
"59 431 OFFCURVE",
"40 390 OFFCURVE",
"40 346 CURVE SMOOTH",
"40 315 OFFCURVE",
"51 289 OFFCURVE",
"68 268 CURVE SMOOTH",
"84 247 OFFCURVE",
"106 231 OFFCURVE",
"127 220 CURVE",
"152 208 OFFCURVE",
"177 202 OFFCURVE",
"200 198 CURVE SMOOTH",
"220 194 OFFCURVE",
"241 189 OFFCURVE",
"257 181 CURVE SMOOTH",
"316 151 OFFCURVE",
"272 83 OFFCURVE",
"208 83 CURVE SMOOTH",
"177 83 OFFCURVE",
"141 103 OFFCURVE",
"112 130 CURVE",
"43 60 LINE",
"90 13 OFFCURVE",
"160 -13 OFFCURVE",
"215 -13 CURVE SMOOTH",
"263 -13 OFFCURVE",
"306 3 OFFCURVE",
"341 38 CURVE SMOOTH",
"370 67 OFFCURVE",
"386 107 OFFCURVE",
"386 147 CURVE SMOOTH",
"386 166 OFFCURVE",
"382 186 OFFCURVE",
"373 205 CURVE SMOOTH",
"366 220 OFFCURVE",
"352 238 OFFCURVE",
"341 245 CURVE"
);
},
{
closed = 1;
nodes = (
"315 296 OFFCURVE",
"221 279 OFFCURVE",
"164 313 CURVE SMOOTH",
"144 326 OFFCURVE",
"133 343 OFFCURVE",
"133 360 CURVE SMOOTH",
"133 381 OFFCURVE",
"152 408 OFFCURVE",
"193 408 CURVE SMOOTH",
"255 408 OFFCURVE",
"293 381 OFFCURVE",
"300 354 CURVE SMOOTH"
);
}
);
width = 431;
}
);
note = section;
unicode = 00A7;
},
{
glyphname = copyright;
lastChange = "2018-04-09 00:52:04 +0000";
layers = (
{
layerId = "2D48A379-BE71-4914-8765-C68406EE07E8";
paths = (
{
closed = 1;
nodes = (
"478 -3 OFFCURVE",
"563 36 OFFCURVE",
"625 100 CURVE SMOOTH",
"687 164 OFFCURVE",
"725 253 OFFCURVE",
"725 350 CURVE SMOOTH",
"725 447 OFFCURVE",
"687 536 OFFCURVE",
"625 600 CURVE SMOOTH",
"563 664 OFFCURVE",
"478 703 OFFCURVE",
"383 703 CURVE SMOOTH",
"288 703 OFFCURVE",
"203 664 OFFCURVE",
"141 600 CURVE SMOOTH",
"79 536 OFFCURVE",
"40 447 OFFCURVE",
"40 350 CURVE SMOOTH",
"40 253 OFFCURVE",
"79 164 OFFCURVE",
"141 100 CURVE SMOOTH",
"203 36 OFFCURVE",
"288 -3 OFFCURVE",
"383 -3 CURVE SMOOTH"
);
},
{
closed = 1;
nodes = (
"451 614 OFFCURVE",
"514 585 OFFCURVE",
"560 537 CURVE SMOOTH",
"606 489 OFFCURVE",
"634 423 OFFCURVE",
"634 350 CURVE SMOOTH",
"634 277 OFFCURVE",
"606 211 OFFCURVE",
"560 163 CURVE SMOOTH",
"514 115 OFFCURVE",
"451 86 OFFCURVE",
"383 86 CURVE SMOOTH",
"315 86 OFFCURVE",
"252 115 OFFCURVE",
"206 163 CURVE SMOOTH",
"160 211 OFFCURVE",
"131 277 OFFCURVE",
"131 350 CURVE SMOOTH",
"131 423 OFFCURVE",
"160 489 OFFCURVE",
"206 537 CURVE SMOOTH",
"252 585 OFFCURVE",
"315 614 OFFCURVE",
"383 614 CURVE SMOOTH"
);
},
{
closed = 1;
nodes = (
"465 267 LINE",
"460 262 OFFCURVE",
"454 256 OFFCURVE",
"446 252 CURVE SMOOTH",
"426 242 OFFCURVE",
"398 236 OFFCURVE",
"361 243 CURVE SMOOTH",
"316 251 OFFCURVE",
"286 287 OFFCURVE",
"286 351 CURVE SMOOTH",
"286 414 OFFCURVE",
"316 450 OFFCURVE",
"361 458 CURVE SMOOTH",
"398 465 OFFCURVE",
"426 460 OFFCURVE",
"446 449 CURVE SMOOTH",
"453 445 OFFCURVE",
"459 440 OFFCURVE",
"463 435 CURVE",
"521 501 LINE",
"481 541 OFFCURVE",
"424 558 OFFCURVE",
"341 543 CURVE SMOOTH",
"254 528 OFFCURVE",
"199 455 OFFCURVE",
"199 351 CURVE SMOOTH",
"199 299 OFFCURVE",
"213 254 OFFCURVE",
"238 221 CURVE SMOOTH",
"263 188 OFFCURVE",
"298 165 OFFCURVE",
"342 158 CURVE SMOOTH",
"424 144 OFFCURVE",
"480 160 OFFCURVE",
"520 199 CURVE"
);
}
);
width = 765;
}
);
note = copyright;
unicode = 00A9;
},
{
glyphname = registered;
lastChange = "2018-04-09 00:55:08 +0000";
layers = (
{
layerId = "2D48A379-BE71-4914-8765-C68406EE07E8";
paths = (
{
closed = 1;
nodes = (
"273 322 OFFCURVE",
"320 344 OFFCURVE",
"353 378 CURVE SMOOTH",
"385 412 OFFCURVE",
"406 459 OFFCURVE",
"406 511 CURVE SMOOTH",
"406 563 OFFCURVE",
"385 611 OFFCURVE",
"353 645 CURVE SMOOTH",
"320 679 OFFCURVE",
"273 700 OFFCURVE",
"224 700 CURVE SMOOTH",
"173 700 OFFCURVE",
"127 679 OFFCURVE",
"94 645 CURVE SMOOTH",
"61 611 OFFCURVE",
"40 563 OFFCURVE",
"40 511 CURVE SMOOTH",
"40 459 OFFCURVE",
"61 412 OFFCURVE",
"94 378 CURVE SMOOTH",
"127 344 OFFCURVE",
"173 322 OFFCURVE",
"224 322 CURVE SMOOTH"
);
},
{
closed = 1;
nodes = (
"257 639 OFFCURVE",
"288 625 OFFCURVE",
"310 602 CURVE SMOOTH",
"333 578 OFFCURVE",
"347 545 OFFCURVE",
"347 511 CURVE SMOOTH",
"347 475 OFFCURVE",
"333 443 OFFCURVE",
"310 420 CURVE SMOOTH",
"288 398 OFFCURVE",
"257 382 OFFCURVE",
"224 382 CURVE SMOOTH",
"191 382 OFFCURVE",
"158 398 OFFCURVE",
"137 420 CURVE SMOOTH",
"115 443 OFFCURVE",
"100 475 OFFCURVE",
"100 511 CURVE SMOOTH",
"100 545 OFFCURVE",
"115 578 OFFCURVE",
"137 602 CURVE SMOOTH",
"158 625 OFFCURVE",
"191 639 OFFCURVE",
"224 639 CURVE SMOOTH"
);
},
{
closed = 1;
nodes = (
"257.935 496.294 LINE",
"271 505 OFFCURVE",
"285 524 OFFCURVE",
"285 546 CURVE SMOOTH",
"285 578 OFFCURVE",
"263 604 OFFCURVE",
"237 604 CURVE SMOOTH",
"169.126 604 LINE",
"166.872 426 LINE",
"208 426 LINE",
"208 490 LINE",
"214.027 490 LINE",
"252.027 426 LINE",
"301.192 426 LINE"
);
},
{
closed = 1;
nodes = (
"249 564 OFFCURVE",
"249 535 OFFCURVE",
"235 535 CURVE SMOOTH",
"208 535 LINE",
"208 564 LINE",
"237 564 LINE SMOOTH"
);
}
);
width = 446;
}
);
note = registered;
unicode = 00AE;
},
{
glyphname = trademark;
lastChange = "2018-04-09 00:55:36 +0000";
layers = (
{
layerId = "2D48A379-BE71-4914-8765-C68406EE07E8";
paths = (
{
closed = 1;
nodes = (
"643 700 LINE",
"529 700 LINE",
"455 501 LINE",
"380 700 LINE",
"40 700 LINE",
"40 623 LINE",
"137 623 LINE",
"137 342 LINE",
"218 342 LINE",
"218 623 LINE",
"268 623 LINE",
"268 342 LINE",
"350 342 LINE",
"350 577 LINE",
"420 396 LINE",
"491 396 LINE",
"561 577 LINE",
"561 342 LINE",
"643 342 LINE"
);
}
);
width = 683;
}
);
note = trademark;
unicode = 2122;
},
{
glyphname = degree;
lastChange = "2018-04-08 20:53:55 +0000";
layers = (
{
layerId = "2D48A379-BE71-4914-8765-C68406EE07E8";
paths = (
{
closed = 1;
nodes = (
"224 412 OFFCURVE",
"260 428 OFFCURVE",
"286 454 CURVE SMOOTH",
"312 480 OFFCURVE",
"327 515 OFFCURVE",
"327 555 CURVE SMOOTH",
"327 595 OFFCURVE",
"312 631 OFFCURVE",
"286 657 CURVE SMOOTH",
"260 683 OFFCURVE",
"224 699 OFFCURVE",
"184 699 CURVE SMOOTH",
"144 699 OFFCURVE",
"108 683 OFFCURVE",
"82 657 CURVE SMOOTH",
"56 631 OFFCURVE",
"40 595 OFFCURVE",
"40 555 CURVE SMOOTH",
"40 515 OFFCURVE",
"56 480 OFFCURVE",
"82 454 CURVE SMOOTH",
"108 428 OFFCURVE",
"144 412 OFFCURVE",
"184 412 CURVE SMOOTH"
);
},
{
closed = 1;
nodes = (
"215 611 OFFCURVE",
"239 586 OFFCURVE",
"239 555 CURVE SMOOTH",
"239 524 OFFCURVE",
"215 500 OFFCURVE",
"184 500 CURVE SMOOTH",
"153 500 OFFCURVE",
"128 524 OFFCURVE",
"128 555 CURVE SMOOTH",
"128 586 OFFCURVE",
"153 611 OFFCURVE",
"184 611 CURVE SMOOTH"
);
}
);
width = 367;
}
);
note = degree;
unicode = 00B0;
},
{
glyphname = bar;
lastChange = "2018-04-09 00:56:01 +0000";
layers = (
{
layerId = "2D48A379-BE71-4914-8765-C68406EE07E8";
paths = (
{
closed = 1;
nodes = (
"145 698 LINE",
"50 698 LINE",
"50 -58 LINE",
"145 -58 LINE"
);
}
);
width = 195;
}
);
note = bar;
unicode = 007C;
},
{
glyphname = brokenbar;
lastChange = "2018-04-09 00:56:15 +0000";
layers = (
{
layerId = "2D48A379-BE71-4914-8765-C68406EE07E8";
paths = (
{
closed = 1;
nodes = (
"140 700 LINE",
"50 700 LINE",
"50 358 LINE",
"140 358 LINE"
);
},
{
closed = 1;
nodes = (
"140 205 LINE",
"50 205 LINE",
"50 -137 LINE",
"140 -137 LINE"
);
}
);
width = 190;
}
);
note = brokenbar;
unicode = 00A6;
},
{
glyphname = dagger;
lastChange = "2018-04-09 00:56:42 +0000";
layers = (
{
layerId = "2D48A379-BE71-4914-8765-C68406EE07E8";
paths = (
{
closed = 1;
nodes = (
"310 590 LINE",
"225 590 LINE",
"225 700 LINE",
"135 700 LINE",
"135 589 LINE",
"50 589 LINE",
"50 500 LINE",
"135 500 LINE",
"135 205 LINE",
"225 205 LINE",
"225 500 LINE",
"310 500 LINE"
);
}
);
width = 360;
}
);
note = dagger;
unicode = 2020;
},
{
glyphname = daggerdbl;
lastChange = "2018-04-09 00:57:10 +0000";
layers = (
{
layerId = "2D48A379-BE71-4914-8765-C68406EE07E8";
paths = (
{
closed = 1;
nodes = (
"310 397 LINE",
"225 397 LINE",
"225 500 LINE",
"310 500 LINE",
"310 590 LINE",
"225 590 LINE",
"225 701 LINE",
"135 701 LINE",
"135 589 LINE",
"50 589 LINE",
"50 500 LINE",
"135 500 LINE",
"135 397 LINE",
"50 397 LINE",
"50 307 LINE",
"135 307 LINE",
"135 206 LINE",
"225 206 LINE",
"225 308 LINE",
"310 308 LINE"
);
}
);
width = 360;
}
);
note = daggerdbl;
unicode = 2021;
},
{
glyphname = asciicircum;
lastChange = "2018-04-12 21:50:55 +0000";
layers = (
{
layerId = "2D48A379-BE71-4914-8765-C68406EE07E8";
paths = (
{
closed = 1;
nodes = (
"312 700 LINE",
"218 700 LINE",
"40 370 LINE",
"156 370 LINE",
"266 578 LINE",
"375 370 LINE",
"491 370 LINE"
);
}
);
width = 531;
}
);
note = asciicircum;
unicode = 005E;
},
{
glyphname = dieresiscomb;
lastChange = "2018-04-09 02:59:38 +0000";
layers = (
{
anchors = (
{
name = _top;
position = "{133, 545}";
},
{
name = top;
position = "{133, 701}";
}
);
layerId = "2D48A379-BE71-4914-8765-C68406EE07E8";
paths = (
{
closed = 1;
nodes = (
"74 604 OFFCURVE",
"95 626 OFFCURVE",
"95 653 CURVE SMOOTH",
"95 680 OFFCURVE",
"74 701 OFFCURVE",
"47 701 CURVE SMOOTH",
"20 701 OFFCURVE",
"0 680 OFFCURVE",
"0 653 CURVE SMOOTH",
"0 626 OFFCURVE",
"20 606 OFFCURVE",
"47 605 CURVE SMOOTH"
);
},
{
closed = 1;
nodes = (
"244 604 OFFCURVE",
"265 626 OFFCURVE",
"265 653 CURVE SMOOTH",
"265 680 OFFCURVE",
"244 701 OFFCURVE",
"217 701 CURVE SMOOTH",
"190 701 OFFCURVE",
"170 680 OFFCURVE",
"170 653 CURVE SMOOTH",
"170 626 OFFCURVE",
"190 606 OFFCURVE",
"217 605 CURVE SMOOTH"
);
}
);
width = 265;
}
);
unicode = 0308;
},
{
glyphname = dotaccentcomb;
lastChange = "2018-04-09 02:59:31 +0000";
layers = (
{
anchors = (
{
name = _top;
position = "{48, 545}";
},
{
name = top;
position = "{48, 701}";
}
);
layerId = "2D48A379-BE71-4914-8765-C68406EE07E8";
paths = (
{
closed = 1;
nodes = (
"74 604 OFFCURVE",
"95 626 OFFCURVE",
"95 653 CURVE SMOOTH",
"95 680 OFFCURVE",
"74 701 OFFCURVE",
"47 701 CURVE SMOOTH",
"20 701 OFFCURVE",
"0 680 OFFCURVE",
"0 653 CURVE SMOOTH",
"0 626 OFFCURVE",
"20 606 OFFCURVE",
"47 605 CURVE SMOOTH"
);
}
);
width = 95;
}
);
unicode = 0307;
},
{
glyphname = gravecomb;
lastChange = "2018-04-09 03:07:13 +0000";
layers = (
{
anchors = (
{
name = _top;
position = "{55, 540}";
},
{
name = top;
position = "{55, 739}";
}
);
layerId = "2D48A379-BE71-4914-8765-C68406EE07E8";
paths = (
{
closed = 1;
nodes = (
"72 739 LINE",
"0 739 LINE",
"36 606 LINE",
"96 606 LINE"
);
}
);
width = 96;
}
);
note = gravecomb;
unicode = 0300;
},
{
glyphname = acutecomb;
lastChange = "2018-04-09 03:06:53 +0000";
layers = (
{
anchors = (
{
name = _top;
position = "{34, 540}";
},
{
name = top;
position = "{34, 739}";
}
);
layerId = "2D48A379-BE71-4914-8765-C68406EE07E8";
paths = (
{
closed = 1;
nodes = (
"24 739 LINE",
"0 606 LINE",
"60 606 LINE",
"96 739 LINE"
);
}
);
width = 96;
}
);
note = acutecomb;
unicode = 0301;
},
{
glyphname = hungarumlautcomb;
lastChange = "2018-04-09 02:56:03 +0000";
layers = (
{
anchors = (
{
name = _top;
position = "{99, 540}";
},
{
name = top;
position = "{99, 739}";
}
);
layerId = "2D48A379-BE71-4914-8765-C68406EE07E8";
paths = (
{
closed = 1;
nodes = (
"145 739 LINE",
"116 606 LINE",
"177 606 LINE",
"220 739 LINE"
);
},
{
closed = 1;
nodes = (
"27 739 LINE",
"0 606 LINE",
"61 606 LINE",
"102 739 LINE"
);
}
);
width = 220;
}
);
unicode = 030B;
},
{
glyphname = circumflexcomb;
lastChange = "2018-04-09 02:56:15 +0000";
layers = (
{
anchors = (
{
name = _top;
position = "{137, 540}";
},
{
name = top;
position = "{137, 700}";
}
);
layerId = "2D48A379-BE71-4914-8765-C68406EE07E8";
paths = (
{
closed = 1;
nodes = (
"163 700 LINE",
"111 700 LINE",
"0 589 LINE",
"87 589 LINE",
"137 641 LINE",
"187 589 LINE",
"274 589 LINE"
);
}
);
width = 274;
}
);
unicode = 0302;
},
{
glyphname = caroncomb;
lastChange = "2018-04-09 03:03:40 +0000";
layers = (
{
anchors = (
{
name = _top;
position = "{137, 535}";
},
{
name = top;
position = "{137, 700}";
}
);
layerId = "2D48A379-BE71-4914-8765-C68406EE07E8";
paths = (
{
closed = 1;
nodes = (
"187 700 LINE",
"137 648 LINE",
"87 700 LINE",
"0 700 LINE",
"111 589 LINE",
"163 589 LINE",
"274 700 LINE"
);
}
);
width = 274;
}
);
unicode = 030C;
},
{
glyphname = brevecomb;
lastChange = "2018-04-09 02:56:47 +0000";
layers = (
{
anchors = (
{
name = _top;
position = "{115, 540}";
},
{
name = top;
position = "{115, 701}";
}
);
layerId = "2D48A379-BE71-4914-8765-C68406EE07E8";
paths = (
{
closed = 1;
nodes = (
"146 586 OFFCURVE",
"174 598 OFFCURVE",
"195 618 CURVE SMOOTH",
"216 638 OFFCURVE",
"229 666 OFFCURVE",
"229 701 CURVE",
"166 701 LINE",
"166 666 OFFCURVE",
"142 645 OFFCURVE",
"114 645 CURVE SMOOTH",
"86 645 OFFCURVE",
"63 666 OFFCURVE",
"63 701 CURVE",
"0 701 LINE",
"0 666 OFFCURVE",
"13 638 OFFCURVE",
"34 618 CURVE SMOOTH",
"54 598 OFFCURVE",
"82 586 OFFCURVE",
"114 586 CURVE SMOOTH"
);
}
);
width = 229;
}
);
unicode = 0306;
},
{
glyphname = ringcomb;
lastChange = "2018-04-09 02:57:07 +0000";
layers = (
{
anchors = (
{
name = _top;
position = "{73, 540}";
},
{
name = top;
position = "{73, 729}";
}
);
layerId = "2D48A379-BE71-4914-8765-C68406EE07E8";
paths = (
{
closed = 1;
nodes = (
"113 583 OFFCURVE",
"146 616 OFFCURVE",
"146 656 CURVE SMOOTH",
"146 695 OFFCURVE",
"113 729 OFFCURVE",
"73 729 CURVE SMOOTH",
"34 729 OFFCURVE",
"0 695 OFFCURVE",
"0 656 CURVE SMOOTH",
"0 616 OFFCURVE",
"34 583 OFFCURVE",
"73 583 CURVE SMOOTH"
);
},
{
closed = 1;
nodes = (
"56 626 OFFCURVE",
"42 640 OFFCURVE",
"42 657 CURVE SMOOTH",
"42 673 OFFCURVE",
"56 687 OFFCURVE",
"73 687 CURVE SMOOTH",
"89 687 OFFCURVE",
"103 673 OFFCURVE",
"103 657 CURVE SMOOTH",
"103 640 OFFCURVE",
"89 626 OFFCURVE",
"73 626 CURVE SMOOTH"
);
}
);
width = 146;
}
);
unicode = 030A;
},
{
glyphname = tildecomb;
lastChange = "2018-04-09 02:57:14 +0000";
layers = (
{
anchors = (
{
name = _top;
position = "{126, 540}";
},
{
name = top;
position = "{126, 702}";
}
);
layerId = "2D48A379-BE71-4914-8765-C68406EE07E8";
paths = (
{
closed = 1;
nodes = (
"226 598 OFFCURVE",
"251 639 OFFCURVE",
"251 700 CURVE",
"189 700 LINE",
"189 681 OFFCURVE",
"185 658 OFFCURVE",
"170 658 CURVE SMOOTH",
"149 658 OFFCURVE",
"151 702 OFFCURVE",
"90 702 CURVE SMOOTH",
"37 702 OFFCURVE",
"0 663 OFFCURVE",
"0 599 CURVE",
"62 599 LINE",
"62 617 OFFCURVE",
"66 641 OFFCURVE",
"87 641 CURVE SMOOTH",
"102 641 OFFCURVE",
"118 598 OFFCURVE",
"170 598 CURVE SMOOTH"
);
}
);
width = 251;
}
);
note = tildecomb;
unicode = 0303;
},
{
glyphname = macroncomb;
lastChange = "2018-04-09 02:57:50 +0000";
layers = (
{
anchors = (
{
name = _top;
position = "{125, 570}";
},
{
name = top;
position = "{125, 700}";
}
);
layerId = "2D48A379-BE71-4914-8765-C68406EE07E8";
paths = (
{
closed = 1;
nodes = (
"250 700 LINE",
"0 700 LINE",
"0 640 LINE",
"250 640 LINE"
);
}
);
width = 250;
}
);
unicode = 0304;
},
{
glyphname = commaturnedabovecomb;
lastChange = "2018-04-12 21:50:55 +0000";
layers = (
{
anchors = (
{
name = _top;
position = "{71, 500}";
},
{
name = top;
position = "{71, 743}";
}
);
layerId = "2D48A379-BE71-4914-8765-C68406EE07E8";
paths = (
{
closed = 1;
nodes = (
"44 682 LINE",
"23 629 OFFCURVE",
"5 585 OFFCURVE",
"30 556 CURVE",
"41 544 OFFCURVE",
"55 538 OFFCURVE",
"70 538 CURVE SMOOTH",
"101 538 OFFCURVE",
"124 562 OFFCURVE",
"124 592 CURVE SMOOTH",
"124 620 OFFCURVE",
"102 643 OFFCURVE",
"77 641 CURVE",
"77 642 OFFCURVE",
"78 659 OFFCURVE",
"105 728 CURVE",
"67 743 LINE"
);
}
);
width = 107;
}
);
unicode = 0312;
},
{
glyphname = commaaccentcomb;
lastChange = "2018-04-12 21:50:55 +0000";
layers = (
{
anchors = (
{
name = _bottom;
position = "{37, 0}";
},
{
name = bottom;
position = "{37, -200}";
}
);
layerId = "2D48A379-BE71-4914-8765-C68406EE07E8";
paths = (
{
closed = 1;
nodes = (
"58 -159 LINE",
"78 -111 OFFCURVE",
"94 -70 OFFCURVE",
"71 -42 CURVE",
"61 -32 OFFCURVE",
"48 -25 OFFCURVE",
"33 -25 CURVE SMOOTH",
"5 -25 OFFCURVE",
"-17 -47 OFFCURVE",
"-17 -75 CURVE SMOOTH",
"-17 -102 OFFCURVE",
"3 -123 OFFCURVE",
"28 -122 CURVE",
"28 -123 OFFCURVE",
"27 -138 OFFCURVE",
"1 -203 CURVE",
"36 -216 LINE"
);
}
);
width = 100;
}
);
unicode = 0326;
},
{
glyphname = cedillacomb;
lastChange = "2018-04-09 03:00:01 +0000";
layers = (
{
anchors = (
{
name = _bottom;
position = "{91, 0}";
},
{
name = bottom;
position = "{91, -191}";
}
);
layerId = "2D48A379-BE71-4914-8765-C68406EE07E8";
paths = (
{
closed = 1;
nodes = (
"0 -147 LINE",
"17 -177 OFFCURVE",
"54 -191 OFFCURVE",
"84 -191 CURVE SMOOTH",
"148 -191 OFFCURVE",
"182 -144 OFFCURVE",
"182 -100 CURVE SMOOTH",
"182 -42 OFFCURVE",
"151 -11 OFFCURVE",
"106 -14 CURVE",
"137 30 LINE",
"81 49 LINE",
"29 -34 LINE",
"27 -73 LINE",
"39 -81 LINE",
"68 -46 OFFCURVE",
"127 -55 OFFCURVE",
"127 -95 CURVE SMOOTH",
"127 -129 OFFCURVE",
"111 -141 OFFCURVE",
"84 -141 CURVE SMOOTH",
"74 -141 OFFCURVE",
"60 -137 OFFCURVE",
"49 -122 CURVE"
);
}
);
width = 182;
}
);
unicode = 0327;
},
{
glyphname = ogonekcomb;
lastChange = "2018-04-09 03:00:23 +0000";
layers = (
{
anchors = (
{
name = _ogonek;
position = "{106, 11}";
}
);
layerId = "2D48A379-BE71-4914-8765-C68406EE07E8";
paths = (
{
closed = 1;
nodes = (
"26 -153 OFFCURVE",
"52 -164 OFFCURVE",
"83 -166 CURVE SMOOTH",
"114 -168 OFFCURVE",
"149 -161 OFFCURVE",
"181 -138 CURVE",
"146 -91 LINE",
"118 -110 OFFCURVE",
"95 -108 OFFCURVE",
"80 -89 CURVE SMOOTH",
"65 -69 OFFCURVE",
"68 -47 OFFCURVE",
"106 11 CURVE",
"38 12 LINE",
"-2 -52 OFFCURVE",
"-10 -103 OFFCURVE",
"13 -134 CURVE"
);
}
);
width = 181;
}
);
unicode = 0328;
},
{
glyphname = strokeshortcomb;
lastChange = "2018-04-09 02:47:08 +0000";
layers = (
{
anchors = (
{
name = _center;
position = "{210, 312}";
}
);
layerId = "2D48A379-BE71-4914-8765-C68406EE07E8";
paths = (
{
closed = 1;
nodes = (
"420 342 LINE",
"0 342 LINE",
"0 282 LINE",
"420 282 LINE"
);
}
);
width = 420;
}
);
unicode = 0335;
},
{
glyphname = strokelongcomb;
lastChange = "2018-04-09 02:47:04 +0000";
layers = (
{
anchors = (
{
name = _center;
position = "{301, 312}";
}
);
layerId = "2D48A379-BE71-4914-8765-C68406EE07E8";
paths = (
{
closed = 1;
nodes = (
"601 342 LINE",
"0 342 LINE",
"0 282 LINE",
"601 282 LINE"
);
}
);
width = 601;
}
);
unicode = 0336;
},
{
glyphname = slashshortcomb;
lastChange = "2018-04-09 03:02:06 +0000";
layers = (
{
anchors = (
{
name = _center;
position = "{233, 282}";
}
);
layerId = "2D48A379-BE71-4914-8765-C68406EE07E8";
paths = (
{
closed = 1;
nodes = (
"376 564 LINE",
"0 0 LINE",
"89 0 LINE",
"466 564 LINE"
);
}
);
width = 466;
}
);
unicode = 0337;
},
{
glyphname = slashlongcomb;
lastChange = "2018-04-09 03:02:01 +0000";
layers = (
{
anchors = (
{
name = _center;
position = "{279, 341}";
}
);
layerId = "2D48A379-BE71-4914-8765-C68406EE07E8";
paths = (
{
closed = 1;
nodes = (
"467 764 LINE",
"0 -83 LINE",
"89 -83 LINE",
"557 764 LINE"
);
}
);
width = 557;
}
);
unicode = 0338;
},
